<ttFont>
    <TTGlyph name="A" xMin="8" yMin="-11" xMax="1669" yMax="1387">
      <contour>
        <pt x="1318" y="0" on="1"/>
        <pt x="1284" y="0" on="0"/>
        <pt x="1185" y="-3" on="0"/>
        <pt x="1118" y="-5" on="1"/>
        <pt x="957" y="-11" on="1"/>
        <pt x="957" y="113" on="1"/>
        <pt x="976" y="116" on="0"/>
        <pt x="1010" y="118" on="0"/>
        <pt x="1035" y="124" on="0"/>
        <pt x="1049" y="137" on="0"/>
        <pt x="1049" y="151" on="1"/>
        <pt x="1049" y="156" on="0"/>
        <pt x="1047" y="166" on="0"/>
        <pt x="1045" y="173" on="1"/>
        <pt x="975" y="390" on="1"/>
        <pt x="639" y="390" on="1"/>
        <pt x="599" y="256" on="1"/>
        <pt x="591" y="232" on="0"/>
        <pt x="585" y="190" on="0"/>
        <pt x="585" y="173" on="1"/>
        <pt x="585" y="158" on="0"/>
        <pt x="601" y="140" on="0"/>
        <pt x="627" y="128" on="0"/>
        <pt x="662" y="121" on="0"/>
        <pt x="682" y="118" on="1"/>
        <pt x="657" y="-11" on="1"/>
        <pt x="602" y="-6" on="0"/>
        <pt x="450" y="0" on="0"/>
        <pt x="350" y="0" on="1"/>
        <pt x="229" y="0" on="0"/>
        <pt x="59" y="-6" on="0"/>
        <pt x="8" y="-11" on="1"/>
        <pt x="45" y="122" on="1"/>
        <pt x="71" y="126" on="1"/>
        <pt x="104" y="131" on="0"/>
        <pt x="147" y="148" on="0"/>
        <pt x="176" y="176" on="0"/>
        <pt x="196" y="219" on="0"/>
        <pt x="208" y="250" on="1"/>
        <pt x="274" y="426" on="0"/>
        <pt x="393" y="735" on="0"/>
        <pt x="503" y="1013" on="0"/>
        <pt x="604" y="1267" on="0"/>
        <pt x="652" y="1387" on="1"/>
        <pt x="835" y="1387" on="1"/>
        <pt x="881" y="1387" on="0"/>
        <pt x="960" y="1381" on="0"/>
        <pt x="1023" y="1363" on="0"/>
        <pt x="1066" y="1329" on="0"/>
        <pt x="1077" y="1301" on="1"/>
        <pt x="1154" y="1094" on="0"/>
        <pt x="1272" y="776" on="0"/>
        <pt x="1360" y="537" on="0"/>
        <pt x="1422" y="369" on="0"/>
        <pt x="1464" y="257" on="0"/>
        <pt x="1488" y="192" on="0"/>
        <pt x="1500" y="159" on="0"/>
        <pt x="1503" y="149" on="0"/>
        <pt x="1503" y="148" on="1"/>
        <pt x="1643" y="128" on="1"/>
        <pt x="1669" y="-11" on="1"/>
        <pt x="1507" y="-6" on="0"/>
        <pt x="1334" y="0" on="0"/>
      </contour>
      <contour>
        <pt x="800" y="1006" on="1"/>
        <pt x="669" y="543" on="1"/>
        <pt x="933" y="543" on="1"/>
        <pt x="921" y="583" on="0"/>
        <pt x="890" y="695" on="0"/>
        <pt x="856" y="821" on="0"/>
        <pt x="820" y="949" on="0"/>
        <pt x="804" y="1006" on="1"/>
      </contour>
    </TTGlyph>
    <TTGlyph name="AE" xMin="0" yMin="-11" xMax="2233" yMax="1387">
      <contour>
        <pt x="1310" y="0" on="1"/>
        <pt x="1276" y="0" on="0"/>
        <pt x="1177" y="-3" on="0"/>
        <pt x="1110" y="-5" on="1"/>
        <pt x="949" y="-11" on="1"/>
        <pt x="949" y="113" on="1"/>
        <pt x="1017" y="122" on="1"/>
        <pt x="1043" y="125" on="0"/>
        <pt x="1043" y="146" on="1"/>
        <pt x="1043" y="152" on="0"/>
        <pt x="1037" y="173" on="1"/>
        <pt x="967" y="390" on="1"/>
        <pt x="631" y="390" on="1"/>
        <pt x="591" y="256" on="1"/>
        <pt x="583" y="229" on="0"/>
        <pt x="577" y="188" on="0"/>
        <pt x="577" y="177" on="1"/>
        <pt x="577" y="159" on="0"/>
        <pt x="595" y="137" on="0"/>
        <pt x="624" y="125" on="0"/>
        <pt x="658" y="120" on="0"/>
        <pt x="674" y="118" on="1"/>
        <pt x="649" y="-11" on="1"/>
        <pt x="594" y="-6" on="0"/>
        <pt x="442" y="0" on="0"/>
        <pt x="342" y="0" on="1"/>
        <pt x="221" y="0" on="0"/>
        <pt x="51" y="-6" on="0"/>
        <pt x="0" y="-11" on="1"/>
        <pt x="37" y="122" on="1"/>
        <pt x="63" y="126" on="1"/>
        <pt x="112" y="133" on="0"/>
        <pt x="164" y="165" on="0"/>
        <pt x="179" y="201" on="1"/>
        <pt x="201" y="255" on="1"/>
        <pt x="268" y="421" on="0"/>
        <pt x="485" y="989" on="0"/>
        <pt x="644" y="1387" on="1"/>
        <pt x="1683" y="1387" on="1"/>
        <pt x="1855" y="1066" on="1"/>
        <pt x="1643" y="1038" on="1"/>
        <pt x="1623" y="1077" on="0"/>
        <pt x="1576" y="1150" on="0"/>
        <pt x="1548" y="1185" on="1"/>
        <pt x="1411" y="1203" on="0"/>
        <pt x="1329" y="1203" on="1"/>
        <pt x="1112" y="1203" on="1"/>
        <pt x="1268" y="777" on="1"/>
        <pt x="1441" y="777" on="1"/>
        <pt x="1458" y="777" on="0"/>
        <pt x="1469" y="798" on="0"/>
        <pt x="1469" y="822" on="1"/>
        <pt x="1469" y="855" on="0"/>
        <pt x="1460" y="911" on="1"/>
        <pt x="1611" y="911" on="1"/>
        <pt x="1770" y="476" on="1"/>
        <pt x="1756" y="475" on="0"/>
        <pt x="1728" y="475" on="0"/>
        <pt x="1714" y="475" on="1"/>
        <pt x="1619" y="475" on="1"/>
        <pt x="1577" y="548" on="0"/>
        <pt x="1525" y="619" on="0"/>
        <pt x="1498" y="619" on="1"/>
        <pt x="1325" y="619" on="1"/>
        <pt x="1490" y="167" on="1"/>
        <pt x="1770" y="167" on="1"/>
        <pt x="1852" y="167" on="0"/>
        <pt x="1887" y="180" on="1"/>
        <pt x="1886" y="219" on="0"/>
        <pt x="1873" y="276" on="0"/>
        <pt x="1864" y="314" on="1"/>
        <pt x="1853" y="361" on="1"/>
        <pt x="1922" y="359" on="0"/>
        <pt x="2054" y="359" on="0"/>
        <pt x="2120" y="359" on="1"/>
        <pt x="2148" y="280" on="0"/>
        <pt x="2204" y="108" on="0"/>
        <pt x="2233" y="14" on="1"/>
        <pt x="2003" y="-1" on="0"/>
        <pt x="1835" y="-1" on="1"/>
      </contour>
      <contour>
        <pt x="661" y="543" on="1"/>
        <pt x="924" y="543" on="1"/>
        <pt x="776" y="949" on="1"/>
      </contour>
    </TTGlyph>
    <TTGlyph name="Aacute" xMin="8" yMin="-11" xMax="1669" yMax="1903">
      <component glyphName="acute" x="296" y="421" flags="0x1004"/>
      <component glyphName="A" x="0" y="0" flags="0x1204"/>
    </TTGlyph>
    <TTGlyph name="Acircumflex" xMin="8" yMin="-11" xMax="1669" yMax="1883">
      <component glyphName="circumflex" x="250" y="388" flags="0x1004"/>
      <component glyphName="A" x="0" y="0" flags="0x1204"/>
    </TTGlyph>
    <TTGlyph name="Adieresis" xMin="8" yMin="-11" xMax="1669" yMax="1846">
      <component glyphName="dieresis" x="183" y="434" flags="0x1004"/>
      <component glyphName="A" x="0" y="0" flags="0x1204"/>
    </TTGlyph>
    <TTGlyph name="Agrave" xMin="8" yMin="-11" xMax="1669" yMax="1904">
      <component glyphName="grave" x="8" y="422" flags="0x1004"/>
      <component glyphName="A" x="0" y="0" flags="0x1204"/>
    </TTGlyph>
    <TTGlyph name="Aring" xMin="8" yMin="-11" xMax="1669" yMax="1779">
      <component glyphName="ring" x="566" y="296" flags="0x1004"/>
      <component glyphName="A" x="0" y="0" flags="0x1204"/>
    </TTGlyph>
    <TTGlyph name="Atilde" xMin="8" yMin="-11" xMax="1669" yMax="1817">
      <component glyphName="tilde" x="296" y="312" flags="0x1004"/>
      <component glyphName="A" x="0" y="0" flags="0x1204"/>
    </TTGlyph>
    <TTGlyph name="B" xMin="57" yMin="-10" xMax="1441" yMax="1387">
      <contour>
        <pt x="1158" y="703" on="1"/>
        <pt x="1441" y="625" on="0"/>
        <pt x="1441" y="382" on="1"/>
        <pt x="1441" y="296" on="0"/>
        <pt x="1388" y="172" on="0"/>
        <pt x="1294" y="85" on="0"/>
        <pt x="1166" y="31" on="0"/>
        <pt x="1013" y="1" on="0"/>
        <pt x="843" y="-10" on="0"/>
        <pt x="755" y="-10" on="1"/>
        <pt x="360" y="-10" on="0"/>
        <pt x="71" y="11" on="1"/>
        <pt x="71" y="167" on="1"/>
        <pt x="213" y="167" on="1"/>
        <pt x="232" y="167" on="0"/>
        <pt x="253" y="185" on="0"/>
        <pt x="264" y="216" on="0"/>
        <pt x="266" y="256" on="0"/>
        <pt x="266" y="278" on="1"/>
        <pt x="266" y="1092" on="1"/>
        <pt x="266" y="1159" on="0"/>
        <pt x="259" y="1197" on="1"/>
        <pt x="57" y="1197" on="1"/>
        <pt x="57" y="1364" on="1"/>
        <pt x="237" y="1375" on="0"/>
        <pt x="608" y="1387" on="0"/>
        <pt x="808" y="1387" on="1"/>
        <pt x="1408" y="1387" on="0"/>
        <pt x="1408" y="1006" on="1"/>
        <pt x="1408" y="962" on="0"/>
        <pt x="1376" y="875" on="0"/>
        <pt x="1313" y="796" on="0"/>
        <pt x="1219" y="728" on="0"/>
      </contour>
      <contour>
        <pt x="736" y="609" on="1"/>
        <pt x="723" y="609" on="0"/>
        <pt x="700" y="608" on="0"/>
        <pt x="695" y="608" on="1"/>
        <pt x="695" y="167" on="1"/>
        <pt x="730" y="165" on="0"/>
        <pt x="789" y="162" on="0"/>
        <pt x="814" y="162" on="1"/>
        <pt x="911" y="162" on="0"/>
        <pt x="1005" y="272" on="0"/>
        <pt x="1005" y="375" on="1"/>
        <pt x="1005" y="439" on="0"/>
        <pt x="973" y="529" on="0"/>
        <pt x="907" y="584" on="0"/>
        <pt x="805" y="609" on="0"/>
      </contour>
      <contour>
        <pt x="745" y="772" on="1"/>
        <pt x="857" y="772" on="0"/>
        <pt x="976" y="888" on="0"/>
        <pt x="976" y="1000" on="1"/>
        <pt x="976" y="1109" on="0"/>
        <pt x="875" y="1211" on="0"/>
        <pt x="766" y="1211" on="1"/>
        <pt x="746" y="1211" on="0"/>
        <pt x="722" y="1211" on="0"/>
        <pt x="707" y="1211" on="0"/>
        <pt x="698" y="1210" on="0"/>
        <pt x="695" y="1210" on="1"/>
        <pt x="695" y="772" on="1"/>
      </contour>
    </TTGlyph>
    <TTGlyph name="C" xMin="113" yMin="-35" xMax="1440" yMax="1412">
      <contour>
        <pt x="898" y="158" on="1"/>
        <pt x="978" y="158" on="0"/>
        <pt x="1116" y="182" on="0"/>
        <pt x="1240" y="224" on="0"/>
        <pt x="1356" y="278" on="0"/>
        <pt x="1415" y="308" on="1"/>
        <pt x="1440" y="112" on="1"/>
        <pt x="1189" y="-35" on="0"/>
        <pt x="872" y="-35" on="1"/>
        <pt x="696" y="-35" on="0"/>
        <pt x="414" y="58" on="0"/>
        <pt x="218" y="237" on="0"/>
        <pt x="113" y="495" on="0"/>
        <pt x="113" y="660" on="1"/>
        <pt x="113" y="843" on="0"/>
        <pt x="219" y="1124" on="0"/>
        <pt x="420" y="1314" on="0"/>
        <pt x="710" y="1412" on="0"/>
        <pt x="894" y="1412" on="1"/>
        <pt x="963" y="1412" on="0"/>
        <pt x="1102" y="1396" on="0"/>
        <pt x="1237" y="1363" on="0"/>
        <pt x="1363" y="1313" on="0"/>
        <pt x="1419" y="1279" on="1"/>
        <pt x="1396" y="1002" on="1"/>
        <pt x="1067" y="1002" on="1"/>
        <pt x="1040" y="1071" on="1"/>
        <pt x="1030" y="1096" on="0"/>
        <pt x="1005" y="1155" on="0"/>
        <pt x="969" y="1205" on="0"/>
        <pt x="921" y="1238" on="0"/>
        <pt x="890" y="1238" on="1"/>
        <pt x="735" y="1238" on="0"/>
        <pt x="566" y="968" on="0"/>
        <pt x="566" y="701" on="1"/>
        <pt x="566" y="439" on="0"/>
        <pt x="731" y="158" on="0"/>
      </contour>
    </TTGlyph>
    <TTGlyph name="Ccedilla" xMin="113" yMin="-498" xMax="1440" yMax="1412">
      <component glyphName="C" x="0" y="0" flags="0x1204"/>
      <component glyphName="cedilla" x="435" y="0" flags="0x1004"/>
    </TTGlyph>
    <TTGlyph name="D" xMin="57" yMin="0" xMax="1598" yMax="1387">
      <contour>
        <pt x="820" y="1387" on="1"/>
        <pt x="1011" y="1387" on="0"/>
        <pt x="1302" y="1304" on="0"/>
        <pt x="1498" y="1132" on="0"/>
        <pt x="1598" y="866" on="0"/>
        <pt x="1598" y="682" on="1"/>
        <pt x="1598" y="500" on="0"/>
        <pt x="1482" y="242" on="0"/>
        <pt x="1270" y="77" on="0"/>
        <pt x="974" y="0" on="0"/>
        <pt x="793" y="0" on="1"/>
        <pt x="65" y="0" on="1"/>
        <pt x="65" y="151" on="1"/>
        <pt x="255" y="151" on="1"/>
        <pt x="255" y="151" on="0"/>
        <pt x="257" y="172" on="0"/>
        <pt x="259" y="207" on="0"/>
        <pt x="261" y="253" on="0"/>
        <pt x="261" y="278" on="1"/>
        <pt x="261" y="1093" on="1"/>
        <pt x="261" y="1161" on="0"/>
        <pt x="252" y="1206" on="1"/>
        <pt x="57" y="1206" on="1"/>
        <pt x="57" y="1366" on="1"/>
        <pt x="396" y="1387" on="0"/>
      </contour>
      <contour>
        <pt x="1147" y="689" on="1"/>
        <pt x="1147" y="808" on="0"/>
        <pt x="1118" y="1001" on="0"/>
        <pt x="1038" y="1137" on="0"/>
        <pt x="897" y="1211" on="0"/>
        <pt x="785" y="1211" on="1"/>
        <pt x="781" y="1211" on="0"/>
        <pt x="770" y="1211" on="0"/>
        <pt x="749" y="1210" on="0"/>
        <pt x="716" y="1210" on="0"/>
        <pt x="690" y="1210" on="1"/>
        <pt x="690" y="171" on="1"/>
        <pt x="699" y="170" on="0"/>
        <pt x="716" y="170" on="0"/>
        <pt x="724" y="170" on="1"/>
        <pt x="848" y="170" on="0"/>
        <pt x="1011" y="242" on="0"/>
        <pt x="1108" y="377" on="0"/>
        <pt x="1147" y="569" on="0"/>
      </contour>
    </TTGlyph>
    <TTGlyph name="Delta" xMin="100" yMin="0" xMax="1277" yMax="1407">
      <contour>
        <pt x="100" y="0" on="1"/>
        <pt x="100" y="73" on="1"/>
        <pt x="629" y="1382" on="1"/>
        <pt x="734" y="1407" on="1"/>
        <pt x="1277" y="73" on="1"/>
        <pt x="1277" y="0" on="1"/>
      </contour>
      <contour>
        <pt x="633" y="1091" on="1"/>
        <pt x="254" y="131" on="1"/>
        <pt x="1015" y="131" on="1"/>
      </contour>
    </TTGlyph>
    <TTGlyph name="E" xMin="57" yMin="-1" xMax="1398" yMax="1388">
      <contour>
        <pt x="57" y="1363" on="1"/>
        <pt x="427" y="1387" on="0"/>
        <pt x="741" y="1387" on="1"/>
        <pt x="867" y="1387" on="0"/>
        <pt x="1048" y="1387" on="0"/>
        <pt x="1173" y="1387" on="0"/>
        <pt x="1252" y="1387" on="0"/>
        <pt x="1300" y="1387" on="0"/>
        <pt x="1326" y="1388" on="0"/>
        <pt x="1336" y="1388" on="1"/>
        <pt x="1391" y="1066" on="1"/>
        <pt x="1168" y="1038" on="1"/>
        <pt x="1163" y="1078" on="0"/>
        <pt x="1143" y="1151" on="0"/>
        <pt x="1127" y="1185" on="1"/>
        <pt x="1001" y="1203" on="0"/>
        <pt x="915" y="1203" on="1"/>
        <pt x="698" y="1203" on="1"/>
        <pt x="698" y="777" on="1"/>
        <pt x="871" y="777" on="1"/>
        <pt x="890" y="777" on="0"/>
        <pt x="913" y="805" on="0"/>
        <pt x="926" y="846" on="0"/>
        <pt x="934" y="892" on="0"/>
        <pt x="939" y="911" on="1"/>
        <pt x="1090" y="911" on="1"/>
        <pt x="1090" y="476" on="1"/>
        <pt x="1076" y="475" on="0"/>
        <pt x="1048" y="475" on="0"/>
        <pt x="1034" y="475" on="1"/>
        <pt x="939" y="475" on="1"/>
        <pt x="930" y="518" on="0"/>
        <pt x="915" y="574" on="0"/>
        <pt x="899" y="607" on="0"/>
        <pt x="882" y="619" on="0"/>
        <pt x="871" y="619" on="1"/>
        <pt x="698" y="619" on="1"/>
        <pt x="698" y="167" on="1"/>
        <pt x="978" y="167" on="1"/>
        <pt x="1060" y="167" on="0"/>
        <pt x="1099" y="180" on="1"/>
        <pt x="1106" y="200" on="0"/>
        <pt x="1121" y="289" on="0"/>
        <pt x="1131" y="361" on="1"/>
        <pt x="1195" y="359" on="0"/>
        <pt x="1323" y="359" on="0"/>
        <pt x="1398" y="359" on="1"/>
        <pt x="1396" y="271" on="0"/>
        <pt x="1390" y="99" on="0"/>
        <pt x="1385" y="14" on="1"/>
        <pt x="1149" y="-1" on="0"/>
        <pt x="981" y="-1" on="1"/>
        <pt x="857" y="-1" on="0"/>
        <pt x="654" y="-1" on="0"/>
        <pt x="485" y="-1" on="0"/>
        <pt x="344" y="-1" on="0"/>
        <pt x="221" y="0" on="0"/>
        <pt x="111" y="1" on="0"/>
        <pt x="57" y="1" on="1"/>
        <pt x="57" y="167" on="1"/>
        <pt x="264" y="167" on="1"/>
        <pt x="266" y="184" on="0"/>
        <pt x="269" y="222" on="0"/>
        <pt x="269" y="245" on="1"/>
        <pt x="269" y="1111" on="1"/>
        <pt x="269" y="1140" on="0"/>
        <pt x="266" y="1186" on="0"/>
        <pt x="264" y="1203" on="1"/>
        <pt x="57" y="1203" on="1"/>
      </contour>
    </TTGlyph>
    <TTGlyph name="Eacute" xMin="57" yMin="-1" xMax="1398" yMax="1903">
      <component glyphName="acute" x="364" y="421" flags="0x1004"/>
      <component glyphName="E" x="0" y="0" flags="0x1204"/>
    </TTGlyph>
    <TTGlyph name="Ecircumflex" xMin="57" yMin="-1" xMax="1398" yMax="1883">
      <component glyphName="circumflex" x="262" y="388" flags="0x1004"/>
      <component glyphName="E" x="0" y="0" flags="0x1204"/>
    </TTGlyph>
    <TTGlyph name="Edieresis" xMin="57" yMin="-1" xMax="1398" yMax="1846">
      <component glyphName="dieresis" x="101" y="434" flags="0x1004"/>
      <component glyphName="E" x="0" y="0" flags="0x1204"/>
    </TTGlyph>
    <TTGlyph name="Egrave" xMin="57" yMin="-1" xMax="1398" yMax="1904">
      <component glyphName="grave" x="126" y="422" flags="0x1004"/>
      <component glyphName="E" x="0" y="0" flags="0x1204"/>
    </TTGlyph>
    <TTGlyph name="Eth" xMin="57" yMin="0" xMax="1598" yMax="1387">
      <contour>
        <pt x="934" y="787" on="1"/>
        <pt x="934" y="708" on="1"/>
        <pt x="934" y="695" on="0"/>
        <pt x="922" y="665" on="0"/>
        <pt x="895" y="639" on="0"/>
        <pt x="848" y="622" on="0"/>
        <pt x="814" y="622" on="1"/>
        <pt x="58" y="622" on="1"/>
        <pt x="58" y="701" on="1"/>
        <pt x="58" y="727" on="0"/>
        <pt x="77" y="761" on="0"/>
        <pt x="109" y="780" on="0"/>
        <pt x="150" y="787" on="0"/>
        <pt x="173" y="787" on="1"/>
      </contour>
      <contour>
        <pt x="820" y="1387" on="1"/>
        <pt x="1011" y="1387" on="0"/>
        <pt x="1302" y="1304" on="0"/>
        <pt x="1498" y="1132" on="0"/>
        <pt x="1598" y="866" on="0"/>
        <pt x="1598" y="682" on="1"/>
        <pt x="1598" y="500" on="0"/>
        <pt x="1482" y="242" on="0"/>
        <pt x="1270" y="77" on="0"/>
        <pt x="974" y="0" on="0"/>
        <pt x="793" y="0" on="1"/>
        <pt x="65" y="0" on="1"/>
        <pt x="65" y="151" on="1"/>
        <pt x="255" y="151" on="1"/>
        <pt x="255" y="151" on="0"/>
        <pt x="257" y="172" on="0"/>
        <pt x="259" y="207" on="0"/>
        <pt x="261" y="253" on="0"/>
        <pt x="261" y="278" on="1"/>
        <pt x="261" y="1093" on="1"/>
        <pt x="261" y="1161" on="0"/>
        <pt x="252" y="1206" on="1"/>
        <pt x="57" y="1206" on="1"/>
        <pt x="57" y="1366" on="1"/>
        <pt x="396" y="1387" on="0"/>
      </contour>
      <contour>
        <pt x="1147" y="689" on="1"/>
        <pt x="1147" y="808" on="0"/>
        <pt x="1118" y="1001" on="0"/>
        <pt x="1038" y="1137" on="0"/>
        <pt x="897" y="1211" on="0"/>
        <pt x="785" y="1211" on="1"/>
        <pt x="781" y="1211" on="0"/>
        <pt x="770" y="1211" on="0"/>
        <pt x="749" y="1210" on="0"/>
        <pt x="716" y="1210" on="0"/>
        <pt x="690" y="1210" on="1"/>
        <pt x="690" y="171" on="1"/>
        <pt x="699" y="170" on="0"/>
        <pt x="716" y="170" on="0"/>
        <pt x="724" y="170" on="1"/>
        <pt x="848" y="170" on="0"/>
        <pt x="1011" y="242" on="0"/>
        <pt x="1108" y="377" on="0"/>
        <pt x="1147" y="569" on="0"/>
      </contour>
    </TTGlyph>
    <TTGlyph name="Euro" xMin="55" yMin="-35" xMax="1558" yMax="1412">
      <contour>
        <pt x="1016" y="158" on="1"/>
        <pt x="1096" y="158" on="0"/>
        <pt x="1234" y="182" on="0"/>
        <pt x="1358" y="224" on="0"/>
        <pt x="1474" y="278" on="0"/>
        <pt x="1533" y="308" on="1"/>
        <pt x="1558" y="112" on="1"/>
        <pt x="1307" y="-35" on="0"/>
        <pt x="990" y="-35" on="1"/>
        <pt x="848" y="-35" on="0"/>
        <pt x="612" y="32" on="0"/>
        <pt x="432" y="158" on="0"/>
        <pt x="311" y="341" on="0"/>
        <pt x="284" y="458" on="1"/>
        <pt x="55" y="458" on="1"/>
        <pt x="78" y="558" on="1"/>
        <pt x="83" y="580" on="0"/>
        <pt x="106" y="606" on="0"/>
        <pt x="143" y="620" on="0"/>
        <pt x="195" y="623" on="0"/>
        <pt x="230" y="623" on="1"/>
        <pt x="261" y="623" on="1"/>
        <pt x="261" y="682" on="1"/>
        <pt x="261" y="687" on="0"/>
        <pt x="261" y="699" on="0"/>
        <pt x="262" y="704" on="1"/>
        <pt x="77" y="704" on="1"/>
        <pt x="99" y="802" on="1"/>
        <pt x="105" y="827" on="0"/>
        <pt x="134" y="854" on="0"/>
        <pt x="175" y="867" on="0"/>
        <pt x="224" y="869" on="0"/>
        <pt x="250" y="869" on="1"/>
        <pt x="281" y="869" on="1"/>
        <pt x="307" y="999" on="0"/>
        <pt x="427" y="1202" on="0"/>
        <pt x="612" y="1340" on="0"/>
        <pt x="859" y="1412" on="0"/>
        <pt x="1012" y="1412" on="1"/>
        <pt x="1081" y="1412" on="0"/>
        <pt x="1220" y="1396" on="0"/>
        <pt x="1355" y="1363" on="0"/>
        <pt x="1481" y="1313" on="0"/>
        <pt x="1537" y="1279" on="1"/>
        <pt x="1514" y="1002" on="1"/>
        <pt x="1185" y="1002" on="1"/>
        <pt x="1158" y="1071" on="1"/>
        <pt x="1147" y="1099" on="0"/>
        <pt x="1119" y="1158" on="0"/>
        <pt x="1083" y="1207" on="0"/>
        <pt x="1037" y="1238" on="0"/>
        <pt x="1008" y="1238" on="1"/>
        <pt x="937" y="1238" on="0"/>
        <pt x="837" y="1174" on="0"/>
        <pt x="771" y="1070" on="0"/>
        <pt x="734" y="937" on="0"/>
        <pt x="725" y="869" on="1"/>
        <pt x="1189" y="869" on="1"/>
        <pt x="1164" y="771" on="1"/>
        <pt x="1146" y="704" on="0"/>
        <pt x="985" y="704" on="1"/>
        <pt x="714" y="704" on="1"/>
        <pt x="714" y="662" on="1"/>
        <pt x="714" y="652" on="0"/>
        <pt x="715" y="633" on="0"/>
        <pt x="716" y="623" on="1"/>
        <pt x="1138" y="623" on="1"/>
        <pt x="1119" y="557" on="1"/>
        <pt x="1110" y="527" on="0"/>
        <pt x="1092" y="489" on="0"/>
        <pt x="1054" y="467" on="0"/>
        <pt x="988" y="458" on="0"/>
        <pt x="931" y="458" on="1"/>
        <pt x="737" y="458" on="1"/>
        <pt x="768" y="308" on="0"/>
        <pt x="905" y="158" on="0"/>
      </contour>
    </TTGlyph>
    <TTGlyph name="F" xMin="57" yMin="-11" xMax="1358" yMax="1387">
      <contour>
        <pt x="57" y="1365" on="1"/>
        <pt x="224" y="1376" on="0"/>
        <pt x="514" y="1387" on="0"/>
        <pt x="646" y="1387" on="1"/>
        <pt x="662" y="1387" on="0"/>
        <pt x="701" y="1387" on="0"/>
        <pt x="764" y="1387" on="0"/>
        <pt x="857" y="1387" on="0"/>
        <pt x="997" y="1387" on="0"/>
        <pt x="1191" y="1386" on="0"/>
        <pt x="1323" y="1386" on="1"/>
        <pt x="1358" y="1046" on="1"/>
        <pt x="1135" y="1028" on="1"/>
        <pt x="1130" y="1053" on="0"/>
        <pt x="1113" y="1130" on="0"/>
        <pt x="1098" y="1193" on="1"/>
        <pt x="1063" y="1198" on="0"/>
        <pt x="1010" y="1203" on="0"/>
        <pt x="992" y="1203" on="1"/>
        <pt x="668" y="1203" on="1"/>
        <pt x="668" y="777" on="1"/>
        <pt x="869" y="777" on="1"/>
        <pt x="888" y="777" on="0"/>
        <pt x="911" y="805" on="0"/>
        <pt x="924" y="846" on="0"/>
        <pt x="932" y="892" on="0"/>
        <pt x="937" y="911" on="1"/>
        <pt x="1088" y="911" on="1"/>
        <pt x="1088" y="476" on="1"/>
        <pt x="1081" y="476" on="0"/>
        <pt x="1064" y="475" on="0"/>
        <pt x="1032" y="475" on="0"/>
        <pt x="980" y="475" on="0"/>
        <pt x="937" y="475" on="1"/>
        <pt x="928" y="518" on="0"/>
        <pt x="913" y="574" on="0"/>
        <pt x="897" y="607" on="0"/>
        <pt x="880" y="619" on="0"/>
        <pt x="869" y="619" on="1"/>
        <pt x="668" y="619" on="1"/>
        <pt x="668" y="259" on="1"/>
        <pt x="668" y="231" on="0"/>
        <pt x="671" y="186" on="0"/>
        <pt x="673" y="167" on="1"/>
        <pt x="831" y="167" on="1"/>
        <pt x="831" y="-11" on="1"/>
        <pt x="728" y="-6" on="0"/>
        <pt x="548" y="0" on="0"/>
        <pt x="467" y="0" on="1"/>
        <pt x="379" y="0" on="0"/>
        <pt x="175" y="-6" on="0"/>
        <pt x="57" y="-11" on="1"/>
        <pt x="57" y="167" on="1"/>
        <pt x="233" y="167" on="1"/>
        <pt x="239" y="194" on="0"/>
        <pt x="239" y="259" on="1"/>
        <pt x="239" y="1111" on="1"/>
        <pt x="239" y="1142" on="0"/>
        <pt x="236" y="1188" on="0"/>
        <pt x="234" y="1203" on="1"/>
        <pt x="57" y="1203" on="1"/>
      </contour>
    </TTGlyph>
    <TTGlyph name="G" xMin="113" yMin="-22" xMax="1480" yMax="1412">
      <contour>
        <pt x="898" y="177" on="1"/>
        <pt x="993" y="177" on="0"/>
        <pt x="1056" y="196" on="1"/>
        <pt x="1056" y="405" on="1"/>
        <pt x="1056" y="472" on="0"/>
        <pt x="1049" y="499" on="1"/>
        <pt x="836" y="499" on="1"/>
        <pt x="836" y="624" on="1"/>
        <pt x="986" y="643" on="0"/>
        <pt x="1282" y="661" on="0"/>
        <pt x="1436" y="661" on="1"/>
        <pt x="1480" y="661" on="1"/>
        <pt x="1480" y="136" on="1"/>
        <pt x="1232" y="-22" on="0"/>
        <pt x="896" y="-22" on="1"/>
        <pt x="717" y="-22" on="0"/>
        <pt x="428" y="68" on="0"/>
        <pt x="224" y="242" on="0"/>
        <pt x="113" y="497" on="0"/>
        <pt x="113" y="662" on="1"/>
        <pt x="113" y="855" on="0"/>
        <pt x="234" y="1138" on="0"/>
        <pt x="456" y="1322" on="0"/>
        <pt x="770" y="1412" on="0"/>
        <pt x="964" y="1412" on="1"/>
        <pt x="1031" y="1412" on="0"/>
        <pt x="1175" y="1393" on="0"/>
        <pt x="1308" y="1359" on="0"/>
        <pt x="1420" y="1312" on="0"/>
        <pt x="1455" y="1284" on="1"/>
        <pt x="1430" y="929" on="1"/>
        <pt x="1179" y="929" on="1"/>
        <pt x="1171" y="1001" on="0"/>
        <pt x="1129" y="1117" on="0"/>
        <pt x="1060" y="1198" on="0"/>
        <pt x="966" y="1242" on="0"/>
        <pt x="907" y="1242" on="1"/>
        <pt x="739" y="1242" on="0"/>
        <pt x="565" y="962" on="0"/>
        <pt x="565" y="682" on="1"/>
        <pt x="565" y="573" on="0"/>
        <pt x="606" y="388" on="0"/>
        <pt x="688" y="253" on="0"/>
        <pt x="814" y="177" on="0"/>
      </contour>
    </TTGlyph>
    <TTGlyph name="H" xMin="57" yMin="-11" xMax="1716" yMax="1399">
      <contour>
        <pt x="470" y="0" on="1"/>
        <pt x="382" y="0" on="0"/>
        <pt x="178" y="-6" on="0"/>
        <pt x="60" y="-11" on="1"/>
        <pt x="60" y="167" on="1"/>
        <pt x="236" y="167" on="1"/>
        <pt x="242" y="194" on="0"/>
        <pt x="242" y="259" on="1"/>
        <pt x="242" y="1123" on="1"/>
        <pt x="240" y="1154" on="0"/>
        <pt x="236" y="1200" on="0"/>
        <pt x="234" y="1215" on="1"/>
        <pt x="57" y="1215" on="1"/>
        <pt x="57" y="1377" on="1"/>
        <pt x="162" y="1388" on="0"/>
        <pt x="348" y="1399" on="0"/>
        <pt x="436" y="1399" on="1"/>
        <pt x="559" y="1399" on="0"/>
        <pt x="755" y="1391" on="0"/>
        <pt x="831" y="1383" on="1"/>
        <pt x="831" y="1215" on="1"/>
        <pt x="673" y="1215" on="1"/>
        <pt x="671" y="1199" on="0"/>
        <pt x="668" y="1161" on="0"/>
        <pt x="668" y="1139" on="1"/>
        <pt x="668" y="805" on="1"/>
        <pt x="1104" y="805" on="1"/>
        <pt x="1104" y="1123" on="1"/>
        <pt x="1096" y="1215" on="1"/>
        <pt x="939" y="1215" on="1"/>
        <pt x="939" y="1377" on="1"/>
        <pt x="1044" y="1388" on="0"/>
        <pt x="1230" y="1399" on="0"/>
        <pt x="1318" y="1399" on="1"/>
        <pt x="1441" y="1399" on="0"/>
        <pt x="1637" y="1391" on="0"/>
        <pt x="1713" y="1383" on="1"/>
        <pt x="1713" y="1215" on="1"/>
        <pt x="1535" y="1215" on="1"/>
        <pt x="1533" y="1198" on="0"/>
        <pt x="1530" y="1152" on="0"/>
        <pt x="1530" y="1123" on="1"/>
        <pt x="1530" y="259" on="1"/>
        <pt x="1532" y="232" on="0"/>
        <pt x="1536" y="186" on="0"/>
        <pt x="1538" y="167" on="1"/>
        <pt x="1716" y="167" on="1"/>
        <pt x="1716" y="-11" on="1"/>
        <pt x="1607" y="-6" on="0"/>
        <pt x="1417" y="0" on="0"/>
        <pt x="1332" y="0" on="1"/>
        <pt x="1247" y="0" on="0"/>
        <pt x="1054" y="-6" on="0"/>
        <pt x="942" y="-11" on="1"/>
        <pt x="942" y="167" on="1"/>
        <pt x="1098" y="167" on="1"/>
        <pt x="1104" y="194" on="0"/>
        <pt x="1104" y="259" on="1"/>
        <pt x="1104" y="623" on="1"/>
        <pt x="671" y="623" on="1"/>
        <pt x="671" y="259" on="1"/>
        <pt x="671" y="231" on="0"/>
        <pt x="674" y="186" on="0"/>
        <pt x="676" y="167" on="1"/>
        <pt x="834" y="167" on="1"/>
        <pt x="834" y="-11" on="1"/>
        <pt x="731" y="-6" on="0"/>
        <pt x="551" y="0" on="0"/>
      </contour>
    </TTGlyph>
    <TTGlyph name="I" xMin="57" yMin="-11" xMax="871" yMax="1399">
      <contour>
        <pt x="477" y="0" on="1"/>
        <pt x="386" y="0" on="0"/>
        <pt x="178" y="-6" on="0"/>
        <pt x="57" y="-11" on="1"/>
        <pt x="57" y="167" on="1"/>
        <pt x="243" y="167" on="1"/>
        <pt x="249" y="194" on="0"/>
        <pt x="249" y="259" on="1"/>
        <pt x="249" y="1123" on="1"/>
        <pt x="249" y="1154" on="0"/>
        <pt x="246" y="1200" on="0"/>
        <pt x="244" y="1215" on="1"/>
        <pt x="57" y="1215" on="1"/>
        <pt x="57" y="1377" on="1"/>
        <pt x="166" y="1388" on="0"/>
        <pt x="358" y="1399" on="0"/>
        <pt x="446" y="1399" on="1"/>
        <pt x="578" y="1399" on="0"/>
        <pt x="787" y="1391" on="0"/>
        <pt x="871" y="1383" on="1"/>
        <pt x="871" y="1215" on="1"/>
        <pt x="683" y="1215" on="1"/>
        <pt x="681" y="1198" on="0"/>
        <pt x="678" y="1152" on="0"/>
        <pt x="678" y="1123" on="1"/>
        <pt x="678" y="259" on="1"/>
        <pt x="678" y="231" on="0"/>
        <pt x="681" y="186" on="0"/>
        <pt x="683" y="167" on="1"/>
        <pt x="871" y="167" on="1"/>
        <pt x="871" y="-11" on="1"/>
        <pt x="759" y="-6" on="0"/>
        <pt x="562" y="0" on="0"/>
      </contour>
    </TTGlyph>
    <TTGlyph name="IJ" xMin="102" yMin="-276" xMax="1828" yMax="1400">
      <component glyphName="I" x="45" y="0" flags="0x1004"/>
      <component glyphName="J" x="809" y="0" flags="0x1004"/>
    </TTGlyph>
    <TTGlyph name="Iacute" xMin="57" yMin="-11" xMax="874" yMax="1903">
      <component glyphName="acute" x="-2" y="421" flags="0x1004"/>
      <component glyphName="I" x="0" y="0" flags="0x1204"/>
    </TTGlyph>
    <TTGlyph name="Icircumflex" xMin="57" yMin="-11" xMax="871" yMax="1883">
      <component glyphName="circumflex" x="-143" y="388" flags="0x1004"/>
      <component glyphName="I" x="0" y="0" flags="0x1204"/>
    </TTGlyph>
    <TTGlyph name="Idieresis" xMin="33" yMin="-11" xMax="871" yMax="1846">
      <component glyphName="dieresis" x="-224" y="434" flags="0x1004"/>
      <component glyphName="I" x="0" y="0" flags="0x1204"/>
    </TTGlyph>
    <TTGlyph name="Igrave" xMin="42" yMin="-11" xMax="871" yMax="1904">
      <component glyphName="grave" x="-290" y="422" flags="0x1004"/>
      <component glyphName="I" x="0" y="0" flags="0x1204"/>
    </TTGlyph>
    <TTGlyph name="Itilde" xMin="48" yMin="-11" xMax="871" yMax="1817">
      <component glyphName="tilde" x="-111" y="312" flags="0x1004"/>
      <component glyphName="I" x="0" y="0" flags="0x1204"/>
    </TTGlyph>
    <TTGlyph name="J" xMin="20" yMin="-276" xMax="1019" yMax="1400">
      <contour>
        <pt x="831" y="1216" on="1"/>
        <pt x="829" y="1202" on="0"/>
        <pt x="827" y="1156" on="0"/>
        <pt x="827" y="1124" on="1"/>
        <pt x="827" y="216" on="1"/>
        <pt x="827" y="-22" on="0"/>
        <pt x="583" y="-276" on="0"/>
        <pt x="351" y="-276" on="1"/>
        <pt x="148" y="-276" on="0"/>
        <pt x="20" y="-221" on="1"/>
        <pt x="20" y="-202" on="0"/>
        <pt x="27" y="-108" on="0"/>
        <pt x="34" y="-30" on="1"/>
        <pt x="48" y="143" on="1"/>
        <pt x="292" y="143" on="1"/>
        <pt x="306" y="-93" on="1"/>
        <pt x="333" y="-105" on="0"/>
        <pt x="357" y="-105" on="1"/>
        <pt x="461" y="-105" on="0"/>
        <pt x="461" y="2" on="1"/>
        <pt x="461" y="33" on="0"/>
        <pt x="449" y="106" on="0"/>
        <pt x="442" y="130" on="1"/>
        <pt x="407" y="250" on="1"/>
        <pt x="397" y="284" on="0"/>
        <pt x="397" y="312" on="1"/>
        <pt x="397" y="1124" on="1"/>
        <pt x="397" y="1155" on="0"/>
        <pt x="394" y="1201" on="0"/>
        <pt x="392" y="1216" on="1"/>
        <pt x="205" y="1216" on="1"/>
        <pt x="205" y="1378" on="1"/>
        <pt x="314" y="1389" on="0"/>
        <pt x="506" y="1400" on="0"/>
        <pt x="594" y="1400" on="1"/>
        <pt x="726" y="1400" on="0"/>
        <pt x="935" y="1392" on="0"/>
        <pt x="1019" y="1384" on="1"/>
        <pt x="1019" y="1216" on="1"/>
      </contour>
    </TTGlyph>
    <TTGlyph name="Jcircumflex" xMin="20" yMin="-276" xMax="1019" yMax="1883">
      <component glyphName="circumflex" x="5" y="388" flags="0x1004"/>
      <component glyphName="J" x="0" y="0" flags="0x1204"/>
    </TTGlyph>
    <TTGlyph name="K" xMin="57" yMin="-11" xMax="1809" yMax="1399">
      <contour>
        <pt x="1536" y="0" on="1"/>
        <pt x="1418" y="0" on="0"/>
        <pt x="1155" y="-6" on="0"/>
        <pt x="1005" y="-11" on="1"/>
        <pt x="995" y="167" on="1"/>
        <pt x="1072" y="167" on="1"/>
        <pt x="1067" y="178" on="0"/>
        <pt x="1061" y="196" on="0"/>
        <pt x="1052" y="216" on="0"/>
        <pt x="1039" y="241" on="0"/>
        <pt x="1027" y="259" on="1"/>
        <pt x="709" y="728" on="1"/>
        <pt x="1089" y="1123" on="1"/>
        <pt x="1123" y="1158" on="0"/>
        <pt x="1167" y="1204" on="0"/>
        <pt x="1175" y="1215" on="1"/>
        <pt x="988" y="1215" on="1"/>
        <pt x="979" y="1377" on="1"/>
        <pt x="1097" y="1388" on="0"/>
        <pt x="1302" y="1399" on="0"/>
        <pt x="1390" y="1399" on="1"/>
        <pt x="1519" y="1399" on="0"/>
        <pt x="1717" y="1391" on="0"/>
        <pt x="1789" y="1383" on="1"/>
        <pt x="1712" y="1215" on="1"/>
        <pt x="1524" y="1215" on="1"/>
        <pt x="1513" y="1205" on="0"/>
        <pt x="1465" y="1159" on="0"/>
        <pt x="1428" y="1123" on="1"/>
        <pt x="1132" y="832" on="1"/>
        <pt x="1566" y="259" on="1"/>
        <pt x="1571" y="252" on="0"/>
        <pt x="1584" y="237" on="0"/>
        <pt x="1603" y="216" on="0"/>
        <pt x="1631" y="187" on="0"/>
        <pt x="1652" y="167" on="1"/>
        <pt x="1760" y="167" on="1"/>
        <pt x="1809" y="-11" on="1"/>
        <pt x="1712" y="-6" on="0"/>
        <pt x="1578" y="0" on="0"/>
      </contour>
      <contour>
        <pt x="477" y="0" on="1"/>
        <pt x="386" y="0" on="0"/>
        <pt x="178" y="-6" on="0"/>
        <pt x="57" y="-11" on="1"/>
        <pt x="57" y="167" on="1"/>
        <pt x="243" y="167" on="1"/>
        <pt x="249" y="194" on="0"/>
        <pt x="249" y="259" on="1"/>
        <pt x="249" y="1123" on="1"/>
        <pt x="249" y="1154" on="0"/>
        <pt x="246" y="1200" on="0"/>
        <pt x="244" y="1215" on="1"/>
        <pt x="57" y="1215" on="1"/>
        <pt x="57" y="1377" on="1"/>
        <pt x="166" y="1388" on="0"/>
        <pt x="358" y="1399" on="0"/>
        <pt x="446" y="1399" on="1"/>
        <pt x="578" y="1399" on="0"/>
        <pt x="787" y="1391" on="0"/>
        <pt x="871" y="1383" on="1"/>
        <pt x="871" y="1215" on="1"/>
        <pt x="683" y="1215" on="1"/>
        <pt x="681" y="1198" on="0"/>
        <pt x="678" y="1152" on="0"/>
        <pt x="678" y="1123" on="1"/>
        <pt x="678" y="259" on="1"/>
        <pt x="678" y="231" on="0"/>
        <pt x="681" y="186" on="0"/>
        <pt x="683" y="167" on="1"/>
        <pt x="871" y="167" on="1"/>
        <pt x="871" y="-11" on="1"/>
        <pt x="759" y="-6" on="0"/>
        <pt x="562" y="0" on="0"/>
      </contour>
    </TTGlyph>
    <TTGlyph name="L" xMin="57" yMin="-12" xMax="1331" yMax="1399">
      <contour>
        <pt x="685" y="1215" on="1"/>
        <pt x="678" y="1186" on="0"/>
        <pt x="678" y="1129" on="1"/>
        <pt x="678" y="167" on="1"/>
        <pt x="907" y="167" on="1"/>
        <pt x="943" y="167" on="0"/>
        <pt x="990" y="194" on="0"/>
        <pt x="1021" y="235" on="0"/>
        <pt x="1038" y="282" on="0"/>
        <pt x="1044" y="303" on="1"/>
        <pt x="1054" y="338" on="0"/>
        <pt x="1080" y="417" on="0"/>
        <pt x="1096" y="471" on="1"/>
        <pt x="1331" y="439" on="1"/>
        <pt x="1289" y="0" on="1"/>
        <pt x="868" y="0" on="1"/>
        <pt x="566" y="0" on="0"/>
        <pt x="192" y="-4" on="0"/>
        <pt x="123" y="-12" on="1"/>
        <pt x="123" y="167" on="1"/>
        <pt x="245" y="167" on="1"/>
        <pt x="247" y="212" on="0"/>
        <pt x="249" y="291" on="0"/>
        <pt x="249" y="326" on="1"/>
        <pt x="249" y="1129" on="1"/>
        <pt x="249" y="1156" on="0"/>
        <pt x="246" y="1199" on="0"/>
        <pt x="244" y="1215" on="1"/>
        <pt x="57" y="1215" on="1"/>
        <pt x="57" y="1377" on="1"/>
        <pt x="166" y="1388" on="0"/>
        <pt x="358" y="1399" on="0"/>
        <pt x="446" y="1399" on="1"/>
        <pt x="578" y="1399" on="0"/>
        <pt x="788" y="1391" on="0"/>
        <pt x="872" y="1383" on="1"/>
        <pt x="872" y="1215" on="1"/>
      </contour>
    </TTGlyph>
    <TTGlyph name="Ldot" xMin="57" yMin="-12" xMax="1331" yMax="1399">
      <component glyphName="L" x="0" y="0" flags="0x1204"/>
      <component glyphName="dotaccent" x="677" y="-524" flags="0x1004"/>
    </TTGlyph>
    <TTGlyph name="Ldotaccent" xMin="57" yMin="-12" xMax="1331" yMax="1399">
      <component glyphName="L" x="0" y="0" flags="0x1204"/>
      <component glyphName="dotaccent" x="677" y="-524" flags="0x1004"/>
    </TTGlyph>
    <TTGlyph name="Lslash" xMin="57" yMin="-12" xMax="1331" yMax="1399">
      <contour>
        <pt x="1062" y="1084" on="1"/>
        <pt x="1062" y="860" on="1"/>
        <pt x="95" y="378" on="1"/>
        <pt x="95" y="601" on="1"/>
      </contour>
      <contour>
        <pt x="685" y="1215" on="1"/>
        <pt x="678" y="1186" on="0"/>
        <pt x="678" y="1129" on="1"/>
        <pt x="678" y="167" on="1"/>
        <pt x="907" y="167" on="1"/>
        <pt x="943" y="167" on="0"/>
        <pt x="990" y="194" on="0"/>
        <pt x="1021" y="235" on="0"/>
        <pt x="1038" y="282" on="0"/>
        <pt x="1044" y="303" on="1"/>
        <pt x="1054" y="338" on="0"/>
        <pt x="1080" y="417" on="0"/>
        <pt x="1096" y="471" on="1"/>
        <pt x="1331" y="439" on="1"/>
        <pt x="1289" y="0" on="1"/>
        <pt x="868" y="0" on="1"/>
        <pt x="566" y="0" on="0"/>
        <pt x="192" y="-4" on="0"/>
        <pt x="123" y="-12" on="1"/>
        <pt x="123" y="167" on="1"/>
        <pt x="245" y="167" on="1"/>
        <pt x="247" y="212" on="0"/>
        <pt x="249" y="291" on="0"/>
        <pt x="249" y="326" on="1"/>
        <pt x="249" y="1129" on="1"/>
        <pt x="249" y="1156" on="0"/>
        <pt x="246" y="1199" on="0"/>
        <pt x="244" y="1215" on="1"/>
        <pt x="57" y="1215" on="1"/>
        <pt x="57" y="1377" on="1"/>
        <pt x="166" y="1388" on="0"/>
        <pt x="358" y="1399" on="0"/>
        <pt x="446" y="1399" on="1"/>
        <pt x="578" y="1399" on="0"/>
        <pt x="788" y="1391" on="0"/>
        <pt x="872" y="1383" on="1"/>
        <pt x="872" y="1215" on="1"/>
      </contour>
    </TTGlyph>
    <TTGlyph name="M" xMin="57" yMin="-16" xMax="2181" yMax="1399">
      <contour>
        <pt x="1618" y="1399" on="1"/>
        <pt x="1721" y="1399" on="0"/>
        <pt x="1944" y="1390" on="0"/>
        <pt x="2065" y="1382" on="1"/>
        <pt x="2065" y="1215" on="1"/>
        <pt x="1872" y="1215" on="1"/>
        <pt x="1875" y="1178" on="0"/>
        <pt x="1886" y="1064" on="0"/>
        <pt x="1899" y="924" on="0"/>
        <pt x="1914" y="767" on="0"/>
        <pt x="1929" y="610" on="0"/>
        <pt x="1944" y="462" on="0"/>
        <pt x="1956" y="338" on="0"/>
        <pt x="1965" y="247" on="0"/>
        <pt x="1967" y="227" on="1"/>
        <pt x="1969" y="206" on="0"/>
        <pt x="1974" y="179" on="0"/>
        <pt x="1978" y="167" on="1"/>
        <pt x="2163" y="167" on="1"/>
        <pt x="2181" y="-16" on="1"/>
        <pt x="2090" y="-8" on="0"/>
        <pt x="1890" y="0" on="0"/>
        <pt x="1778" y="0" on="1"/>
        <pt x="1678" y="0" on="0"/>
        <pt x="1500" y="-6" on="0"/>
        <pt x="1415" y="-11" on="1"/>
        <pt x="1427" y="167" on="1"/>
        <pt x="1543" y="167" on="1"/>
        <pt x="1542" y="167" on="0"/>
        <pt x="1518" y="456" on="0"/>
        <pt x="1490" y="757" on="1"/>
        <pt x="1415" y="492" on="0"/>
        <pt x="1305" y="119" on="0"/>
        <pt x="1270" y="2" on="1"/>
        <pt x="901" y="2" on="1"/>
        <pt x="840" y="175" on="0"/>
        <pt x="707" y="549" on="0"/>
        <pt x="635" y="760" on="1"/>
        <pt x="623" y="649" on="0"/>
        <pt x="601" y="439" on="0"/>
        <pt x="592" y="354" on="1"/>
        <pt x="581" y="255" on="0"/>
        <pt x="573" y="167" on="1"/>
        <pt x="761" y="167" on="1"/>
        <pt x="743" y="-11" on="1"/>
        <pt x="643" y="-6" on="0"/>
        <pt x="488" y="0" on="0"/>
        <pt x="428" y="0" on="1"/>
        <pt x="341" y="0" on="0"/>
        <pt x="157" y="-8" on="0"/>
        <pt x="57" y="-16" on="1"/>
        <pt x="75" y="167" on="1"/>
        <pt x="260" y="167" on="1"/>
        <pt x="366" y="1151" on="1"/>
        <pt x="367" y="1156" on="0"/>
        <pt x="367" y="1167" on="0"/>
        <pt x="367" y="1172" on="1"/>
        <pt x="367" y="1186" on="0"/>
        <pt x="365" y="1207" on="0"/>
        <pt x="364" y="1215" on="1"/>
        <pt x="160" y="1215" on="1"/>
        <pt x="160" y="1382" on="1"/>
        <pt x="281" y="1390" on="0"/>
        <pt x="504" y="1399" on="0"/>
        <pt x="607" y="1399" on="1"/>
        <pt x="679" y="1399" on="0"/>
        <pt x="794" y="1387" on="0"/>
        <pt x="840" y="1376" on="1"/>
        <pt x="853" y="1336" on="0"/>
        <pt x="896" y="1208" on="0"/>
        <pt x="948" y="1054" on="0"/>
        <pt x="1004" y="890" on="0"/>
        <pt x="1056" y="738" on="0"/>
        <pt x="1099" y="613" on="0"/>
        <pt x="1111" y="577" on="1"/>
        <pt x="1281" y="1078" on="1"/>
        <pt x="1327" y="1213" on="0"/>
        <pt x="1378" y="1360" on="0"/>
        <pt x="1385" y="1376" on="1"/>
        <pt x="1477" y="1399" on="0"/>
      </contour>
    </TTGlyph>
    <TTGlyph name="N" xMin="57" yMin="-13" xMax="1697" yMax="1399">
      <contour>
        <pt x="432" y="0" on="1"/>
        <pt x="356" y="0" on="0"/>
        <pt x="169" y="-6" on="0"/>
        <pt x="57" y="-13" on="1"/>
        <pt x="57" y="167" on="1"/>
        <pt x="263" y="167" on="1"/>
        <pt x="269" y="192" on="0"/>
        <pt x="269" y="259" on="1"/>
        <pt x="269" y="1123" on="1"/>
        <pt x="269" y="1152" on="0"/>
        <pt x="266" y="1198" on="0"/>
        <pt x="264" y="1215" on="1"/>
        <pt x="57" y="1215" on="1"/>
        <pt x="57" y="1370" on="1"/>
        <pt x="157" y="1384" on="0"/>
        <pt x="362" y="1399" on="0"/>
        <pt x="471" y="1399" on="1"/>
        <pt x="522" y="1399" on="0"/>
        <pt x="627" y="1388" on="0"/>
        <pt x="684" y="1377" on="1"/>
        <pt x="790" y="1215" on="0"/>
        <pt x="1050" y="828" on="0"/>
        <pt x="1209" y="595" on="1"/>
        <pt x="1209" y="1123" on="1"/>
        <pt x="1209" y="1191" on="0"/>
        <pt x="1201" y="1217" on="1"/>
        <pt x="997" y="1217" on="1"/>
        <pt x="997" y="1381" on="1"/>
        <pt x="1112" y="1399" on="0"/>
        <pt x="1331" y="1399" on="1"/>
        <pt x="1430" y="1399" on="0"/>
        <pt x="1610" y="1393" on="0"/>
        <pt x="1697" y="1386" on="1"/>
        <pt x="1697" y="1217" on="1"/>
        <pt x="1515" y="1217" on="1"/>
        <pt x="1513" y="1203" on="0"/>
        <pt x="1510" y="1157" on="0"/>
        <pt x="1510" y="1125" on="1"/>
        <pt x="1510" y="0" on="1"/>
        <pt x="1277" y="0" on="1"/>
        <pt x="1239" y="0" on="0"/>
        <pt x="1153" y="6" on="0"/>
        <pt x="1102" y="11" on="1"/>
        <pt x="602" y="791" on="1"/>
        <pt x="602" y="262" on="1"/>
        <pt x="602" y="253" on="0"/>
        <pt x="604" y="224" on="0"/>
        <pt x="606" y="196" on="0"/>
        <pt x="608" y="171" on="0"/>
        <pt x="608" y="167" on="1"/>
        <pt x="806" y="167" on="1"/>
        <pt x="806" y="-13" on="1"/>
        <pt x="691" y="-6" on="0"/>
        <pt x="505" y="0" on="0"/>
      </contour>
    </TTGlyph>
    <TTGlyph name="Nacute" xMin="57" yMin="-13" xMax="1697" yMax="1903">
      <component glyphName="acute" x="454" y="421" flags="0x1004"/>
      <component glyphName="N" x="0" y="0" flags="0x1204"/>
    </TTGlyph>
    <TTGlyph name="Ntilde" xMin="57" yMin="-13" xMax="1697" yMax="1817">
      <component glyphName="tilde" x="344" y="312" flags="0x1004"/>
      <component glyphName="N" x="0" y="0" flags="0x1204"/>
    </TTGlyph>
    <TTGlyph name="O" xMin="113" yMin="-22" xMax="1574" yMax="1412">
      <contour>
        <pt x="565" y="686" on="1"/>
        <pt x="565" y="434" on="0"/>
        <pt x="704" y="167" on="0"/>
        <pt x="844" y="167" on="1"/>
        <pt x="977" y="167" on="0"/>
        <pt x="1123" y="424" on="0"/>
        <pt x="1123" y="689" on="1"/>
        <pt x="1123" y="955" on="0"/>
        <pt x="979" y="1223" on="0"/>
        <pt x="844" y="1223" on="1"/>
        <pt x="712" y="1223" on="0"/>
        <pt x="565" y="957" on="0"/>
      </contour>
      <contour>
        <pt x="1574" y="689" on="1"/>
        <pt x="1574" y="520" on="0"/>
        <pt x="1472" y="256" on="0"/>
        <pt x="1282" y="74" on="0"/>
        <pt x="1012" y="-22" on="0"/>
        <pt x="844" y="-22" on="1"/>
        <pt x="672" y="-22" on="0"/>
        <pt x="401" y="77" on="0"/>
        <pt x="213" y="261" on="0"/>
        <pt x="113" y="524" on="0"/>
        <pt x="113" y="689" on="1"/>
        <pt x="113" y="861" on="0"/>
        <pt x="214" y="1130" on="0"/>
        <pt x="403" y="1315" on="0"/>
        <pt x="674" y="1412" on="0"/>
        <pt x="844" y="1412" on="1"/>
        <pt x="1016" y="1412" on="0"/>
        <pt x="1287" y="1312" on="0"/>
        <pt x="1475" y="1125" on="0"/>
        <pt x="1574" y="857" on="0"/>
      </contour>
    </TTGlyph>
    <TTGlyph name="OE" xMin="113" yMin="-22" xMax="2252" yMax="1376">
      <contour>
        <pt x="1123" y="-12" on="1"/>
        <pt x="1038" y="-17" on="0"/>
        <pt x="899" y="-22" on="0"/>
        <pt x="844" y="-22" on="1"/>
        <pt x="675" y="-22" on="0"/>
        <pt x="404" y="73" on="0"/>
        <pt x="215" y="254" on="0"/>
        <pt x="113" y="514" on="0"/>
        <pt x="113" y="679" on="1"/>
        <pt x="113" y="846" on="0"/>
        <pt x="216" y="1106" on="0"/>
        <pt x="406" y="1284" on="0"/>
        <pt x="676" y="1376" on="0"/>
        <pt x="844" y="1376" on="1"/>
        <pt x="2190" y="1376" on="1"/>
        <pt x="2245" y="1054" on="1"/>
        <pt x="2022" y="1026" on="1"/>
        <pt x="2017" y="1066" on="0"/>
        <pt x="1997" y="1139" on="0"/>
        <pt x="1981" y="1173" on="1"/>
        <pt x="1855" y="1191" on="0"/>
        <pt x="1769" y="1191" on="1"/>
        <pt x="1552" y="1191" on="1"/>
        <pt x="1552" y="765" on="1"/>
        <pt x="1725" y="765" on="1"/>
        <pt x="1744" y="765" on="0"/>
        <pt x="1766" y="792" on="0"/>
        <pt x="1780" y="833" on="0"/>
        <pt x="1788" y="879" on="0"/>
        <pt x="1793" y="899" on="1"/>
        <pt x="1944" y="899" on="1"/>
        <pt x="1944" y="464" on="1"/>
        <pt x="1930" y="463" on="0"/>
        <pt x="1902" y="463" on="0"/>
        <pt x="1888" y="463" on="1"/>
        <pt x="1793" y="463" on="1"/>
        <pt x="1784" y="506" on="0"/>
        <pt x="1769" y="562" on="0"/>
        <pt x="1753" y="595" on="0"/>
        <pt x="1736" y="607" on="0"/>
        <pt x="1725" y="607" on="1"/>
        <pt x="1552" y="607" on="1"/>
        <pt x="1552" y="155" on="1"/>
        <pt x="1832" y="155" on="1"/>
        <pt x="1914" y="155" on="0"/>
        <pt x="1953" y="168" on="1"/>
        <pt x="1960" y="188" on="0"/>
        <pt x="1975" y="277" on="0"/>
        <pt x="1985" y="349" on="1"/>
        <pt x="2020" y="348" on="0"/>
        <pt x="2083" y="348" on="0"/>
        <pt x="2111" y="348" on="1"/>
        <pt x="2160" y="348" on="0"/>
        <pt x="2227" y="347" on="0"/>
        <pt x="2252" y="347" on="1"/>
        <pt x="2250" y="259" on="0"/>
        <pt x="2244" y="87" on="0"/>
        <pt x="2239" y="2" on="1"/>
        <pt x="2003" y="-13" on="0"/>
        <pt x="1835" y="-13" on="1"/>
        <pt x="1706" y="-13" on="0"/>
        <pt x="1514" y="-13" on="0"/>
        <pt x="1373" y="-13" on="0"/>
        <pt x="1274" y="-13" on="0"/>
        <pt x="1202" y="-13" on="0"/>
        <pt x="1148" y="-12" on="0"/>
      </contour>
      <contour>
        <pt x="565" y="676" on="1"/>
        <pt x="565" y="427" on="0"/>
        <pt x="703" y="167" on="0"/>
        <pt x="844" y="167" on="1"/>
        <pt x="1123" y="167" on="1"/>
        <pt x="1123" y="1187" on="1"/>
        <pt x="844" y="1187" on="1"/>
        <pt x="712" y="1187" on="0"/>
        <pt x="565" y="931" on="0"/>
      </contour>
    </TTGlyph>
    <TTGlyph name="Oacute" xMin="113" yMin="-22" xMax="1574" yMax="1903">
      <component glyphName="acute" x="396" y="421" flags="0x1004"/>
      <component glyphName="O" x="0" y="0" flags="0x1204"/>
    </TTGlyph>
    <TTGlyph name="Ocircumflex" xMin="113" yMin="-22" xMax="1574" yMax="1883">
      <component glyphName="circumflex" x="255" y="388" flags="0x1004"/>
      <component glyphName="O" x="0" y="0" flags="0x1204"/>
    </TTGlyph>
    <TTGlyph name="Odieresis" xMin="113" yMin="-22" xMax="1574" yMax="1846">
      <component glyphName="dieresis" x="174" y="434" flags="0x1004"/>
      <component glyphName="O" x="0" y="0" flags="0x1204"/>
    </TTGlyph>
    <TTGlyph name="Ograve" xMin="113" yMin="-22" xMax="1574" yMax="1904">
      <component glyphName="grave" x="108" y="422" flags="0x1004"/>
      <component glyphName="O" x="0" y="0" flags="0x1204"/>
    </TTGlyph>
    <TTGlyph name="Omega" xMin="90" yMin="0" xMax="1483" yMax="1405">
      <contour>
        <pt x="176" y="321" on="1"/>
        <pt x="180" y="311" on="1"/>
        <pt x="189" y="283" on="0"/>
        <pt x="209" y="233" on="0"/>
        <pt x="239" y="195" on="0"/>
        <pt x="284" y="173" on="0"/>
        <pt x="317" y="173" on="1"/>
        <pt x="478" y="173" on="1"/>
        <pt x="331" y="300" on="0"/>
        <pt x="175" y="588" on="0"/>
        <pt x="175" y="762" on="1"/>
        <pt x="175" y="908" on="0"/>
        <pt x="266" y="1146" on="0"/>
        <pt x="430" y="1314" on="0"/>
        <pt x="656" y="1405" on="0"/>
        <pt x="790" y="1405" on="1"/>
        <pt x="932" y="1405" on="0"/>
        <pt x="1158" y="1312" on="0"/>
        <pt x="1315" y="1146" on="0"/>
        <pt x="1398" y="916" on="0"/>
        <pt x="1398" y="780" on="1"/>
        <pt x="1398" y="702" on="0"/>
        <pt x="1362" y="557" on="0"/>
        <pt x="1286" y="410" on="0"/>
        <pt x="1164" y="257" on="0"/>
        <pt x="1079" y="173" on="1"/>
        <pt x="1256" y="173" on="1"/>
        <pt x="1287" y="173" on="0"/>
        <pt x="1328" y="188" on="0"/>
        <pt x="1357" y="223" on="0"/>
        <pt x="1381" y="281" on="0"/>
        <pt x="1395" y="323" on="1"/>
        <pt x="1483" y="323" on="1"/>
        <pt x="1426" y="0" on="1"/>
        <pt x="915" y="0" on="1"/>
        <pt x="893" y="60" on="1"/>
        <pt x="937" y="136" on="1"/>
        <pt x="984" y="217" on="0"/>
        <pt x="1066" y="369" on="0"/>
        <pt x="1126" y="520" on="0"/>
        <pt x="1161" y="673" on="0"/>
        <pt x="1161" y="754" on="1"/>
        <pt x="1161" y="886" on="0"/>
        <pt x="1109" y="1091" on="0"/>
        <pt x="1011" y="1232" on="0"/>
        <pt x="870" y="1306" on="0"/>
        <pt x="782" y="1306" on="1"/>
        <pt x="695" y="1306" on="0"/>
        <pt x="557" y="1237" on="0"/>
        <pt x="462" y="1098" on="0"/>
        <pt x="411" y="889" on="0"/>
        <pt x="411" y="749" on="1"/>
        <pt x="411" y="677" on="0"/>
        <pt x="435" y="539" on="0"/>
        <pt x="490" y="389" on="0"/>
        <pt x="579" y="216" on="0"/>
        <pt x="645" y="108" on="1"/>
        <pt x="675" y="60" on="1"/>
        <pt x="649" y="0" on="1"/>
        <pt x="143" y="0" on="1"/>
        <pt x="90" y="321" on="1"/>
      </contour>
    </TTGlyph>
    <TTGlyph name="Oslash" xMin="113" yMin="-91" xMax="1574" yMax="1482">
      <contour>
        <pt x="1242" y="1482" on="1"/>
        <pt x="618" y="-55" on="1"/>
        <pt x="603" y="-91" on="0"/>
        <pt x="543" y="-91" on="1"/>
        <pt x="469" y="-91" on="1"/>
        <pt x="1090" y="1437" on="1"/>
        <pt x="1098" y="1462" on="0"/>
        <pt x="1133" y="1482" on="0"/>
        <pt x="1167" y="1482" on="1"/>
      </contour>
      <contour>
        <pt x="565" y="686" on="1"/>
        <pt x="565" y="434" on="0"/>
        <pt x="704" y="167" on="0"/>
        <pt x="844" y="167" on="1"/>
        <pt x="977" y="167" on="0"/>
        <pt x="1123" y="424" on="0"/>
        <pt x="1123" y="689" on="1"/>
        <pt x="1123" y="955" on="0"/>
        <pt x="979" y="1223" on="0"/>
        <pt x="844" y="1223" on="1"/>
        <pt x="712" y="1223" on="0"/>
        <pt x="565" y="957" on="0"/>
      </contour>
      <contour>
        <pt x="1574" y="689" on="1"/>
        <pt x="1574" y="520" on="0"/>
        <pt x="1472" y="256" on="0"/>
        <pt x="1282" y="74" on="0"/>
        <pt x="1012" y="-22" on="0"/>
        <pt x="844" y="-22" on="1"/>
        <pt x="672" y="-22" on="0"/>
        <pt x="401" y="77" on="0"/>
        <pt x="213" y="261" on="0"/>
        <pt x="113" y="524" on="0"/>
        <pt x="113" y="689" on="1"/>
        <pt x="113" y="861" on="0"/>
        <pt x="214" y="1130" on="0"/>
        <pt x="403" y="1315" on="0"/>
        <pt x="674" y="1412" on="0"/>
        <pt x="844" y="1412" on="1"/>
        <pt x="1016" y="1412" on="0"/>
        <pt x="1287" y="1312" on="0"/>
        <pt x="1475" y="1125" on="0"/>
        <pt x="1574" y="857" on="0"/>
      </contour>
    </TTGlyph>
    <TTGlyph name="Otilde" xMin="113" yMin="-22" xMax="1574" yMax="1817">
      <component glyphName="tilde" x="287" y="312" flags="0x1004"/>
      <component glyphName="O" x="0" y="0" flags="0x1204"/>
    </TTGlyph>
    <TTGlyph name="P" xMin="57" yMin="-13" xMax="1383" yMax="1399">
      <contour>
        <pt x="754" y="1399" on="1"/>
        <pt x="889" y="1399" on="0"/>
        <pt x="1119" y="1363" on="0"/>
        <pt x="1288" y="1269" on="0"/>
        <pt x="1383" y="1103" on="0"/>
        <pt x="1383" y="974" on="1"/>
        <pt x="1383" y="772" on="0"/>
        <pt x="1082" y="549" on="0"/>
        <pt x="780" y="549" on="1"/>
        <pt x="702" y="549" on="1"/>
        <pt x="702" y="476" on="0"/>
        <pt x="702" y="376" on="0"/>
        <pt x="702" y="310" on="0"/>
        <pt x="701" y="274" on="0"/>
        <pt x="701" y="256" on="0"/>
        <pt x="701" y="251" on="0"/>
        <pt x="701" y="250" on="1"/>
        <pt x="701" y="240" on="0"/>
        <pt x="703" y="214" on="0"/>
        <pt x="705" y="190" on="0"/>
        <pt x="707" y="170" on="0"/>
        <pt x="707" y="167" on="1"/>
        <pt x="905" y="167" on="1"/>
        <pt x="905" y="-13" on="1"/>
        <pt x="773" y="-6" on="0"/>
        <pt x="564" y="0" on="0"/>
        <pt x="482" y="0" on="1"/>
        <pt x="397" y="0" on="0"/>
        <pt x="187" y="-6" on="0"/>
        <pt x="57" y="-13" on="1"/>
        <pt x="57" y="167" on="1"/>
        <pt x="263" y="167" on="1"/>
        <pt x="265" y="178" on="0"/>
        <pt x="270" y="224" on="0"/>
        <pt x="270" y="259" on="1"/>
        <pt x="270" y="1128" on="1"/>
        <pt x="270" y="1157" on="0"/>
        <pt x="267" y="1201" on="0"/>
        <pt x="265" y="1215" on="1"/>
        <pt x="60" y="1215" on="1"/>
        <pt x="60" y="1379" on="1"/>
        <pt x="210" y="1389" on="0"/>
        <pt x="553" y="1399" on="0"/>
      </contour>
      <contour>
        <pt x="947" y="967" on="1"/>
        <pt x="947" y="1032" on="0"/>
        <pt x="921" y="1126" on="0"/>
        <pt x="865" y="1186" on="0"/>
        <pt x="776" y="1215" on="0"/>
        <pt x="713" y="1215" on="1"/>
        <pt x="700" y="1215" on="1"/>
        <pt x="700" y="720" on="1"/>
        <pt x="723" y="720" on="1"/>
        <pt x="842" y="720" on="0"/>
        <pt x="947" y="843" on="0"/>
      </contour>
    </TTGlyph>
    <TTGlyph name="Q" xMin="113" yMin="-248" xMax="1633" yMax="1412">
      <contour>
        <pt x="1633" y="-155" on="1"/>
        <pt x="1369" y="-248" on="0"/>
        <pt x="1148" y="-248" on="1"/>
        <pt x="1055" y="-248" on="0"/>
        <pt x="900" y="-214" on="0"/>
        <pt x="767" y="-149" on="0"/>
        <pt x="654" y="-54" on="0"/>
        <pt x="603" y="7" on="1"/>
        <pt x="488" y="37" on="0"/>
        <pt x="306" y="156" on="0"/>
        <pt x="180" y="329" on="0"/>
        <pt x="113" y="554" on="0"/>
        <pt x="113" y="689" on="1"/>
        <pt x="113" y="861" on="0"/>
        <pt x="214" y="1130" on="0"/>
        <pt x="403" y="1315" on="0"/>
        <pt x="674" y="1412" on="0"/>
        <pt x="844" y="1412" on="1"/>
        <pt x="1016" y="1412" on="0"/>
        <pt x="1287" y="1312" on="0"/>
        <pt x="1475" y="1125" on="0"/>
        <pt x="1574" y="857" on="0"/>
        <pt x="1574" y="689" on="1"/>
        <pt x="1574" y="555" on="0"/>
        <pt x="1510" y="334" on="0"/>
        <pt x="1388" y="163" on="0"/>
        <pt x="1214" y="44" on="0"/>
        <pt x="1104" y="12" on="1"/>
        <pt x="1168" y="-39" on="0"/>
        <pt x="1260" y="-39" on="1"/>
        <pt x="1428" y="-39" on="0"/>
        <pt x="1585" y="4" on="1"/>
      </contour>
      <contour>
        <pt x="565" y="686" on="1"/>
        <pt x="565" y="434" on="0"/>
        <pt x="704" y="167" on="0"/>
        <pt x="844" y="167" on="1"/>
        <pt x="977" y="167" on="0"/>
        <pt x="1123" y="424" on="0"/>
        <pt x="1123" y="689" on="1"/>
        <pt x="1123" y="955" on="0"/>
        <pt x="979" y="1223" on="0"/>
        <pt x="844" y="1223" on="1"/>
        <pt x="712" y="1223" on="0"/>
        <pt x="565" y="957" on="0"/>
      </contour>
    </TTGlyph>
    <TTGlyph name="R" xMin="57" yMin="-20" xMax="1570" yMax="1399">
      <contour>
        <pt x="495" y="0" on="1"/>
        <pt x="410" y="0" on="0"/>
        <pt x="212" y="-6" on="0"/>
        <pt x="95" y="-11" on="1"/>
        <pt x="95" y="167" on="1"/>
        <pt x="261" y="167" on="1"/>
        <pt x="267" y="194" on="0"/>
        <pt x="267" y="259" on="1"/>
        <pt x="267" y="1127" on="1"/>
        <pt x="267" y="1157" on="0"/>
        <pt x="264" y="1201" on="0"/>
        <pt x="262" y="1215" on="1"/>
        <pt x="57" y="1215" on="1"/>
        <pt x="57" y="1382" on="1"/>
        <pt x="227" y="1390" on="0"/>
        <pt x="560" y="1399" on="0"/>
        <pt x="731" y="1399" on="1"/>
        <pt x="815" y="1399" on="0"/>
        <pt x="980" y="1388" on="0"/>
        <pt x="1128" y="1356" on="0"/>
        <pt x="1254" y="1299" on="0"/>
        <pt x="1345" y="1209" on="0"/>
        <pt x="1397" y="1079" on="0"/>
        <pt x="1397" y="991" on="1"/>
        <pt x="1397" y="882" on="0"/>
        <pt x="1234" y="708" on="0"/>
        <pt x="1071" y="651" on="1"/>
        <pt x="1154" y="614" on="0"/>
        <pt x="1260" y="528" on="0"/>
        <pt x="1330" y="419" on="0"/>
        <pt x="1377" y="281" on="0"/>
        <pt x="1402" y="193" on="1"/>
        <pt x="1570" y="193" on="1"/>
        <pt x="1570" y="-1" on="1"/>
        <pt x="1508" y="-6" on="0"/>
        <pt x="1383" y="-20" on="0"/>
        <pt x="1317" y="-20" on="1"/>
        <pt x="1231" y="-20" on="0"/>
        <pt x="1109" y="31" on="0"/>
        <pt x="1024" y="114" on="0"/>
        <pt x="968" y="220" on="0"/>
        <pt x="929" y="331" on="0"/>
        <pt x="899" y="438" on="0"/>
        <pt x="864" y="521" on="0"/>
        <pt x="819" y="572" on="0"/>
        <pt x="784" y="572" on="1"/>
        <pt x="699" y="572" on="1"/>
        <pt x="699" y="259" on="1"/>
        <pt x="699" y="231" on="0"/>
        <pt x="702" y="186" on="0"/>
        <pt x="704" y="167" on="1"/>
        <pt x="842" y="167" on="1"/>
        <pt x="842" y="-11" on="1"/>
        <pt x="745" y="-6" on="0"/>
        <pt x="573" y="0" on="0"/>
      </contour>
      <contour>
        <pt x="750" y="739" on="1"/>
        <pt x="961" y="739" on="0"/>
        <pt x="961" y="983" on="1"/>
        <pt x="961" y="1046" on="0"/>
        <pt x="935" y="1134" on="0"/>
        <pt x="879" y="1189" on="0"/>
        <pt x="791" y="1215" on="0"/>
        <pt x="728" y="1215" on="1"/>
        <pt x="699" y="1215" on="1"/>
        <pt x="699" y="739" on="1"/>
      </contour>
    </TTGlyph>
    <TTGlyph name="Racute" xMin="57" yMin="-20" xMax="1570" yMax="1903">
      <component glyphName="acute" x="284" y="421" flags="0x1004"/>
      <component glyphName="R" x="0" y="0" flags="0x1204"/>
    </TTGlyph>
    <TTGlyph name="Rcaron" xMin="57" yMin="-20" xMax="1570" yMax="1883">
      <component glyphName="caron" x="142" y="389" flags="0x1004"/>
      <component glyphName="R" x="0" y="0" flags="0x1204"/>
    </TTGlyph>
    <TTGlyph name="Rcommaaccent" xMin="57" yMin="-876" xMax="1570" yMax="1399">
      <component glyphName="uni0326" x="1034" y="-33" flags="0x1004"/>
      <component glyphName="R" x="0" y="0" flags="0x1204"/>
    </TTGlyph>
    <TTGlyph name="S" xMin="60" yMin="-22" xMax="1234" yMax="1412">
      <contour>
        <pt x="637" y="1240" on="1"/>
        <pt x="607" y="1240" on="0"/>
        <pt x="562" y="1214" on="0"/>
        <pt x="531" y="1168" on="0"/>
        <pt x="516" y="1105" on="0"/>
        <pt x="516" y="1069" on="1"/>
        <pt x="516" y="1022" on="0"/>
        <pt x="543" y="953" on="0"/>
        <pt x="599" y="899" on="0"/>
        <pt x="682" y="854" on="0"/>
        <pt x="738" y="831" on="1"/>
        <pt x="790" y="810" on="0"/>
        <pt x="904" y="762" on="0"/>
        <pt x="1015" y="704" on="0"/>
        <pt x="1114" y="636" on="0"/>
        <pt x="1190" y="554" on="0"/>
        <pt x="1234" y="456" on="0"/>
        <pt x="1234" y="398" on="1"/>
        <pt x="1234" y="305" on="0"/>
        <pt x="1153" y="150" on="0"/>
        <pt x="1001" y="39" on="0"/>
        <pt x="786" y="-22" on="0"/>
        <pt x="652" y="-22" on="1"/>
        <pt x="325" y="-22" on="0"/>
        <pt x="107" y="130" on="1"/>
        <pt x="81" y="148" on="0"/>
        <pt x="60" y="176" on="0"/>
        <pt x="60" y="195" on="1"/>
        <pt x="60" y="204" on="0"/>
        <pt x="64" y="226" on="0"/>
        <pt x="68" y="240" on="1"/>
        <pt x="156" y="466" on="1"/>
        <pt x="459" y="346" on="1"/>
        <pt x="505" y="240" on="0"/>
        <pt x="603" y="152" on="0"/>
        <pt x="661" y="152" on="1"/>
        <pt x="695" y="152" on="0"/>
        <pt x="747" y="183" on="0"/>
        <pt x="781" y="236" on="0"/>
        <pt x="799" y="304" on="0"/>
        <pt x="799" y="342" on="1"/>
        <pt x="799" y="403" on="0"/>
        <pt x="758" y="488" on="0"/>
        <pt x="682" y="551" on="0"/>
        <pt x="576" y="602" on="0"/>
        <pt x="511" y="630" on="1"/>
        <pt x="404" y="676" on="0"/>
        <pt x="245" y="766" on="0"/>
        <pt x="140" y="862" on="0"/>
        <pt x="87" y="969" on="0"/>
        <pt x="87" y="1032" on="1"/>
        <pt x="87" y="1119" on="0"/>
        <pt x="173" y="1259" on="0"/>
        <pt x="335" y="1358" on="0"/>
        <pt x="566" y="1412" on="0"/>
        <pt x="711" y="1412" on="1"/>
        <pt x="791" y="1412" on="0"/>
        <pt x="939" y="1396" on="0"/>
        <pt x="1061" y="1364" on="0"/>
        <pt x="1150" y="1316" on="0"/>
        <pt x="1172" y="1283" on="1"/>
        <pt x="1110" y="1010" on="1"/>
        <pt x="807" y="1082" on="1"/>
        <pt x="765" y="1154" on="0"/>
        <pt x="683" y="1240" on="0"/>
      </contour>
    </TTGlyph>
    <TTGlyph name="Scaron" xMin="60" yMin="-22" xMax="1234" yMax="1883">
      <component glyphName="caron" x="122" y="389" flags="0x1004"/>
      <component glyphName="S" x="0" y="0" flags="0x1204"/>
    </TTGlyph>
    <TTGlyph name="Scommaaccent" xMin="60" yMin="-877" xMax="1234" yMax="1412">
      <component glyphName="uni0326" x="370" y="-34" flags="0x1004"/>
      <component glyphName="S" x="0" y="0" flags="0x1004"/>
    </TTGlyph>
    <TTGlyph name="T" xMin="20" yMin="-11" xMax="1426" yMax="1388">
      <contour>
        <pt x="735" y="0" on="1"/>
        <pt x="644" y="0" on="0"/>
        <pt x="436" y="-6" on="0"/>
        <pt x="315" y="-11" on="1"/>
        <pt x="315" y="167" on="1"/>
        <pt x="501" y="167" on="1"/>
        <pt x="507" y="194" on="0"/>
        <pt x="507" y="259" on="1"/>
        <pt x="507" y="1203" on="1"/>
        <pt x="252" y="1203" on="1"/>
        <pt x="234" y="1071" on="0"/>
        <pt x="231" y="1011" on="1"/>
        <pt x="29" y="1011" on="1"/>
        <pt x="29" y="1034" on="0"/>
        <pt x="26" y="1134" on="0"/>
        <pt x="23" y="1246" on="0"/>
        <pt x="20" y="1346" on="0"/>
        <pt x="20" y="1369" on="1"/>
        <pt x="50" y="1380" on="0"/>
        <pt x="195" y="1388" on="0"/>
        <pt x="298" y="1388" on="1"/>
        <pt x="1148" y="1388" on="1"/>
        <pt x="1251" y="1388" on="0"/>
        <pt x="1396" y="1380" on="0"/>
        <pt x="1426" y="1369" on="1"/>
        <pt x="1426" y="1353" on="0"/>
        <pt x="1425" y="1297" on="0"/>
        <pt x="1423" y="1228" on="0"/>
        <pt x="1420" y="1152" on="0"/>
        <pt x="1418" y="1083" on="0"/>
        <pt x="1417" y="1027" on="0"/>
        <pt x="1417" y="1011" on="1"/>
        <pt x="1215" y="1011" on="1"/>
        <pt x="1215" y="1011" on="0"/>
        <pt x="1213" y="1029" on="0"/>
        <pt x="1210" y="1056" on="0"/>
        <pt x="1207" y="1091" on="0"/>
        <pt x="1205" y="1109" on="1"/>
        <pt x="1195" y="1205" on="1"/>
        <pt x="939" y="1205" on="1"/>
        <pt x="939" y="259" on="1"/>
        <pt x="939" y="231" on="0"/>
        <pt x="942" y="186" on="0"/>
        <pt x="944" y="167" on="1"/>
        <pt x="1132" y="167" on="1"/>
        <pt x="1132" y="-11" on="1"/>
        <pt x="1020" y="-6" on="0"/>
        <pt x="823" y="0" on="0"/>
      </contour>
    </TTGlyph>
    <TTGlyph name="Thorn" xMin="57" yMin="-16" xMax="1361" yMax="1399">
      <contour>
        <pt x="1361" y="718" on="1"/>
        <pt x="1361" y="291" on="0"/>
        <pt x="712" y="291" on="1"/>
        <pt x="707" y="291" on="0"/>
        <pt x="686" y="292" on="0"/>
        <pt x="680" y="293" on="1"/>
        <pt x="680" y="194" on="1"/>
        <pt x="680" y="176" on="0"/>
        <pt x="684" y="152" on="0"/>
        <pt x="686" y="147" on="1"/>
        <pt x="874" y="147" on="1"/>
        <pt x="874" y="10" on="1"/>
        <pt x="783" y="-3" on="0"/>
        <pt x="572" y="-16" on="0"/>
        <pt x="446" y="-16" on="1"/>
        <pt x="355" y="-16" on="0"/>
        <pt x="163" y="-1" on="0"/>
        <pt x="57" y="15" on="1"/>
        <pt x="57" y="147" on="1"/>
        <pt x="243" y="147" on="1"/>
        <pt x="249" y="174" on="0"/>
        <pt x="249" y="239" on="1"/>
        <pt x="249" y="1143" on="1"/>
        <pt x="249" y="1172" on="0"/>
        <pt x="246" y="1218" on="0"/>
        <pt x="244" y="1235" on="1"/>
        <pt x="57" y="1235" on="1"/>
        <pt x="57" y="1367" on="1"/>
        <pt x="175" y="1383" on="0"/>
        <pt x="379" y="1399" on="0"/>
        <pt x="476" y="1399" on="1"/>
        <pt x="593" y="1399" on="0"/>
        <pt x="792" y="1386" on="0"/>
        <pt x="874" y="1373" on="1"/>
        <pt x="874" y="1235" on="1"/>
        <pt x="687" y="1235" on="1"/>
        <pt x="684" y="1222" on="0"/>
        <pt x="681" y="1170" on="0"/>
        <pt x="681" y="1144" on="1"/>
        <pt x="756" y="1144" on="1"/>
        <pt x="883" y="1144" on="0"/>
        <pt x="1103" y="1105" on="0"/>
        <pt x="1265" y="1007" on="0"/>
        <pt x="1359" y="843" on="0"/>
      </contour>
      <contour>
        <pt x="924" y="717" on="1"/>
        <pt x="924" y="780" on="0"/>
        <pt x="902" y="875" on="0"/>
        <pt x="852" y="938" on="0"/>
        <pt x="772" y="970" on="0"/>
        <pt x="715" y="970" on="1"/>
        <pt x="679" y="970" on="1"/>
        <pt x="679" y="468" on="1"/>
        <pt x="684" y="467" on="0"/>
        <pt x="692" y="467" on="0"/>
        <pt x="697" y="467" on="1"/>
        <pt x="716" y="467" on="1"/>
        <pt x="827" y="467" on="0"/>
        <pt x="924" y="596" on="0"/>
      </contour>
    </TTGlyph>
    <TTGlyph name="U" xMin="33" yMin="-22" xMax="1684" yMax="1399">
      <contour>
        <pt x="1496" y="1215" on="1"/>
        <pt x="1494" y="1198" on="0"/>
        <pt x="1491" y="1152" on="0"/>
        <pt x="1491" y="1123" on="1"/>
        <pt x="1491" y="514" on="1"/>
        <pt x="1491" y="371" on="0"/>
        <pt x="1388" y="168" on="0"/>
        <pt x="1212" y="38" on="0"/>
        <pt x="979" y="-22" on="0"/>
        <pt x="850" y="-22" on="1"/>
        <pt x="537" y="-22" on="0"/>
        <pt x="225" y="273" on="0"/>
        <pt x="225" y="578" on="1"/>
        <pt x="225" y="1123" on="1"/>
        <pt x="225" y="1154" on="0"/>
        <pt x="222" y="1200" on="0"/>
        <pt x="220" y="1215" on="1"/>
        <pt x="33" y="1215" on="1"/>
        <pt x="33" y="1387" on="1"/>
        <pt x="262" y="1399" on="0"/>
        <pt x="446" y="1399" on="1"/>
        <pt x="525" y="1399" on="0"/>
        <pt x="641" y="1397" on="0"/>
        <pt x="728" y="1394" on="0"/>
        <pt x="792" y="1390" on="0"/>
        <pt x="820" y="1387" on="1"/>
        <pt x="820" y="1215" on="1"/>
        <pt x="662" y="1215" on="1"/>
        <pt x="658" y="1190" on="0"/>
        <pt x="655" y="1145" on="0"/>
        <pt x="655" y="1123" on="1"/>
        <pt x="655" y="510" on="1"/>
        <pt x="655" y="432" on="0"/>
        <pt x="684" y="305" on="0"/>
        <pt x="740" y="215" on="0"/>
        <pt x="824" y="167" on="0"/>
        <pt x="878" y="167" on="1"/>
        <pt x="947" y="167" on="0"/>
        <pt x="1035" y="232" on="0"/>
        <pt x="1086" y="343" on="0"/>
        <pt x="1105" y="492" on="0"/>
        <pt x="1105" y="577" on="1"/>
        <pt x="1105" y="1123" on="1"/>
        <pt x="1105" y="1154" on="0"/>
        <pt x="1102" y="1200" on="0"/>
        <pt x="1100" y="1215" on="1"/>
        <pt x="953" y="1215" on="1"/>
        <pt x="953" y="1387" on="1"/>
        <pt x="1124" y="1399" on="0"/>
        <pt x="1318" y="1399" on="1"/>
        <pt x="1391" y="1399" on="0"/>
        <pt x="1502" y="1397" on="0"/>
        <pt x="1588" y="1394" on="0"/>
        <pt x="1655" y="1390" on="0"/>
        <pt x="1684" y="1387" on="1"/>
        <pt x="1684" y="1215" on="1"/>
      </contour>
    </TTGlyph>
    <TTGlyph name="Uacute" xMin="33" yMin="-22" xMax="1684" yMax="1903">
      <component glyphName="acute" x="434" y="421" flags="0x1004"/>
      <component glyphName="U" x="0" y="0" flags="0x1204"/>
    </TTGlyph>
    <TTGlyph name="Ucircumflex" xMin="33" yMin="-22" xMax="1684" yMax="1883">
      <component glyphName="circumflex" x="293" y="388" flags="0x1004"/>
      <component glyphName="U" x="0" y="0" flags="0x1204"/>
    </TTGlyph>
    <TTGlyph name="Udieresis" xMin="33" yMin="-22" xMax="1684" yMax="1846">
      <component glyphName="dieresis" x="212" y="434" flags="0x1004"/>
      <component glyphName="U" x="0" y="0" flags="0x1204"/>
    </TTGlyph>
    <TTGlyph name="Ugrave" xMin="33" yMin="-22" xMax="1684" yMax="1904">
      <component glyphName="grave" x="146" y="422" flags="0x1004"/>
      <component glyphName="U" x="0" y="0" flags="0x1204"/>
    </TTGlyph>
    <TTGlyph name="V" xMin="0" yMin="-11" xMax="1746" yMax="1399">
      <contour>
        <pt x="0" y="1387" on="1"/>
        <pt x="46" y="1390" on="0"/>
        <pt x="137" y="1394" on="0"/>
        <pt x="241" y="1397" on="0"/>
        <pt x="361" y="1399" on="0"/>
        <pt x="435" y="1399" on="1"/>
        <pt x="605" y="1399" on="0"/>
        <pt x="736" y="1387" on="1"/>
        <pt x="781" y="1215" on="1"/>
        <pt x="653" y="1215" on="1"/>
        <pt x="664" y="1184" on="0"/>
        <pt x="680" y="1141" on="0"/>
        <pt x="685" y="1128" on="1"/>
        <pt x="923" y="452" on="1"/>
        <pt x="1129" y="1123" on="1"/>
        <pt x="1142" y="1164" on="0"/>
        <pt x="1153" y="1215" on="1"/>
        <pt x="1025" y="1215" on="1"/>
        <pt x="1070" y="1387" on="1"/>
        <pt x="1098" y="1390" on="0"/>
        <pt x="1159" y="1394" on="0"/>
        <pt x="1238" y="1397" on="0"/>
        <pt x="1339" y="1399" on="0"/>
        <pt x="1406" y="1399" on="1"/>
        <pt x="1560" y="1399" on="0"/>
        <pt x="1746" y="1387" on="1"/>
        <pt x="1722" y="1215" on="1"/>
        <pt x="1545" y="1215" on="1"/>
        <pt x="1540" y="1207" on="0"/>
        <pt x="1521" y="1161" on="0"/>
        <pt x="1509" y="1123" on="1"/>
        <pt x="1404" y="793" on="0"/>
        <pt x="1183" y="226" on="0"/>
        <pt x="1064" y="-11" on="1"/>
        <pt x="872" y="-11" on="1"/>
        <pt x="778" y="-11" on="0"/>
        <pt x="668" y="22" on="0"/>
        <pt x="649" y="74" on="1"/>
        <pt x="247" y="1123" on="1"/>
        <pt x="234" y="1156" on="0"/>
        <pt x="214" y="1198" on="0"/>
        <pt x="201" y="1215" on="1"/>
        <pt x="24" y="1215" on="1"/>
      </contour>
    </TTGlyph>
    <TTGlyph name="W" xMin="0" yMin="-11" xMax="2458" yMax="1399">
      <contour>
        <pt x="0" y="1387" on="1"/>
        <pt x="43" y="1390" on="0"/>
        <pt x="131" y="1394" on="0"/>
        <pt x="230" y="1397" on="0"/>
        <pt x="344" y="1399" on="0"/>
        <pt x="415" y="1399" on="1"/>
        <pt x="508" y="1399" on="0"/>
        <pt x="666" y="1393" on="0"/>
        <pt x="736" y="1387" on="1"/>
        <pt x="781" y="1215" on="1"/>
        <pt x="653" y="1215" on="1"/>
        <pt x="685" y="1128" on="1"/>
        <pt x="883" y="452" on="1"/>
        <pt x="1048" y="1111" on="1"/>
        <pt x="1056" y="1141" on="0"/>
        <pt x="1068" y="1216" on="0"/>
        <pt x="1071" y="1244" on="1"/>
        <pt x="1078" y="1317" on="1"/>
        <pt x="1080" y="1340" on="0"/>
        <pt x="1084" y="1375" on="0"/>
        <pt x="1086" y="1387" on="1"/>
        <pt x="1291" y="1387" on="1"/>
        <pt x="1327" y="1387" on="0"/>
        <pt x="1380" y="1364" on="0"/>
        <pt x="1420" y="1324" on="0"/>
        <pt x="1448" y="1268" on="0"/>
        <pt x="1458" y="1235" on="1"/>
        <pt x="1695" y="452" on="1"/>
        <pt x="1740" y="625" on="0"/>
        <pt x="1778" y="775" on="1"/>
        <pt x="1794" y="839" on="0"/>
        <pt x="1827" y="971" on="0"/>
        <pt x="1856" y="1089" on="0"/>
        <pt x="1879" y="1186" on="0"/>
        <pt x="1885" y="1215" on="1"/>
        <pt x="1737" y="1215" on="1"/>
        <pt x="1782" y="1387" on="1"/>
        <pt x="1810" y="1390" on="0"/>
        <pt x="1874" y="1394" on="0"/>
        <pt x="1955" y="1397" on="0"/>
        <pt x="2059" y="1399" on="0"/>
        <pt x="2128" y="1399" on="1"/>
        <pt x="2278" y="1399" on="0"/>
        <pt x="2458" y="1387" on="1"/>
        <pt x="2434" y="1215" on="1"/>
        <pt x="2255" y="1215" on="1"/>
        <pt x="2241" y="1169" on="1"/>
        <pt x="2198" y="1024" on="0"/>
        <pt x="2098" y="704" on="0"/>
        <pt x="1992" y="390" on="0"/>
        <pt x="1885" y="102" on="0"/>
        <pt x="1836" y="-11" on="1"/>
        <pt x="1554" y="-11" on="1"/>
        <pt x="1493" y="-11" on="0"/>
        <pt x="1431" y="26" on="0"/>
        <pt x="1421" y="74" on="1"/>
        <pt x="1215" y="696" on="1"/>
        <pt x="1161" y="472" on="0"/>
        <pt x="1066" y="124" on="0"/>
        <pt x="1024" y="-11" on="1"/>
        <pt x="752" y="-11" on="1"/>
        <pt x="688" y="-11" on="0"/>
        <pt x="620" y="26" on="0"/>
        <pt x="609" y="74" on="1"/>
        <pt x="247" y="1123" on="1"/>
        <pt x="236" y="1157" on="0"/>
        <pt x="217" y="1195" on="0"/>
        <pt x="213" y="1201" on="1"/>
        <pt x="201" y="1215" on="1"/>
        <pt x="24" y="1215" on="1"/>
      </contour>
    </TTGlyph>
    <TTGlyph name="X" xMin="20" yMin="-11" xMax="1716" yMax="1399">
      <contour>
        <pt x="1153" y="1187" on="1"/>
        <pt x="1153" y="1215" on="0"/>
        <pt x="1123" y="1215" on="1"/>
        <pt x="995" y="1215" on="1"/>
        <pt x="1040" y="1387" on="1"/>
        <pt x="1100" y="1393" on="0"/>
        <pt x="1249" y="1399" on="0"/>
        <pt x="1360" y="1399" on="1"/>
        <pt x="1411" y="1399" on="0"/>
        <pt x="1501" y="1397" on="0"/>
        <pt x="1585" y="1394" on="0"/>
        <pt x="1665" y="1390" on="0"/>
        <pt x="1706" y="1387" on="1"/>
        <pt x="1682" y="1215" on="1"/>
        <pt x="1549" y="1215" on="1"/>
        <pt x="1526" y="1208" on="0"/>
        <pt x="1471" y="1162" on="0"/>
        <pt x="1434" y="1110" on="1"/>
        <pt x="1130" y="687" on="1"/>
        <pt x="1472" y="307" on="1"/>
        <pt x="1493" y="284" on="0"/>
        <pt x="1531" y="234" on="0"/>
        <pt x="1569" y="193" on="0"/>
        <pt x="1611" y="167" on="0"/>
        <pt x="1635" y="167" on="1"/>
        <pt x="1692" y="167" on="1"/>
        <pt x="1716" y="-11" on="1"/>
        <pt x="1604" y="-6" on="0"/>
        <pt x="1411" y="0" on="0"/>
        <pt x="1327" y="0" on="1"/>
        <pt x="1263" y="0" on="0"/>
        <pt x="1072" y="-6" on="0"/>
        <pt x="940" y="-11" on="1"/>
        <pt x="905" y="167" on="1"/>
        <pt x="1013" y="167" on="1"/>
        <pt x="1034" y="167" on="0"/>
        <pt x="1034" y="184" on="1"/>
        <pt x="1034" y="206" on="0"/>
        <pt x="1001" y="248" on="1"/>
        <pt x="783" y="525" on="1"/>
        <pt x="607" y="253" on="1"/>
        <pt x="582" y="215" on="0"/>
        <pt x="582" y="192" on="1"/>
        <pt x="582" y="167" on="0"/>
        <pt x="613" y="167" on="1"/>
        <pt x="741" y="167" on="1"/>
        <pt x="696" y="-11" on="1"/>
        <pt x="599" y="-6" on="0"/>
        <pt x="432" y="0" on="0"/>
        <pt x="359" y="0" on="1"/>
        <pt x="295" y="0" on="0"/>
        <pt x="126" y="-6" on="0"/>
        <pt x="20" y="-11" on="1"/>
        <pt x="44" y="167" on="1"/>
        <pt x="157" y="167" on="1"/>
        <pt x="183" y="169" on="0"/>
        <pt x="236" y="221" on="0"/>
        <pt x="272" y="266" on="1"/>
        <pt x="605" y="680" on="1"/>
        <pt x="242" y="1139" on="1"/>
        <pt x="208" y="1182" on="0"/>
        <pt x="152" y="1215" on="0"/>
        <pt x="121" y="1215" on="1"/>
        <pt x="44" y="1215" on="1"/>
        <pt x="20" y="1387" on="1"/>
        <pt x="63" y="1390" on="0"/>
        <pt x="156" y="1394" on="0"/>
        <pt x="261" y="1397" on="0"/>
        <pt x="380" y="1399" on="0"/>
        <pt x="451" y="1399" on="1"/>
        <pt x="516" y="1399" on="0"/>
        <pt x="619" y="1397" on="0"/>
        <pt x="704" y="1394" on="0"/>
        <pt x="774" y="1390" on="0"/>
        <pt x="806" y="1387" on="1"/>
        <pt x="831" y="1215" on="1"/>
        <pt x="753" y="1215" on="1"/>
        <pt x="732" y="1215" on="0"/>
        <pt x="732" y="1198" on="1"/>
        <pt x="732" y="1174" on="0"/>
        <pt x="765" y="1128" on="1"/>
        <pt x="963" y="842" on="1"/>
        <pt x="1129" y="1123" on="1"/>
        <pt x="1142" y="1145" on="0"/>
        <pt x="1153" y="1176" on="0"/>
      </contour>
    </TTGlyph>
    <TTGlyph name="Y" xMin="0" yMin="-11" xMax="1576" yMax="1399">
      <contour>
        <pt x="589" y="147" on="1"/>
        <pt x="591" y="161" on="0"/>
        <pt x="594" y="195" on="0"/>
        <pt x="594" y="217" on="1"/>
        <pt x="594" y="492" on="1"/>
        <pt x="217" y="1123" on="1"/>
        <pt x="203" y="1146" on="0"/>
        <pt x="186" y="1181" on="0"/>
        <pt x="173" y="1204" on="0"/>
        <pt x="161" y="1215" on="0"/>
        <pt x="151" y="1215" on="1"/>
        <pt x="24" y="1215" on="1"/>
        <pt x="0" y="1387" on="1"/>
        <pt x="196" y="1399" on="0"/>
        <pt x="366" y="1399" on="1"/>
        <pt x="470" y="1399" on="1"/>
        <pt x="633" y="1399" on="0"/>
        <pt x="756" y="1387" on="1"/>
        <pt x="771" y="1215" on="1"/>
        <pt x="643" y="1215" on="1"/>
        <pt x="657" y="1175" on="0"/>
        <pt x="673" y="1132" on="0"/>
        <pt x="675" y="1128" on="1"/>
        <pt x="883" y="752" on="1"/>
        <pt x="1059" y="1123" on="1"/>
        <pt x="1067" y="1140" on="0"/>
        <pt x="1076" y="1183" on="0"/>
        <pt x="1081" y="1215" on="1"/>
        <pt x="925" y="1215" on="1"/>
        <pt x="960" y="1387" on="1"/>
        <pt x="1084" y="1399" on="0"/>
        <pt x="1247" y="1399" on="1"/>
        <pt x="1321" y="1399" on="1"/>
        <pt x="1439" y="1399" on="0"/>
        <pt x="1576" y="1387" on="1"/>
        <pt x="1552" y="1215" on="1"/>
        <pt x="1405" y="1215" on="1"/>
        <pt x="1398" y="1206" on="0"/>
        <pt x="1377" y="1161" on="0"/>
        <pt x="1359" y="1123" on="1"/>
        <pt x="1357" y="1120" on="0"/>
        <pt x="1345" y="1098" on="0"/>
        <pt x="1318" y="1048" on="0"/>
        <pt x="1271" y="963" on="0"/>
        <pt x="1199" y="829" on="0"/>
        <pt x="1096" y="641" on="0"/>
        <pt x="1027" y="513" on="1"/>
        <pt x="1027" y="239" on="1"/>
        <pt x="1027" y="212" on="0"/>
        <pt x="1030" y="166" on="0"/>
        <pt x="1032" y="147" on="1"/>
        <pt x="1220" y="147" on="1"/>
        <pt x="1220" y="-11" on="1"/>
        <pt x="1108" y="-6" on="0"/>
        <pt x="911" y="0" on="0"/>
        <pt x="823" y="0" on="1"/>
        <pt x="732" y="0" on="0"/>
        <pt x="524" y="-6" on="0"/>
        <pt x="403" y="-11" on="1"/>
        <pt x="403" y="147" on="1"/>
      </contour>
    </TTGlyph>
    <TTGlyph name="Yacute" xMin="0" yMin="-11" xMax="1576" yMax="1903">
      <component glyphName="acute" x="396" y="421" flags="0x1004"/>
      <component glyphName="Y" x="0" y="0" flags="0x1204"/>
    </TTGlyph>
    <TTGlyph name="Ydieresis" xMin="0" yMin="-11" xMax="1576" yMax="1846">
      <component glyphName="dieresis" x="173" y="434" flags="0x1004"/>
      <component glyphName="Y" x="0" y="0" flags="0x1204"/>
    </TTGlyph>
    <TTGlyph name="Z" xMin="86" yMin="0" xMax="1327" yMax="1387">
      <contour>
        <pt x="86" y="1373" on="1"/>
        <pt x="298" y="1380" on="0"/>
        <pt x="590" y="1387" on="0"/>
        <pt x="678" y="1387" on="1"/>
        <pt x="1214" y="1387" on="1"/>
        <pt x="1266" y="1387" on="0"/>
        <pt x="1322" y="1342" on="0"/>
        <pt x="1322" y="1313" on="1"/>
        <pt x="1322" y="1186" on="1"/>
        <pt x="575" y="180" on="1"/>
        <pt x="823" y="180" on="1"/>
        <pt x="916" y="180" on="0"/>
        <pt x="1014" y="195" on="1"/>
        <pt x="1053" y="363" on="0"/>
        <pt x="1053" y="493" on="1"/>
        <pt x="1087" y="492" on="0"/>
        <pt x="1178" y="488" on="0"/>
        <pt x="1219" y="485" on="1"/>
        <pt x="1267" y="481" on="0"/>
        <pt x="1316" y="478" on="1"/>
        <pt x="1318" y="401" on="0"/>
        <pt x="1321" y="332" on="1"/>
        <pt x="1322" y="303" on="0"/>
        <pt x="1324" y="243" on="0"/>
        <pt x="1326" y="189" on="0"/>
        <pt x="1327" y="144" on="0"/>
        <pt x="1327" y="130" on="1"/>
        <pt x="1327" y="128" on="0"/>
        <pt x="1322" y="61" on="0"/>
        <pt x="1317" y="1" on="1"/>
        <pt x="1085" y="0" on="0"/>
        <pt x="743" y="0" on="0"/>
        <pt x="621" y="0" on="1"/>
        <pt x="499" y="0" on="0"/>
        <pt x="340" y="0" on="0"/>
        <pt x="244" y="1" on="0"/>
        <pt x="197" y="1" on="0"/>
        <pt x="187" y="1" on="1"/>
        <pt x="161" y="1" on="0"/>
        <pt x="131" y="21" on="0"/>
        <pt x="115" y="51" on="0"/>
        <pt x="111" y="87" on="0"/>
        <pt x="111" y="103" on="1"/>
        <pt x="111" y="219" on="1"/>
        <pt x="843" y="1197" on="1"/>
        <pt x="654" y="1197" on="1"/>
        <pt x="620" y="1197" on="0"/>
        <pt x="511" y="1185" on="0"/>
        <pt x="436" y="1172" on="1"/>
        <pt x="434" y="1164" on="0"/>
        <pt x="431" y="1119" on="0"/>
        <pt x="429" y="1082" on="1"/>
        <pt x="429" y="968" on="1"/>
        <pt x="126" y="968" on="1"/>
      </contour>
    </TTGlyph>
    <TTGlyph name="Zcaron" xMin="86" yMin="0" xMax="1327" yMax="1883">
      <component glyphName="caron" x="177" y="389" flags="0x1004"/>
      <component glyphName="Z" x="0" y="0" flags="0x1204"/>
    </TTGlyph>
    <TTGlyph name="_323" xMin="0" yMin="0" xMax="0" yMax="0">
      <component glyphName="space" x="0" y="0" flags="0x1204"/>
    </TTGlyph>
    <TTGlyph name="_325" xMin="324" yMin="-888" xMax="793" yMax="-154">
      <contour>
        <pt x="571" y="-154" on="1"/>
        <pt x="680" y="-154" on="0"/>
        <pt x="793" y="-282" on="0"/>
        <pt x="793" y="-394" on="1"/>
        <pt x="793" y="-467" on="0"/>
        <pt x="745" y="-596" on="0"/>
        <pt x="651" y="-716" on="0"/>
        <pt x="511" y="-830" on="0"/>
        <pt x="418" y="-888" on="1"/>
        <pt x="324" y="-795" on="1"/>
        <pt x="440" y="-684" on="0"/>
        <pt x="495" y="-527" on="1"/>
        <pt x="429" y="-513" on="0"/>
        <pt x="350" y="-417" on="0"/>
        <pt x="350" y="-342" on="1"/>
        <pt x="350" y="-299" on="0"/>
        <pt x="386" y="-229" on="0"/>
        <pt x="447" y="-180" on="0"/>
        <pt x="527" y="-154" on="0"/>
      </contour>
    </TTGlyph>
    <TTGlyph name="_326" xMin="30" yMin="1112" xMax="575" yMax="1482">
      <contour>
        <pt x="30" y="1428" on="1"/>
        <pt x="30" y="1456" on="0"/>
        <pt x="84" y="1482" on="0"/>
        <pt x="123" y="1482" on="1"/>
        <pt x="425" y="1482" on="1"/>
        <pt x="575" y="1112" on="1"/>
        <pt x="340" y="1112" on="1"/>
      </contour>
    </TTGlyph>
    <TTGlyph name="_327" xMin="91" yMin="1223" xMax="636" yMax="1592">
      <contour>
        <pt x="91" y="1223" on="1"/>
        <pt x="241" y="1592" on="1"/>
        <pt x="543" y="1592" on="1"/>
        <pt x="631" y="1592" on="0"/>
        <pt x="636" y="1538" on="1"/>
        <pt x="326" y="1223" on="1"/>
      </contour>
    </TTGlyph>
    <TTGlyph name="_328" xMin="105" yMin="1146" xMax="829" yMax="1495">
      <contour>
        <pt x="154" y="1146" on="1"/>
        <pt x="105" y="1146" on="0"/>
        <pt x="105" y="1170" on="1"/>
        <pt x="105" y="1184" on="0"/>
        <pt x="117" y="1217" on="0"/>
        <pt x="124" y="1224" on="1"/>
        <pt x="296" y="1495" on="1"/>
        <pt x="638" y="1495" on="1"/>
        <pt x="792" y="1251" on="1"/>
        <pt x="806" y="1230" on="0"/>
        <pt x="829" y="1192" on="0"/>
        <pt x="829" y="1170" on="1"/>
        <pt x="829" y="1146" on="0"/>
        <pt x="779" y="1146" on="1"/>
        <pt x="572" y="1146" on="1"/>
        <pt x="467" y="1320" on="1"/>
        <pt x="372" y="1146" on="1"/>
      </contour>
    </TTGlyph>
    <TTGlyph name="_329" xMin="-110" yMin="1100" xMax="715" yMax="1412">
      <contour>
        <pt x="220" y="1257" on="1"/>
        <pt x="220" y="1185" on="0"/>
        <pt x="130" y="1100" on="0"/>
        <pt x="55" y="1100" on="1"/>
        <pt x="-20" y="1100" on="0"/>
        <pt x="-110" y="1184" on="0"/>
        <pt x="-110" y="1257" on="1"/>
        <pt x="-110" y="1291" on="0"/>
        <pt x="-85" y="1349" on="0"/>
        <pt x="-41" y="1389" on="0"/>
        <pt x="20" y="1412" on="0"/>
        <pt x="55" y="1412" on="1"/>
        <pt x="91" y="1412" on="0"/>
        <pt x="152" y="1389" on="0"/>
        <pt x="195" y="1349" on="0"/>
        <pt x="220" y="1291" on="0"/>
      </contour>
      <contour>
        <pt x="715" y="1257" on="1"/>
        <pt x="715" y="1184" on="0"/>
        <pt x="625" y="1100" on="0"/>
        <pt x="550" y="1100" on="1"/>
        <pt x="475" y="1100" on="0"/>
        <pt x="385" y="1184" on="0"/>
        <pt x="385" y="1257" on="1"/>
        <pt x="385" y="1291" on="0"/>
        <pt x="410" y="1349" on="0"/>
        <pt x="454" y="1389" on="0"/>
        <pt x="515" y="1412" on="0"/>
        <pt x="550" y="1412" on="1"/>
        <pt x="586" y="1412" on="0"/>
        <pt x="647" y="1389" on="0"/>
        <pt x="690" y="1349" on="0"/>
        <pt x="715" y="1291" on="0"/>
      </contour>
    </TTGlyph>
    <TTGlyph name="_330" xMin="105" yMin="1145" xMax="829" yMax="1494">
      <contour>
        <pt x="779" y="1494" on="1"/>
        <pt x="829" y="1494" on="0"/>
        <pt x="829" y="1470" on="1"/>
        <pt x="828" y="1458" on="0"/>
        <pt x="824" y="1438" on="0"/>
        <pt x="817" y="1427" on="1"/>
        <pt x="638" y="1145" on="1"/>
        <pt x="296" y="1145" on="1"/>
        <pt x="142" y="1389" on="1"/>
        <pt x="128" y="1410" on="0"/>
        <pt x="105" y="1448" on="0"/>
        <pt x="105" y="1470" on="1"/>
        <pt x="105" y="1494" on="0"/>
        <pt x="154" y="1494" on="1"/>
        <pt x="372" y="1494" on="1"/>
        <pt x="467" y="1320" on="1"/>
        <pt x="572" y="1494" on="1"/>
      </contour>
    </TTGlyph>
    <TTGlyph name="_331" xMin="141" yMin="1109" xMax="549" yMax="1483">
      <contour>
        <pt x="226" y="1298" on="1"/>
        <pt x="226" y="1244" on="0"/>
        <pt x="291" y="1182" on="0"/>
        <pt x="345" y="1182" on="1"/>
        <pt x="399" y="1182" on="0"/>
        <pt x="464" y="1244" on="0"/>
        <pt x="464" y="1298" on="1"/>
        <pt x="464" y="1349" on="0"/>
        <pt x="399" y="1411" on="0"/>
        <pt x="345" y="1411" on="1"/>
        <pt x="291" y="1411" on="0"/>
        <pt x="226" y="1349" on="0"/>
      </contour>
      <contour>
        <pt x="345" y="1109" on="1"/>
        <pt x="300" y="1109" on="0"/>
        <pt x="225" y="1135" on="0"/>
        <pt x="171" y="1184" on="0"/>
        <pt x="141" y="1254" on="0"/>
        <pt x="141" y="1298" on="1"/>
        <pt x="141" y="1341" on="0"/>
        <pt x="172" y="1409" on="0"/>
        <pt x="226" y="1457" on="0"/>
        <pt x="301" y="1483" on="0"/>
        <pt x="345" y="1483" on="1"/>
        <pt x="389" y="1483" on="0"/>
        <pt x="464" y="1457" on="0"/>
        <pt x="518" y="1409" on="0"/>
        <pt x="549" y="1341" on="0"/>
        <pt x="549" y="1298" on="1"/>
        <pt x="549" y="1255" on="0"/>
        <pt x="519" y="1185" on="0"/>
        <pt x="465" y="1136" on="0"/>
        <pt x="390" y="1109" on="0"/>
      </contour>
    </TTGlyph>
    <TTGlyph name="_332" xMin="225" yMin="1275" xMax="1001" yMax="1521">
      <contour>
        <pt x="446" y="1383" on="1"/>
        <pt x="413" y="1383" on="0"/>
        <pt x="360" y="1339" on="0"/>
        <pt x="323" y="1293" on="1"/>
        <pt x="268" y="1293" on="0"/>
        <pt x="225" y="1320" on="1"/>
        <pt x="273" y="1425" on="0"/>
        <pt x="396" y="1521" on="0"/>
        <pt x="476" y="1521" on="1"/>
        <pt x="533" y="1521" on="0"/>
        <pt x="621" y="1483" on="0"/>
        <pt x="662" y="1461" on="1"/>
        <pt x="690" y="1446" on="0"/>
        <pt x="728" y="1427" on="0"/>
        <pt x="753" y="1417" on="0"/>
        <pt x="770" y="1414" on="0"/>
        <pt x="777" y="1414" on="1"/>
        <pt x="842" y="1414" on="0"/>
        <pt x="899" y="1505" on="1"/>
        <pt x="952" y="1505" on="0"/>
        <pt x="1001" y="1477" on="1"/>
        <pt x="950" y="1380" on="0"/>
        <pt x="836" y="1275" on="0"/>
        <pt x="767" y="1275" on="1"/>
        <pt x="752" y="1275" on="0"/>
        <pt x="717" y="1280" on="0"/>
        <pt x="683" y="1288" on="0"/>
        <pt x="653" y="1298" on="0"/>
        <pt x="644" y="1303" on="1"/>
        <pt x="597" y="1326" on="0"/>
        <pt x="538" y="1357" on="0"/>
        <pt x="498" y="1375" on="0"/>
        <pt x="468" y="1383" on="0"/>
        <pt x="450" y="1383" on="1"/>
      </contour>
    </TTGlyph>
    <TTGlyph name="_333" xMin="119" yMin="1130" xMax="519" yMax="1509">
      <contour>
        <pt x="519" y="1321" on="1"/>
        <pt x="519" y="1277" on="0"/>
        <pt x="491" y="1206" on="0"/>
        <pt x="438" y="1157" on="0"/>
        <pt x="364" y="1130" on="0"/>
        <pt x="319" y="1130" on="1"/>
        <pt x="274" y="1130" on="0"/>
        <pt x="200" y="1157" on="0"/>
        <pt x="147" y="1206" on="0"/>
        <pt x="119" y="1277" on="0"/>
        <pt x="119" y="1321" on="1"/>
        <pt x="119" y="1363" on="0"/>
        <pt x="149" y="1433" on="0"/>
        <pt x="203" y="1482" on="0"/>
        <pt x="276" y="1509" on="0"/>
        <pt x="319" y="1509" on="1"/>
        <pt x="362" y="1509" on="0"/>
        <pt x="436" y="1480" on="0"/>
        <pt x="489" y="1430" on="0"/>
        <pt x="519" y="1361" on="0"/>
      </contour>
    </TTGlyph>
    <TTGlyph name="a" xMin="92" yMin="-22" xMax="1272" yMax="1005">
      <contour>
        <pt x="668" y="464" on="1"/>
        <pt x="590" y="464" on="0"/>
        <pt x="503" y="364" on="0"/>
        <pt x="503" y="282" on="1"/>
        <pt x="503" y="203" on="0"/>
        <pt x="552" y="138" on="0"/>
        <pt x="587" y="138" on="1"/>
        <pt x="636" y="138" on="0"/>
        <pt x="698" y="191" on="1"/>
        <pt x="698" y="464" on="1"/>
      </contour>
      <contour>
        <pt x="1272" y="33" on="1"/>
        <pt x="1081" y="-10" on="0"/>
        <pt x="855" y="-10" on="1"/>
        <pt x="817" y="16" on="0"/>
        <pt x="757" y="73" on="0"/>
        <pt x="735" y="102" on="1"/>
        <pt x="617" y="-22" on="0"/>
        <pt x="450" y="-22" on="1"/>
        <pt x="370" y="-22" on="0"/>
        <pt x="238" y="16" on="0"/>
        <pt x="144" y="91" on="0"/>
        <pt x="92" y="202" on="0"/>
        <pt x="92" y="274" on="1"/>
        <pt x="92" y="428" on="0"/>
        <pt x="382" y="583" on="0"/>
        <pt x="678" y="583" on="1"/>
        <pt x="698" y="583" on="1"/>
        <pt x="698" y="617" on="1"/>
        <pt x="698" y="742" on="0"/>
        <pt x="675" y="855" on="0"/>
        <pt x="646" y="855" on="1"/>
        <pt x="588" y="855" on="0"/>
        <pt x="440" y="736" on="0"/>
        <pt x="359" y="631" on="1"/>
        <pt x="118" y="785" on="1"/>
        <pt x="118" y="835" on="0"/>
        <pt x="207" y="916" on="0"/>
        <pt x="348" y="974" on="0"/>
        <pt x="522" y="1005" on="0"/>
        <pt x="607" y="1005" on="1"/>
        <pt x="729" y="1005" on="0"/>
        <pt x="919" y="965" on="0"/>
        <pt x="1049" y="870" on="0"/>
        <pt x="1117" y="715" on="0"/>
        <pt x="1117" y="601" on="1"/>
        <pt x="1117" y="573" on="0"/>
        <pt x="1116" y="499" on="0"/>
        <pt x="1116" y="451" on="1"/>
        <pt x="1116" y="274" on="1"/>
        <pt x="1116" y="225" on="0"/>
        <pt x="1119" y="162" on="0"/>
        <pt x="1121" y="148" on="1"/>
        <pt x="1137" y="147" on="0"/>
        <pt x="1170" y="146" on="0"/>
        <pt x="1188" y="146" on="1"/>
        <pt x="1272" y="146" on="1"/>
      </contour>
    </TTGlyph>
    <TTGlyph name="aacute" xMin="92" yMin="-22" xMax="1272" yMax="1496">
      <component glyphName="acute" x="160" y="14" flags="0x1004"/>
      <component glyphName="a" x="0" y="0" flags="0x1204"/>
    </TTGlyph>
    <TTGlyph name="acircumflex" xMin="92" yMin="-22" xMax="1272" yMax="1476">
      <component glyphName="circumflex" x="18" y="-19" flags="0x1004"/>
      <component glyphName="a" x="0" y="0" flags="0x1204"/>
    </TTGlyph>
    <TTGlyph name="acute" xMin="330" yMin="1113" xMax="875" yMax="1482">
      <contour>
        <pt x="330" y="1113" on="1"/>
        <pt x="480" y="1482" on="1"/>
        <pt x="875" y="1482" on="1"/>
        <pt x="565" y="1113" on="1"/>
      </contour>
    </TTGlyph>
    <TTGlyph name="adieresis" xMin="92" yMin="-22" xMax="1272" yMax="1439">
      <component glyphName="dieresis" x="-64" y="27" flags="0x1004"/>
      <component glyphName="a" x="0" y="0" flags="0x1204"/>
    </TTGlyph>
    <TTGlyph name="ae" xMin="92" yMin="-22" xMax="1771" yMax="1005">
      <contour>
        <pt x="1423" y="169" on="1"/>
        <pt x="1548" y="169" on="0"/>
        <pt x="1703" y="245" on="1"/>
        <pt x="1721" y="95" on="1"/>
        <pt x="1557" y="-22" on="0"/>
        <pt x="1297" y="-22" on="1"/>
        <pt x="1046" y="-22" on="0"/>
        <pt x="885" y="94" on="1"/>
        <pt x="838" y="70" on="0"/>
        <pt x="737" y="28" on="0"/>
        <pt x="633" y="-4" on="0"/>
        <pt x="529" y="-22" on="0"/>
        <pt x="480" y="-22" on="1"/>
        <pt x="395" y="-22" on="0"/>
        <pt x="253" y="16" on="0"/>
        <pt x="150" y="90" on="0"/>
        <pt x="92" y="201" on="0"/>
        <pt x="92" y="274" on="1"/>
        <pt x="92" y="428" on="0"/>
        <pt x="382" y="583" on="0"/>
        <pt x="678" y="583" on="1"/>
        <pt x="698" y="583" on="1"/>
        <pt x="698" y="617" on="1"/>
        <pt x="698" y="742" on="0"/>
        <pt x="675" y="855" on="0"/>
        <pt x="646" y="855" on="1"/>
        <pt x="588" y="855" on="0"/>
        <pt x="440" y="736" on="0"/>
        <pt x="359" y="631" on="1"/>
        <pt x="118" y="785" on="1"/>
        <pt x="118" y="835" on="0"/>
        <pt x="207" y="916" on="0"/>
        <pt x="348" y="974" on="0"/>
        <pt x="522" y="1005" on="0"/>
        <pt x="607" y="1005" on="1"/>
        <pt x="840" y="1005" on="0"/>
        <pt x="965" y="900" on="1"/>
        <pt x="1107" y="1005" on="0"/>
        <pt x="1301" y="1005" on="1"/>
        <pt x="1404" y="1005" on="0"/>
        <pt x="1576" y="951" on="0"/>
        <pt x="1701" y="851" on="0"/>
        <pt x="1771" y="706" on="0"/>
        <pt x="1771" y="615" on="1"/>
        <pt x="1771" y="561" on="0"/>
        <pt x="1746" y="493" on="0"/>
        <pt x="1690" y="455" on="0"/>
        <pt x="1603" y="442" on="0"/>
        <pt x="1540" y="442" on="1"/>
        <pt x="1127" y="442" on="1"/>
        <pt x="1150" y="316" on="0"/>
        <pt x="1296" y="169" on="0"/>
      </contour>
      <contour>
        <pt x="668" y="464" on="1"/>
        <pt x="590" y="464" on="0"/>
        <pt x="503" y="364" on="0"/>
        <pt x="503" y="282" on="1"/>
        <pt x="503" y="138" on="0"/>
        <pt x="617" y="138" on="1"/>
        <pt x="685" y="138" on="0"/>
        <pt x="802" y="173" on="1"/>
        <pt x="709" y="287" on="0"/>
        <pt x="699" y="460" on="1"/>
        <pt x="698" y="464" on="1"/>
      </contour>
      <contour>
        <pt x="1380" y="590" on="1"/>
        <pt x="1380" y="608" on="1"/>
        <pt x="1380" y="659" on="0"/>
        <pt x="1364" y="746" on="0"/>
        <pt x="1334" y="809" on="0"/>
        <pt x="1289" y="845" on="0"/>
        <pt x="1261" y="845" on="1"/>
        <pt x="1150" y="845" on="0"/>
        <pt x="1126" y="590" on="1"/>
      </contour>
    </TTGlyph>
    <TTGlyph name="agrave" xMin="92" yMin="-22" xMax="1272" yMax="1497">
      <component glyphName="grave" x="-128" y="15" flags="0x1004"/>
      <component glyphName="a" x="0" y="0" flags="0x1204"/>
    </TTGlyph>
    <TTGlyph name="ampersand" xMin="96" yMin="-22" xMax="1516" yMax="1412">
      <contour>
        <pt x="529" y="1068" on="1"/>
        <pt x="529" y="950" on="0"/>
        <pt x="621" y="837" on="0"/>
        <pt x="727" y="837" on="1"/>
        <pt x="1516" y="837" on="1"/>
        <pt x="1516" y="507" on="1"/>
        <pt x="1390" y="507" on="1"/>
        <pt x="1390" y="546" on="0"/>
        <pt x="1366" y="610" on="0"/>
        <pt x="1321" y="655" on="0"/>
        <pt x="1259" y="680" on="0"/>
        <pt x="1220" y="680" on="1"/>
        <pt x="1220" y="491" on="1"/>
        <pt x="1220" y="229" on="0"/>
        <pt x="959" y="-22" on="0"/>
        <pt x="692" y="-22" on="1"/>
        <pt x="565" y="-22" on="0"/>
        <pt x="347" y="14" on="0"/>
        <pt x="187" y="105" on="0"/>
        <pt x="96" y="259" on="0"/>
        <pt x="96" y="377" on="1"/>
        <pt x="96" y="509" on="0"/>
        <pt x="241" y="700" on="0"/>
        <pt x="392" y="757" on="1"/>
        <pt x="133" y="836" on="0"/>
        <pt x="133" y="1054" on="1"/>
        <pt x="133" y="1234" on="0"/>
        <pt x="463" y="1412" on="0"/>
        <pt x="789" y="1412" on="1"/>
        <pt x="954" y="1412" on="0"/>
        <pt x="1203" y="1361" on="1"/>
        <pt x="1203" y="1006" on="1"/>
        <pt x="952" y="1006" on="1"/>
        <pt x="932" y="1123" on="0"/>
        <pt x="819" y="1252" on="0"/>
        <pt x="728" y="1252" on="1"/>
        <pt x="686" y="1252" on="0"/>
        <pt x="613" y="1223" on="0"/>
        <pt x="559" y="1173" on="0"/>
        <pt x="529" y="1106" on="0"/>
      </contour>
      <contour>
        <pt x="500" y="374" on="1"/>
        <pt x="500" y="136" on="0"/>
        <pt x="709" y="136" on="1"/>
        <pt x="746" y="136" on="0"/>
        <pt x="798" y="170" on="0"/>
        <pt x="832" y="228" on="0"/>
        <pt x="851" y="303" on="0"/>
        <pt x="860" y="384" on="0"/>
        <pt x="862" y="466" on="0"/>
        <pt x="862" y="502" on="1"/>
        <pt x="862" y="680" on="1"/>
        <pt x="690" y="680" on="1"/>
        <pt x="648" y="680" on="0"/>
        <pt x="578" y="641" on="0"/>
        <pt x="528" y="564" on="0"/>
        <pt x="500" y="450" on="0"/>
      </contour>
    </TTGlyph>
    <TTGlyph name="approxequal" xMin="113" yMin="163" xMax="1092" yMax="905">
      <contour>
        <pt x="1092" y="800" on="1"/>
        <pt x="1035" y="695" on="0"/>
        <pt x="891" y="581" on="0"/>
        <pt x="803" y="581" on="1"/>
        <pt x="748" y="581" on="0"/>
        <pt x="644" y="625" on="0"/>
        <pt x="546" y="678" on="0"/>
        <pt x="453" y="722" on="0"/>
        <pt x="410" y="722" on="1"/>
        <pt x="390" y="722" on="0"/>
        <pt x="351" y="709" on="0"/>
        <pt x="309" y="674" on="0"/>
        <pt x="259" y="615" on="0"/>
        <pt x="228" y="570" on="1"/>
        <pt x="113" y="666" on="1"/>
        <pt x="168" y="771" on="0"/>
        <pt x="326" y="887" on="0"/>
        <pt x="426" y="887" on="1"/>
        <pt x="483" y="887" on="0"/>
        <pt x="583" y="843" on="0"/>
        <pt x="674" y="791" on="0"/>
        <pt x="761" y="747" on="0"/>
        <pt x="805" y="747" on="1"/>
        <pt x="853" y="747" on="0"/>
        <pt x="931" y="827" on="0"/>
        <pt x="976" y="905" on="1"/>
      </contour>
      <contour>
        <pt x="1092" y="393" on="1"/>
        <pt x="1035" y="288" on="0"/>
        <pt x="891" y="174" on="0"/>
        <pt x="803" y="174" on="1"/>
        <pt x="748" y="174" on="0"/>
        <pt x="644" y="218" on="0"/>
        <pt x="546" y="271" on="0"/>
        <pt x="453" y="315" on="0"/>
        <pt x="410" y="315" on="1"/>
        <pt x="390" y="315" on="0"/>
        <pt x="351" y="302" on="0"/>
        <pt x="309" y="267" on="0"/>
        <pt x="259" y="208" on="0"/>
        <pt x="228" y="163" on="1"/>
        <pt x="113" y="259" on="1"/>
        <pt x="168" y="364" on="0"/>
        <pt x="326" y="480" on="0"/>
        <pt x="426" y="480" on="1"/>
        <pt x="483" y="480" on="0"/>
        <pt x="583" y="436" on="0"/>
        <pt x="674" y="384" on="0"/>
        <pt x="761" y="340" on="0"/>
        <pt x="805" y="340" on="1"/>
        <pt x="853" y="340" on="0"/>
        <pt x="931" y="420" on="0"/>
        <pt x="976" y="498" on="1"/>
      </contour>
    </TTGlyph>
    <TTGlyph name="aring" xMin="92" yMin="-22" xMax="1272" yMax="1501">
      <component glyphName="ring" x="309" y="18" flags="0x1004"/>
      <component glyphName="a" x="0" y="0" flags="0x1204"/>
    </TTGlyph>
    <TTGlyph name="asciicircum" xMin="94" yMin="544" xMax="1182" yMax="1389">
      <contour>
        <pt x="781" y="1389" on="1"/>
        <pt x="1149" y="736" on="1"/>
        <pt x="1182" y="677" on="0"/>
        <pt x="1182" y="651" on="1"/>
        <pt x="1182" y="628" on="0"/>
        <pt x="1136" y="598" on="0"/>
        <pt x="1109" y="594" on="1"/>
        <pt x="890" y="544" on="1"/>
        <pt x="638" y="1029" on="1"/>
        <pt x="386" y="544" on="1"/>
        <pt x="183" y="591" on="1"/>
        <pt x="165" y="595" on="0"/>
        <pt x="133" y="604" on="0"/>
        <pt x="109" y="617" on="0"/>
        <pt x="94" y="636" on="0"/>
        <pt x="94" y="651" on="1"/>
        <pt x="94" y="677" on="0"/>
        <pt x="127" y="736" on="1"/>
        <pt x="495" y="1389" on="1"/>
      </contour>
    </TTGlyph>
    <TTGlyph name="asciitilde" xMin="113" yMin="394" xMax="1090" yMax="671">
      <contour>
        <pt x="823" y="538" on="1"/>
        <pt x="892" y="538" on="0"/>
        <pt x="998" y="597" on="0"/>
        <pt x="1026" y="645" on="1"/>
        <pt x="1049" y="615" on="0"/>
        <pt x="1082" y="564" on="0"/>
        <pt x="1090" y="543" on="1"/>
        <pt x="1079" y="508" on="0"/>
        <pt x="1034" y="453" on="0"/>
        <pt x="971" y="415" on="0"/>
        <pt x="892" y="394" on="0"/>
        <pt x="847" y="394" on="1"/>
        <pt x="816" y="394" on="0"/>
        <pt x="763" y="400" on="0"/>
        <pt x="709" y="414" on="0"/>
        <pt x="649" y="436" on="0"/>
        <pt x="611" y="453" on="1"/>
        <pt x="555" y="477" on="0"/>
        <pt x="479" y="508" on="0"/>
        <pt x="425" y="524" on="0"/>
        <pt x="389" y="530" on="0"/>
        <pt x="374" y="530" on="1"/>
        <pt x="270" y="530" on="0"/>
        <pt x="189" y="398" on="1"/>
        <pt x="129" y="458" on="0"/>
        <pt x="113" y="495" on="1"/>
        <pt x="122" y="530" on="0"/>
        <pt x="174" y="594" on="0"/>
        <pt x="245" y="642" on="0"/>
        <pt x="329" y="671" on="0"/>
        <pt x="370" y="671" on="1"/>
        <pt x="420" y="671" on="0"/>
        <pt x="527" y="645" on="0"/>
        <pt x="565" y="628" on="1"/>
        <pt x="630" y="599" on="0"/>
        <pt x="713" y="564" on="0"/>
        <pt x="768" y="544" on="0"/>
        <pt x="804" y="538" on="0"/>
      </contour>
    </TTGlyph>
    <TTGlyph name="asterisk" xMin="72" yMin="660" xMax="838" yMax="1440">
      <contour>
        <pt x="288" y="703" on="1"/>
        <pt x="392" y="994" on="1"/>
        <pt x="124" y="859" on="1"/>
        <pt x="72" y="1014" on="1"/>
        <pt x="368" y="1080" on="1"/>
        <pt x="110" y="1269" on="1"/>
        <pt x="230" y="1382" on="1"/>
        <pt x="428" y="1139" on="1"/>
        <pt x="458" y="1440" on="1"/>
        <pt x="626" y="1409" on="1"/>
        <pt x="519" y="1126" on="1"/>
        <pt x="789" y="1252" on="1"/>
        <pt x="838" y="1109" on="1"/>
        <pt x="547" y="1041" on="1"/>
        <pt x="799" y="833" on="1"/>
        <pt x="667" y="727" on="1"/>
        <pt x="482" y="982" on="1"/>
        <pt x="455" y="660" on="1"/>
      </contour>
    </TTGlyph>
    <TTGlyph name="at" xMin="104" yMin="-166" xMax="1702" yMax="1452">
      <contour>
        <pt x="966" y="-38" on="1"/>
        <pt x="1225" y="-38" on="0"/>
        <pt x="1464" y="108" on="1"/>
        <pt x="1517" y="10" on="1"/>
        <pt x="1389" y="-72" on="0"/>
        <pt x="1102" y="-166" on="0"/>
        <pt x="951" y="-166" on="1"/>
        <pt x="825" y="-166" on="0"/>
        <pt x="602" y="-109" on="0"/>
        <pt x="413" y="-6" on="0"/>
        <pt x="264" y="138" on="0"/>
        <pt x="159" y="314" on="0"/>
        <pt x="104" y="517" on="0"/>
        <pt x="104" y="626" on="1"/>
        <pt x="104" y="986" on="0"/>
        <pt x="356" y="1222" on="1"/>
        <pt x="603" y="1452" on="0"/>
        <pt x="962" y="1452" on="1"/>
        <pt x="1127" y="1452" on="0"/>
        <pt x="1400" y="1350" on="0"/>
        <pt x="1595" y="1166" on="0"/>
        <pt x="1702" y="911" on="0"/>
        <pt x="1702" y="759" on="1"/>
        <pt x="1702" y="643" on="0"/>
        <pt x="1632" y="444" on="0"/>
        <pt x="1517" y="298" on="0"/>
        <pt x="1368" y="215" on="0"/>
        <pt x="1289" y="215" on="1"/>
        <pt x="1204" y="215" on="0"/>
        <pt x="1094" y="299" on="0"/>
        <pt x="1066" y="368" on="1"/>
        <pt x="1021" y="301" on="0"/>
        <pt x="892" y="215" on="0"/>
        <pt x="807" y="215" on="1"/>
        <pt x="741" y="215" on="0"/>
        <pt x="637" y="260" on="0"/>
        <pt x="565" y="343" on="0"/>
        <pt x="527" y="460" on="0"/>
        <pt x="527" y="531" on="1"/>
        <pt x="527" y="620" on="0"/>
        <pt x="565" y="772" on="0"/>
        <pt x="632" y="897" on="0"/>
        <pt x="722" y="993" on="0"/>
        <pt x="826" y="1058" on="0"/>
        <pt x="940" y="1092" on="0"/>
        <pt x="996" y="1092" on="1"/>
        <pt x="1048" y="1092" on="0"/>
        <pt x="1132" y="1045" on="0"/>
        <pt x="1161" y="996" on="1"/>
        <pt x="1226" y="1055" on="1"/>
        <pt x="1264" y="1051" on="0"/>
        <pt x="1322" y="1035" on="0"/>
        <pt x="1340" y="1021" on="1"/>
        <pt x="1327" y="980" on="0"/>
        <pt x="1302" y="875" on="0"/>
        <pt x="1279" y="769" on="0"/>
        <pt x="1258" y="669" on="0"/>
        <pt x="1250" y="633" on="1"/>
        <pt x="1239" y="584" on="0"/>
        <pt x="1221" y="494" on="0"/>
        <pt x="1221" y="448" on="1"/>
        <pt x="1221" y="396" on="0"/>
        <pt x="1262" y="345" on="0"/>
        <pt x="1310" y="345" on="1"/>
        <pt x="1352" y="345" on="0"/>
        <pt x="1440" y="407" on="0"/>
        <pt x="1511" y="518" on="0"/>
        <pt x="1557" y="672" on="0"/>
        <pt x="1557" y="764" on="1"/>
        <pt x="1557" y="883" on="0"/>
        <pt x="1469" y="1086" on="0"/>
        <pt x="1311" y="1235" on="0"/>
        <pt x="1091" y="1319" on="0"/>
        <pt x="960" y="1319" on="1"/>
        <pt x="823" y="1319" on="0"/>
        <pt x="585" y="1218" on="0"/>
        <pt x="410" y="1034" on="0"/>
        <pt x="310" y="776" on="0"/>
        <pt x="310" y="619" on="1"/>
        <pt x="310" y="475" on="0"/>
        <pt x="408" y="234" on="0"/>
        <pt x="582" y="60" on="0"/>
        <pt x="823" y="-38" on="0"/>
      </contour>
      <contour>
        <pt x="1122" y="891" on="1"/>
        <pt x="1114" y="928" on="0"/>
        <pt x="1063" y="973" on="0"/>
        <pt x="1021" y="973" on="1"/>
        <pt x="966" y="973" on="0"/>
        <pt x="871" y="903" on="0"/>
        <pt x="826" y="833" on="1"/>
        <pt x="789" y="776" on="0"/>
        <pt x="737" y="621" on="0"/>
        <pt x="737" y="531" on="1"/>
        <pt x="737" y="493" on="0"/>
        <pt x="754" y="427" on="0"/>
        <pt x="786" y="378" on="0"/>
        <pt x="834" y="350" on="0"/>
        <pt x="864" y="350" on="1"/>
        <pt x="906" y="350" on="0"/>
        <pt x="967" y="390" on="0"/>
        <pt x="1011" y="452" on="0"/>
        <pt x="1040" y="525" on="0"/>
        <pt x="1049" y="557" on="1"/>
        <pt x="1074" y="644" on="0"/>
        <pt x="1110" y="810" on="0"/>
      </contour>
    </TTGlyph>
    <TTGlyph name="atilde" xMin="92" yMin="-22" xMax="1272" yMax="1410">
      <component glyphName="tilde" x="50" y="-95" flags="0x1004"/>
      <component glyphName="a" x="0" y="0" flags="0x1204"/>
    </TTGlyph>
    <TTGlyph name="b" xMin="35" yMin="-11" xMax="1337" yMax="1412">
      <contour>
        <pt x="793" y="836" on="1"/>
        <pt x="730" y="836" on="0"/>
        <pt x="627" y="789" on="1"/>
        <pt x="627" y="140" on="1"/>
        <pt x="641" y="138" on="0"/>
        <pt x="667" y="138" on="0"/>
        <pt x="681" y="138" on="1"/>
        <pt x="752" y="138" on="1"/>
        <pt x="824" y="138" on="0"/>
        <pt x="906" y="321" on="0"/>
        <pt x="906" y="504" on="1"/>
        <pt x="906" y="836" on="0"/>
      </contour>
      <contour>
        <pt x="627" y="937" on="1"/>
        <pt x="768" y="1005" on="0"/>
        <pt x="897" y="1005" on="1"/>
        <pt x="1009" y="1005" on="0"/>
        <pt x="1174" y="920" on="0"/>
        <pt x="1283" y="781" on="0"/>
        <pt x="1337" y="603" on="0"/>
        <pt x="1337" y="509" on="1"/>
        <pt x="1337" y="377" on="0"/>
        <pt x="1242" y="181" on="0"/>
        <pt x="1083" y="52" on="0"/>
        <pt x="877" y="-11" on="0"/>
        <pt x="765" y="-11" on="1"/>
        <pt x="552" y="-11" on="0"/>
        <pt x="173" y="19" on="1"/>
        <pt x="173" y="79" on="1"/>
        <pt x="208" y="152" on="0"/>
        <pt x="208" y="330" on="1"/>
        <pt x="208" y="1251" on="1"/>
        <pt x="35" y="1251" on="1"/>
        <pt x="35" y="1364" on="1"/>
        <pt x="231" y="1412" on="0"/>
        <pt x="435" y="1412" on="1"/>
        <pt x="495" y="1412" on="1"/>
        <pt x="537" y="1412" on="0"/>
        <pt x="588" y="1403" on="0"/>
        <pt x="617" y="1379" on="0"/>
        <pt x="627" y="1334" on="0"/>
        <pt x="627" y="1298" on="1"/>
      </contour>
    </TTGlyph>
    <TTGlyph name="backslash" xMin="0" yMin="-22" xMax="1036" yMax="1412">
      <contour>
        <pt x="1036" y="-22" on="1"/>
        <pt x="775" y="-22" on="1"/>
        <pt x="654" y="-22" on="0"/>
        <pt x="630" y="48" on="1"/>
        <pt x="0" y="1412" on="1"/>
        <pt x="263" y="1412" on="1"/>
        <pt x="328" y="1412" on="0"/>
        <pt x="396" y="1374" on="0"/>
        <pt x="413" y="1326" on="1"/>
      </contour>
    </TTGlyph>
    <TTGlyph name="bar" xMin="498" yMin="-225" xMax="806" yMax="1412">
      <contour>
        <pt x="624" y="1412" on="1"/>
        <pt x="710" y="1412" on="0"/>
        <pt x="806" y="1353" on="0"/>
        <pt x="806" y="1282" on="1"/>
        <pt x="806" y="-225" on="1"/>
        <pt x="679" y="-225" on="1"/>
        <pt x="626" y="-225" on="0"/>
        <pt x="556" y="-206" on="0"/>
        <pt x="515" y="-161" on="0"/>
        <pt x="498" y="-87" on="0"/>
        <pt x="498" y="-31" on="1"/>
        <pt x="498" y="1412" on="1"/>
      </contour>
    </TTGlyph>
    <TTGlyph name="braceleft" xMin="66" yMin="-211" xMax="736" yMax="1475">
      <contour>
        <pt x="542" y="1475" on="1"/>
        <pt x="581" y="1475" on="0"/>
        <pt x="650" y="1471" on="0"/>
        <pt x="701" y="1455" on="0"/>
        <pt x="733" y="1425" on="0"/>
        <pt x="736" y="1398" on="1"/>
        <pt x="736" y="1361" on="1"/>
        <pt x="688" y="1358" on="0"/>
        <pt x="618" y="1348" on="0"/>
        <pt x="572" y="1320" on="0"/>
        <pt x="549" y="1268" on="0"/>
        <pt x="549" y="1222" on="1"/>
        <pt x="549" y="853" on="1"/>
        <pt x="549" y="701" on="0"/>
        <pt x="414" y="631" on="1"/>
        <pt x="480" y="596" on="0"/>
        <pt x="549" y="487" on="0"/>
        <pt x="549" y="412" on="1"/>
        <pt x="549" y="42" on="1"/>
        <pt x="549" y="-73" on="0"/>
        <pt x="554" y="-73" on="1"/>
        <pt x="599" y="-86" on="0"/>
        <pt x="736" y="-100" on="1"/>
        <pt x="736" y="-133" on="1"/>
        <pt x="736" y="-160" on="0"/>
        <pt x="683" y="-192" on="0"/>
        <pt x="614" y="-207" on="0"/>
        <pt x="547" y="-211" on="0"/>
        <pt x="533" y="-211" on="1"/>
        <pt x="453" y="-211" on="0"/>
        <pt x="323" y="-190" on="0"/>
        <pt x="230" y="-133" on="0"/>
        <pt x="179" y="-34" on="0"/>
        <pt x="179" y="43" on="1"/>
        <pt x="179" y="405" on="1"/>
        <pt x="179" y="442" on="0"/>
        <pt x="170" y="500" on="0"/>
        <pt x="145" y="544" on="0"/>
        <pt x="101" y="574" on="0"/>
        <pt x="66" y="582" on="1"/>
        <pt x="66" y="688" on="1"/>
        <pt x="108" y="692" on="0"/>
        <pt x="154" y="735" on="0"/>
        <pt x="175" y="796" on="0"/>
        <pt x="179" y="866" on="0"/>
        <pt x="179" y="896" on="1"/>
        <pt x="179" y="1231" on="1"/>
        <pt x="179" y="1306" on="0"/>
        <pt x="230" y="1401" on="0"/>
        <pt x="325" y="1455" on="0"/>
        <pt x="459" y="1475" on="0"/>
      </contour>
    </TTGlyph>
    <TTGlyph name="braceright" xMin="60" yMin="-211" xMax="730" yMax="1475">
      <contour>
        <pt x="254" y="1475" on="1"/>
        <pt x="337" y="1475" on="0"/>
        <pt x="471" y="1455" on="0"/>
        <pt x="566" y="1401" on="0"/>
        <pt x="617" y="1306" on="0"/>
        <pt x="617" y="1231" on="1"/>
        <pt x="617" y="896" on="1"/>
        <pt x="617" y="866" on="0"/>
        <pt x="621" y="796" on="0"/>
        <pt x="642" y="735" on="0"/>
        <pt x="688" y="692" on="0"/>
        <pt x="730" y="688" on="1"/>
        <pt x="730" y="582" on="1"/>
        <pt x="695" y="574" on="0"/>
        <pt x="651" y="544" on="0"/>
        <pt x="626" y="500" on="0"/>
        <pt x="617" y="442" on="0"/>
        <pt x="617" y="405" on="1"/>
        <pt x="617" y="43" on="1"/>
        <pt x="617" y="-34" on="0"/>
        <pt x="566" y="-133" on="0"/>
        <pt x="473" y="-190" on="0"/>
        <pt x="343" y="-211" on="0"/>
        <pt x="263" y="-211" on="1"/>
        <pt x="249" y="-211" on="0"/>
        <pt x="182" y="-207" on="0"/>
        <pt x="113" y="-192" on="0"/>
        <pt x="60" y="-160" on="0"/>
        <pt x="60" y="-133" on="1"/>
        <pt x="60" y="-100" on="1"/>
        <pt x="197" y="-86" on="0"/>
        <pt x="242" y="-73" on="1"/>
        <pt x="247" y="-73" on="0"/>
        <pt x="247" y="42" on="1"/>
        <pt x="247" y="412" on="1"/>
        <pt x="247" y="487" on="0"/>
        <pt x="316" y="596" on="0"/>
        <pt x="382" y="631" on="1"/>
        <pt x="247" y="701" on="0"/>
        <pt x="247" y="853" on="1"/>
        <pt x="247" y="1222" on="1"/>
        <pt x="247" y="1268" on="0"/>
        <pt x="224" y="1320" on="0"/>
        <pt x="178" y="1348" on="0"/>
        <pt x="108" y="1358" on="0"/>
        <pt x="60" y="1361" on="1"/>
        <pt x="60" y="1398" on="1"/>
        <pt x="63" y="1425" on="0"/>
        <pt x="95" y="1455" on="0"/>
        <pt x="146" y="1471" on="0"/>
        <pt x="215" y="1475" on="0"/>
      </contour>
    </TTGlyph>
    <TTGlyph name="bracketleft" xMin="205" yMin="-208" xMax="766" yMax="1475">
      <contour>
        <pt x="563" y="1475" on="1"/>
        <pt x="669" y="1475" on="0"/>
        <pt x="701" y="1466" on="1"/>
        <pt x="766" y="1446" on="0"/>
        <pt x="766" y="1384" on="1"/>
        <pt x="766" y="1325" on="1"/>
        <pt x="577" y="1325" on="1"/>
        <pt x="577" y="-57" on="1"/>
        <pt x="766" y="-57" on="1"/>
        <pt x="766" y="-126" on="1"/>
        <pt x="766" y="-156" on="0"/>
        <pt x="734" y="-189" on="0"/>
        <pt x="691" y="-205" on="0"/>
        <pt x="649" y="-208" on="0"/>
        <pt x="639" y="-208" on="1"/>
        <pt x="205" y="-208" on="1"/>
        <pt x="205" y="1475" on="1"/>
      </contour>
    </TTGlyph>
    <TTGlyph name="bracketright" xMin="76" yMin="-208" xMax="637" yMax="1476">
      <contour>
        <pt x="265" y="-57" on="1"/>
        <pt x="265" y="1325" on="1"/>
        <pt x="76" y="1325" on="1"/>
        <pt x="76" y="1476" on="1"/>
        <pt x="637" y="1476" on="1"/>
        <pt x="637" y="-208" on="1"/>
        <pt x="76" y="-208" on="1"/>
        <pt x="76" y="-57" on="1"/>
      </contour>
    </TTGlyph>
    <TTGlyph name="breve" xMin="262" yMin="1127" xMax="1082" yMax="1411">
      <contour>
        <pt x="672" y="1309" on="1"/>
        <pt x="763" y="1309" on="0"/>
        <pt x="763" y="1411" on="1"/>
        <pt x="1082" y="1411" on="1"/>
        <pt x="1082" y="1334" on="0"/>
        <pt x="1015" y="1226" on="0"/>
        <pt x="902" y="1158" on="0"/>
        <pt x="753" y="1127" on="0"/>
        <pt x="672" y="1127" on="1"/>
        <pt x="584" y="1127" on="0"/>
        <pt x="434" y="1162" on="0"/>
        <pt x="324" y="1233" on="0"/>
        <pt x="262" y="1340" on="0"/>
        <pt x="262" y="1411" on="1"/>
        <pt x="581" y="1411" on="1"/>
        <pt x="581" y="1309" on="0"/>
      </contour>
    </TTGlyph>
    <TTGlyph name="brokenbar" xMin="502" yMin="-405" xMax="850" yMax="1448">
      <contour>
        <pt x="666" y="1448" on="1"/>
        <pt x="745" y="1448" on="0"/>
        <pt x="834" y="1414" on="0"/>
        <pt x="850" y="1367" on="1"/>
        <pt x="850" y="664" on="1"/>
        <pt x="684" y="664" on="1"/>
        <pt x="650" y="664" on="0"/>
        <pt x="588" y="667" on="0"/>
        <pt x="540" y="679" on="0"/>
        <pt x="508" y="705" on="0"/>
        <pt x="504" y="728" on="1"/>
        <pt x="503" y="739" on="0"/>
        <pt x="502" y="764" on="0"/>
        <pt x="502" y="778" on="1"/>
        <pt x="502" y="1448" on="1"/>
      </contour>
      <contour>
        <pt x="666" y="378" on="1"/>
        <pt x="746" y="378" on="0"/>
        <pt x="834" y="345" on="0"/>
        <pt x="850" y="298" on="1"/>
        <pt x="850" y="-405" on="1"/>
        <pt x="642" y="-405" on="1"/>
        <pt x="619" y="-405" on="0"/>
        <pt x="573" y="-402" on="0"/>
        <pt x="535" y="-389" on="0"/>
        <pt x="508" y="-364" on="0"/>
        <pt x="504" y="-341" on="1"/>
        <pt x="503" y="-330" on="0"/>
        <pt x="502" y="-306" on="0"/>
        <pt x="502" y="-292" on="1"/>
        <pt x="502" y="378" on="1"/>
      </contour>
    </TTGlyph>
    <TTGlyph name="bullet" xMin="115" yMin="315" xMax="820" yMax="900">
      <contour>
        <pt x="468" y="315" on="1"/>
        <pt x="391" y="315" on="0"/>
        <pt x="261" y="357" on="0"/>
        <pt x="167" y="433" on="0"/>
        <pt x="115" y="541" on="0"/>
        <pt x="115" y="607" on="1"/>
        <pt x="115" y="675" on="0"/>
        <pt x="170" y="784" on="0"/>
        <pt x="265" y="860" on="0"/>
        <pt x="394" y="900" on="0"/>
        <pt x="468" y="900" on="1"/>
        <pt x="545" y="900" on="0"/>
        <pt x="675" y="858" on="0"/>
        <pt x="768" y="782" on="0"/>
        <pt x="820" y="674" on="0"/>
        <pt x="820" y="608" on="1"/>
        <pt x="820" y="540" on="0"/>
        <pt x="766" y="431" on="0"/>
        <pt x="671" y="355" on="0"/>
        <pt x="542" y="315" on="0"/>
      </contour>
    </TTGlyph>
    <TTGlyph name="c" xMin="96" yMin="-22" xMax="1126" yMax="1005">
      <contour>
        <pt x="717" y="147" on="1"/>
        <pt x="774" y="147" on="0"/>
        <pt x="872" y="162" on="0"/>
        <pt x="964" y="191" on="0"/>
        <pt x="1053" y="235" on="0"/>
        <pt x="1101" y="265" on="1"/>
        <pt x="1118" y="105" on="1"/>
        <pt x="946" y="-22" on="0"/>
        <pt x="694" y="-22" on="1"/>
        <pt x="560" y="-22" on="0"/>
        <pt x="339" y="46" on="0"/>
        <pt x="182" y="176" on="0"/>
        <pt x="96" y="365" on="0"/>
        <pt x="96" y="486" on="1"/>
        <pt x="96" y="622" on="0"/>
        <pt x="199" y="819" on="0"/>
        <pt x="369" y="945" on="0"/>
        <pt x="590" y="1005" on="0"/>
        <pt x="708" y="1005" on="1"/>
        <pt x="972" y="1005" on="0"/>
        <pt x="1126" y="872" on="1"/>
        <pt x="1109" y="674" on="1"/>
        <pt x="838" y="674" on="1"/>
        <pt x="794" y="762" on="0"/>
        <pt x="724" y="836" on="0"/>
        <pt x="690" y="836" on="1"/>
        <pt x="654" y="836" on="0"/>
        <pt x="593" y="795" on="0"/>
        <pt x="548" y="715" on="0"/>
        <pt x="522" y="595" on="0"/>
        <pt x="522" y="516" on="1"/>
        <pt x="522" y="338" on="0"/>
        <pt x="620" y="147" on="0"/>
      </contour>
    </TTGlyph>
    <TTGlyph name="caron" xMin="227" yMin="1145" xMax="951" yMax="1494">
      <contour>
        <pt x="901" y="1494" on="1"/>
        <pt x="951" y="1494" on="0"/>
        <pt x="951" y="1470" on="1"/>
        <pt x="950" y="1458" on="0"/>
        <pt x="946" y="1438" on="0"/>
        <pt x="939" y="1427" on="1"/>
        <pt x="922" y="1401" on="1"/>
        <pt x="760" y="1145" on="1"/>
        <pt x="418" y="1145" on="1"/>
        <pt x="264" y="1389" on="1"/>
        <pt x="250" y="1409" on="0"/>
        <pt x="227" y="1448" on="0"/>
        <pt x="227" y="1470" on="1"/>
        <pt x="227" y="1494" on="0"/>
        <pt x="276" y="1494" on="1"/>
        <pt x="494" y="1494" on="1"/>
        <pt x="589" y="1320" on="1"/>
        <pt x="694" y="1494" on="1"/>
      </contour>
    </TTGlyph>
    <TTGlyph name="ccedilla" xMin="96" yMin="-498" xMax="1126" yMax="1005">
      <component glyphName="c" x="0" y="0" flags="0x1204"/>
      <component glyphName="cedilla" x="275" y="0" flags="0x1004"/>
    </TTGlyph>
    <TTGlyph name="cedilla" xMin="108" yMin="-498" xMax="543" yMax="11">
      <contour>
        <pt x="543" y="-272" on="1"/>
        <pt x="543" y="-384" on="0"/>
        <pt x="406" y="-498" on="0"/>
        <pt x="285" y="-498" on="1"/>
        <pt x="173" y="-498" on="0"/>
        <pt x="108" y="-457" on="1"/>
        <pt x="108" y="-366" on="1"/>
        <pt x="187" y="-390" on="0"/>
        <pt x="242" y="-390" on="1"/>
        <pt x="302" y="-390" on="0"/>
        <pt x="376" y="-340" on="0"/>
        <pt x="376" y="-291" on="1"/>
        <pt x="376" y="-194" on="0"/>
        <pt x="276" y="-178" on="1"/>
        <pt x="271" y="-178" on="0"/>
        <pt x="239" y="-186" on="1"/>
        <pt x="234" y="-182" on="0"/>
        <pt x="214" y="-174" on="0"/>
        <pt x="188" y="-163" on="1"/>
        <pt x="273" y="11" on="1"/>
        <pt x="374" y="11" on="1"/>
        <pt x="318" y="-96" on="1"/>
        <pt x="372" y="-99" on="0"/>
        <pt x="456" y="-120" on="0"/>
        <pt x="513" y="-161" on="0"/>
        <pt x="543" y="-226" on="0"/>
      </contour>
    </TTGlyph>
    <TTGlyph name="cent" xMin="117" yMin="-290" xMax="1147" yMax="1278">
      <contour>
        <pt x="782" y="148" on="1"/>
        <pt x="829" y="149" on="0"/>
        <pt x="914" y="166" on="0"/>
        <pt x="996" y="196" on="0"/>
        <pt x="1078" y="238" on="0"/>
        <pt x="1122" y="265" on="1"/>
        <pt x="1139" y="105" on="1"/>
        <pt x="993" y="-2" on="0"/>
        <pt x="782" y="-19" on="1"/>
        <pt x="782" y="-290" on="1"/>
        <pt x="759" y="-290" on="1"/>
        <pt x="723" y="-290" on="0"/>
        <pt x="678" y="-282" on="0"/>
        <pt x="653" y="-261" on="0"/>
        <pt x="645" y="-222" on="0"/>
        <pt x="645" y="-190" on="1"/>
        <pt x="645" y="-19" on="1"/>
        <pt x="526" y="-11" on="0"/>
        <pt x="332" y="64" on="0"/>
        <pt x="193" y="193" on="0"/>
        <pt x="117" y="373" on="0"/>
        <pt x="117" y="486" on="1"/>
        <pt x="117" y="612" on="0"/>
        <pt x="205" y="798" on="0"/>
        <pt x="352" y="923" on="0"/>
        <pt x="542" y="992" on="0"/>
        <pt x="645" y="1001" on="1"/>
        <pt x="645" y="1278" on="1"/>
        <pt x="667" y="1278" on="1"/>
        <pt x="697" y="1278" on="0"/>
        <pt x="741" y="1273" on="0"/>
        <pt x="769" y="1253" on="0"/>
        <pt x="782" y="1216" on="0"/>
        <pt x="782" y="1183" on="1"/>
        <pt x="782" y="1003" on="1"/>
        <pt x="894" y="995" on="0"/>
        <pt x="1084" y="927" on="0"/>
        <pt x="1147" y="872" on="1"/>
        <pt x="1130" y="674" on="1"/>
        <pt x="859" y="674" on="1"/>
        <pt x="837" y="717" on="0"/>
        <pt x="799" y="778" on="0"/>
        <pt x="782" y="797" on="1"/>
      </contour>
      <contour>
        <pt x="645" y="815" on="1"/>
        <pt x="543" y="744" on="0"/>
        <pt x="543" y="516" on="1"/>
        <pt x="543" y="261" on="0"/>
        <pt x="645" y="179" on="1"/>
      </contour>
    </TTGlyph>
    <TTGlyph name="circumflex" xMin="227" yMin="1146" xMax="951" yMax="1495">
      <contour>
        <pt x="276" y="1146" on="1"/>
        <pt x="227" y="1146" on="0"/>
        <pt x="227" y="1170" on="1"/>
        <pt x="227" y="1184" on="0"/>
        <pt x="241" y="1216" on="0"/>
        <pt x="246" y="1224" on="1"/>
        <pt x="418" y="1495" on="1"/>
        <pt x="760" y="1495" on="1"/>
        <pt x="914" y="1251" on="1"/>
        <pt x="928" y="1230" on="0"/>
        <pt x="951" y="1192" on="0"/>
        <pt x="951" y="1170" on="1"/>
        <pt x="951" y="1146" on="0"/>
        <pt x="901" y="1146" on="1"/>
        <pt x="694" y="1146" on="1"/>
        <pt x="589" y="1320" on="1"/>
        <pt x="494" y="1146" on="1"/>
      </contour>
    </TTGlyph>
    <TTGlyph name="colon" xMin="143" yMin="-22" xMax="548" yMax="1005">
      <contour>
        <pt x="548" y="817" on="1"/>
        <pt x="548" y="773" on="0"/>
        <pt x="520" y="702" on="0"/>
        <pt x="467" y="653" on="0"/>
        <pt x="393" y="626" on="0"/>
        <pt x="348" y="626" on="1"/>
        <pt x="303" y="626" on="0"/>
        <pt x="229" y="653" on="0"/>
        <pt x="176" y="702" on="0"/>
        <pt x="148" y="773" on="0"/>
        <pt x="148" y="817" on="1"/>
        <pt x="148" y="859" on="0"/>
        <pt x="178" y="929" on="0"/>
        <pt x="232" y="978" on="0"/>
        <pt x="305" y="1005" on="0"/>
        <pt x="348" y="1005" on="1"/>
        <pt x="391" y="1005" on="0"/>
        <pt x="464" y="976" on="0"/>
        <pt x="518" y="926" on="0"/>
        <pt x="548" y="857" on="0"/>
      </contour>
      <contour>
        <pt x="543" y="169" on="1"/>
        <pt x="543" y="125" on="0"/>
        <pt x="515" y="54" on="0"/>
        <pt x="462" y="5" on="0"/>
        <pt x="388" y="-22" on="0"/>
        <pt x="343" y="-22" on="1"/>
        <pt x="298" y="-22" on="0"/>
        <pt x="224" y="5" on="0"/>
        <pt x="171" y="54" on="0"/>
        <pt x="143" y="125" on="0"/>
        <pt x="143" y="169" on="1"/>
        <pt x="143" y="211" on="0"/>
        <pt x="173" y="281" on="0"/>
        <pt x="227" y="330" on="0"/>
        <pt x="300" y="357" on="0"/>
        <pt x="343" y="357" on="1"/>
        <pt x="386" y="357" on="0"/>
        <pt x="460" y="328" on="0"/>
        <pt x="513" y="278" on="0"/>
        <pt x="543" y="209" on="0"/>
      </contour>
    </TTGlyph>
    <TTGlyph name="comma" xMin="92" yMin="-376" xMax="561" yMax="358">
      <contour>
        <pt x="339" y="358" on="1"/>
        <pt x="448" y="358" on="0"/>
        <pt x="561" y="230" on="0"/>
        <pt x="561" y="118" on="1"/>
        <pt x="561" y="45" on="0"/>
        <pt x="513" y="-84" on="0"/>
        <pt x="419" y="-204" on="0"/>
        <pt x="279" y="-318" on="0"/>
        <pt x="186" y="-376" on="1"/>
        <pt x="92" y="-283" on="1"/>
        <pt x="208" y="-172" on="0"/>
        <pt x="263" y="-15" on="1"/>
        <pt x="197" y="-1" on="0"/>
        <pt x="118" y="95" on="0"/>
        <pt x="118" y="170" on="1"/>
        <pt x="118" y="213" on="0"/>
        <pt x="154" y="283" on="0"/>
        <pt x="215" y="332" on="0"/>
        <pt x="295" y="358" on="0"/>
      </contour>
    </TTGlyph>
    <TTGlyph name="copyright" xMin="113" yMin="-22" xMax="1556" yMax="1412">
      <contour>
        <pt x="835" y="1244" on="1"/>
        <pt x="713" y="1244" on="0"/>
        <pt x="519" y="1158" on="0"/>
        <pt x="384" y="1009" on="0"/>
        <pt x="312" y="807" on="0"/>
        <pt x="312" y="692" on="1"/>
        <pt x="312" y="572" on="0"/>
        <pt x="387" y="372" on="0"/>
        <pt x="525" y="227" on="0"/>
        <pt x="718" y="146" on="0"/>
        <pt x="835" y="146" on="1"/>
        <pt x="969" y="146" on="0"/>
        <pt x="1169" y="238" on="0"/>
        <pt x="1301" y="391" on="0"/>
        <pt x="1367" y="588" on="0"/>
        <pt x="1367" y="692" on="1"/>
        <pt x="1367" y="815" on="0"/>
        <pt x="1287" y="1018" on="0"/>
        <pt x="1145" y="1163" on="0"/>
        <pt x="950" y="1244" on="0"/>
      </contour>
      <contour>
        <pt x="835" y="-22" on="1"/>
        <pt x="669" y="-22" on="0"/>
        <pt x="402" y="87" on="0"/>
        <pt x="214" y="278" on="0"/>
        <pt x="113" y="539" on="0"/>
        <pt x="113" y="691" on="1"/>
        <pt x="113" y="834" on="0"/>
        <pt x="209" y="1095" on="0"/>
        <pt x="393" y="1294" on="0"/>
        <pt x="662" y="1412" on="0"/>
        <pt x="835" y="1412" on="1"/>
        <pt x="1007" y="1412" on="0"/>
        <pt x="1276" y="1295" on="0"/>
        <pt x="1460" y="1097" on="0"/>
        <pt x="1556" y="836" on="0"/>
        <pt x="1556" y="691" on="1"/>
        <pt x="1556" y="402" on="0"/>
        <pt x="1376" y="200" on="1"/>
        <pt x="1178" y="-22" on="0"/>
      </contour>
      <contour>
        <pt x="885" y="464" on="1"/>
        <pt x="925" y="464" on="0"/>
        <pt x="994" y="474" on="0"/>
        <pt x="1057" y="495" on="0"/>
        <pt x="1119" y="525" on="0"/>
        <pt x="1154" y="546" on="1"/>
        <pt x="1165" y="434" on="1"/>
        <pt x="1111" y="394" on="0"/>
        <pt x="957" y="346" on="0"/>
        <pt x="869" y="346" on="1"/>
        <pt x="775" y="346" on="0"/>
        <pt x="621" y="393" on="0"/>
        <pt x="511" y="484" on="0"/>
        <pt x="450" y="616" on="0"/>
        <pt x="450" y="701" on="1"/>
        <pt x="450" y="797" on="0"/>
        <pt x="523" y="934" on="0"/>
        <pt x="643" y="1023" on="0"/>
        <pt x="797" y="1064" on="0"/>
        <pt x="878" y="1064" on="1"/>
        <pt x="969" y="1064" on="0"/>
        <pt x="1122" y="1014" on="0"/>
        <pt x="1171" y="971" on="1"/>
        <pt x="1159" y="832" on="1"/>
        <pt x="969" y="832" on="1"/>
        <pt x="939" y="895" on="0"/>
        <pt x="889" y="945" on="0"/>
        <pt x="866" y="945" on="1"/>
        <pt x="831" y="945" on="0"/>
        <pt x="786" y="904" on="0"/>
        <pt x="759" y="839" on="0"/>
        <pt x="748" y="760" on="0"/>
        <pt x="748" y="722" on="1"/>
        <pt x="748" y="595" on="0"/>
        <pt x="816" y="464" on="0"/>
      </contour>
    </TTGlyph>
    <TTGlyph name="currency" xMin="133" yMin="240" xMax="1118" yMax="1224">
      <contour>
        <pt x="989" y="1002" on="1"/>
        <pt x="1079" y="885" on="0"/>
        <pt x="1079" y="730" on="1"/>
        <pt x="1079" y="574" on="0"/>
        <pt x="988" y="462" on="1"/>
        <pt x="1118" y="330" on="1"/>
        <pt x="1110" y="322" on="1"/>
        <pt x="1090" y="302" on="0"/>
        <pt x="1045" y="261" on="0"/>
        <pt x="1024" y="252" on="1"/>
        <pt x="1011" y="257" on="0"/>
        <pt x="979" y="284" on="0"/>
        <pt x="945" y="318" on="0"/>
        <pt x="912" y="354" on="0"/>
        <pt x="897" y="369" on="1"/>
        <pt x="839" y="327" on="0"/>
        <pt x="699" y="279" on="0"/>
        <pt x="624" y="279" on="1"/>
        <pt x="549" y="279" on="0"/>
        <pt x="414" y="326" on="0"/>
        <pt x="357" y="369" on="1"/>
        <pt x="226" y="240" on="1"/>
        <pt x="204" y="261" on="0"/>
        <pt x="157" y="308" on="0"/>
        <pt x="146" y="328" on="1"/>
        <pt x="159" y="356" on="0"/>
        <pt x="184" y="381" on="1"/>
        <pt x="266" y="462" on="1"/>
        <pt x="176" y="576" on="0"/>
        <pt x="176" y="731" on="1"/>
        <pt x="176" y="886" on="0"/>
        <pt x="266" y="1000" on="1"/>
        <pt x="133" y="1131" on="1"/>
        <pt x="156" y="1152" on="0"/>
        <pt x="203" y="1200" on="0"/>
        <pt x="226" y="1210" on="1"/>
        <pt x="238" y="1203" on="0"/>
        <pt x="263" y="1186" on="0"/>
        <pt x="276" y="1173" on="1"/>
        <pt x="356" y="1093" on="1"/>
        <pt x="478" y="1184" on="0"/>
        <pt x="625" y="1184" on="1"/>
        <pt x="698" y="1184" on="0"/>
        <pt x="834" y="1137" on="0"/>
        <pt x="895" y="1092" on="1"/>
        <pt x="1027" y="1224" on="1"/>
        <pt x="1036" y="1215" on="1"/>
        <pt x="1060" y="1192" on="0"/>
        <pt x="1097" y="1147" on="0"/>
        <pt x="1097" y="1121" on="1"/>
        <pt x="1097" y="1110" on="0"/>
        <pt x="1096" y="1108" on="1"/>
      </contour>
      <contour>
        <pt x="308" y="731" on="1"/>
        <pt x="308" y="660" on="0"/>
        <pt x="358" y="542" on="0"/>
        <pt x="445" y="456" on="0"/>
        <pt x="561" y="408" on="0"/>
        <pt x="627" y="408" on="1"/>
        <pt x="695" y="408" on="0"/>
        <pt x="812" y="458" on="0"/>
        <pt x="898" y="545" on="0"/>
        <pt x="947" y="663" on="0"/>
        <pt x="947" y="731" on="1"/>
        <pt x="947" y="800" on="0"/>
        <pt x="898" y="918" on="0"/>
        <pt x="812" y="1005" on="0"/>
        <pt x="695" y="1055" on="0"/>
        <pt x="627" y="1055" on="1"/>
        <pt x="559" y="1055" on="0"/>
        <pt x="443" y="1006" on="0"/>
        <pt x="357" y="919" on="0"/>
        <pt x="308" y="800" on="0"/>
      </contour>
    </TTGlyph>
    <TTGlyph name="d" xMin="94" yMin="-22" xMax="1399" yMax="1412">
      <contour>
        <pt x="635" y="1364" on="1"/>
        <pt x="831" y="1412" on="0"/>
        <pt x="1035" y="1412" on="1"/>
        <pt x="1095" y="1412" on="1"/>
        <pt x="1137" y="1412" on="0"/>
        <pt x="1188" y="1403" on="0"/>
        <pt x="1217" y="1379" on="0"/>
        <pt x="1227" y="1334" on="0"/>
        <pt x="1227" y="1298" on="1"/>
        <pt x="1227" y="244" on="1"/>
        <pt x="1227" y="175" on="0"/>
        <pt x="1233" y="147" on="1"/>
        <pt x="1399" y="147" on="1"/>
        <pt x="1399" y="35" on="1"/>
        <pt x="1214" y="-11" on="0"/>
        <pt x="1052" y="-11" on="1"/>
        <pt x="1004" y="-11" on="0"/>
        <pt x="936" y="-1" on="0"/>
        <pt x="886" y="26" on="0"/>
        <pt x="853" y="70" on="0"/>
        <pt x="841" y="105" on="1"/>
        <pt x="735" y="-22" on="0"/>
        <pt x="552" y="-22" on="1"/>
        <pt x="449" y="-22" on="0"/>
        <pt x="280" y="57" on="0"/>
        <pt x="160" y="192" on="0"/>
        <pt x="94" y="372" on="0"/>
        <pt x="94" y="474" on="1"/>
        <pt x="94" y="595" on="0"/>
        <pt x="158" y="791" on="0"/>
        <pt x="279" y="930" on="0"/>
        <pt x="452" y="1005" on="0"/>
        <pt x="562" y="1005" on="1"/>
        <pt x="679" y="1005" on="0"/>
        <pt x="808" y="959" on="1"/>
        <pt x="808" y="1251" on="1"/>
        <pt x="635" y="1251" on="1"/>
      </contour>
      <contour>
        <pt x="670" y="147" on="1"/>
        <pt x="754" y="147" on="0"/>
        <pt x="812" y="226" on="1"/>
        <pt x="812" y="802" on="1"/>
        <pt x="725" y="836" on="0"/>
        <pt x="674" y="836" on="1"/>
        <pt x="624" y="836" on="0"/>
        <pt x="566" y="764" on="0"/>
        <pt x="536" y="657" on="0"/>
        <pt x="528" y="535" on="0"/>
        <pt x="528" y="484" on="1"/>
        <pt x="528" y="147" on="0"/>
      </contour>
    </TTGlyph>
    <TTGlyph name="dagger" xMin="72" yMin="0" xMax="863" yMax="1371">
      <contour>
        <pt x="72" y="1064" on="1"/>
        <pt x="371" y="1064" on="1"/>
        <pt x="371" y="1371" on="1"/>
        <pt x="566" y="1371" on="1"/>
        <pt x="566" y="1064" on="1"/>
        <pt x="863" y="1064" on="1"/>
        <pt x="863" y="919" on="1"/>
        <pt x="566" y="919" on="1"/>
        <pt x="566" y="0" on="1"/>
        <pt x="371" y="0" on="1"/>
        <pt x="371" y="919" on="1"/>
        <pt x="72" y="919" on="1"/>
      </contour>
    </TTGlyph>
    <TTGlyph name="daggerdbl" xMin="72" yMin="0" xMax="863" yMax="1371">
      <contour>
        <pt x="72" y="1102" on="1"/>
        <pt x="371" y="1102" on="1"/>
        <pt x="371" y="1371" on="1"/>
        <pt x="566" y="1371" on="1"/>
        <pt x="566" y="1102" on="1"/>
        <pt x="863" y="1102" on="1"/>
        <pt x="863" y="956" on="1"/>
        <pt x="566" y="956" on="1"/>
        <pt x="566" y="416" on="1"/>
        <pt x="863" y="416" on="1"/>
        <pt x="863" y="269" on="1"/>
        <pt x="566" y="269" on="1"/>
        <pt x="566" y="0" on="1"/>
        <pt x="371" y="0" on="1"/>
        <pt x="371" y="269" on="1"/>
        <pt x="72" y="269" on="1"/>
        <pt x="72" y="416" on="1"/>
        <pt x="371" y="416" on="1"/>
        <pt x="371" y="956" on="1"/>
        <pt x="72" y="956" on="1"/>
      </contour>
    </TTGlyph>
    <TTGlyph name="degree" xMin="98" yMin="1037" xMax="506" yMax="1411">
      <contour>
        <pt x="183" y="1226" on="1"/>
        <pt x="183" y="1172" on="0"/>
        <pt x="248" y="1110" on="0"/>
        <pt x="302" y="1110" on="1"/>
        <pt x="356" y="1110" on="0"/>
        <pt x="421" y="1172" on="0"/>
        <pt x="421" y="1226" on="1"/>
        <pt x="421" y="1277" on="0"/>
        <pt x="356" y="1339" on="0"/>
        <pt x="302" y="1339" on="1"/>
        <pt x="248" y="1339" on="0"/>
        <pt x="183" y="1277" on="0"/>
      </contour>
      <contour>
        <pt x="302" y="1037" on="1"/>
        <pt x="257" y="1037" on="0"/>
        <pt x="182" y="1063" on="0"/>
        <pt x="128" y="1112" on="0"/>
        <pt x="98" y="1182" on="0"/>
        <pt x="98" y="1226" on="1"/>
        <pt x="98" y="1269" on="0"/>
        <pt x="129" y="1337" on="0"/>
        <pt x="183" y="1385" on="0"/>
        <pt x="258" y="1411" on="0"/>
        <pt x="302" y="1411" on="1"/>
        <pt x="346" y="1411" on="0"/>
        <pt x="421" y="1385" on="0"/>
        <pt x="475" y="1337" on="0"/>
        <pt x="506" y="1269" on="0"/>
        <pt x="506" y="1226" on="1"/>
        <pt x="506" y="1183" on="0"/>
        <pt x="476" y="1113" on="0"/>
        <pt x="422" y="1064" on="0"/>
        <pt x="347" y="1037" on="0"/>
      </contour>
    </TTGlyph>
    <TTGlyph name="dieresis" xMin="258" yMin="1100" xMax="1083" yMax="1412">
      <contour>
        <pt x="588" y="1257" on="1"/>
        <pt x="588" y="1185" on="0"/>
        <pt x="498" y="1100" on="0"/>
        <pt x="423" y="1100" on="1"/>
        <pt x="348" y="1100" on="0"/>
        <pt x="258" y="1184" on="0"/>
        <pt x="258" y="1257" on="1"/>
        <pt x="258" y="1291" on="0"/>
        <pt x="283" y="1349" on="0"/>
        <pt x="327" y="1389" on="0"/>
        <pt x="388" y="1412" on="0"/>
        <pt x="423" y="1412" on="1"/>
        <pt x="459" y="1412" on="0"/>
        <pt x="520" y="1389" on="0"/>
        <pt x="563" y="1349" on="0"/>
        <pt x="588" y="1291" on="0"/>
      </contour>
      <contour>
        <pt x="1083" y="1257" on="1"/>
        <pt x="1083" y="1184" on="0"/>
        <pt x="993" y="1100" on="0"/>
        <pt x="918" y="1100" on="1"/>
        <pt x="843" y="1100" on="0"/>
        <pt x="753" y="1184" on="0"/>
        <pt x="753" y="1257" on="1"/>
        <pt x="753" y="1291" on="0"/>
        <pt x="778" y="1349" on="0"/>
        <pt x="822" y="1389" on="0"/>
        <pt x="883" y="1412" on="0"/>
        <pt x="918" y="1412" on="1"/>
        <pt x="954" y="1412" on="0"/>
        <pt x="1015" y="1389" on="0"/>
        <pt x="1058" y="1349" on="0"/>
        <pt x="1083" y="1291" on="0"/>
      </contour>
    </TTGlyph>
    <TTGlyph name="divide" xMin="133" yMin="0" xMax="925" yMax="1006">
      <contour>
        <pt x="687" y="859" on="1"/>
        <pt x="687" y="790" on="0"/>
        <pt x="603" y="709" on="0"/>
        <pt x="531" y="709" on="1"/>
        <pt x="459" y="709" on="0"/>
        <pt x="375" y="790" on="0"/>
        <pt x="375" y="859" on="1"/>
        <pt x="375" y="892" on="0"/>
        <pt x="398" y="946" on="0"/>
        <pt x="440" y="985" on="0"/>
        <pt x="497" y="1006" on="0"/>
        <pt x="531" y="1006" on="1"/>
        <pt x="565" y="1006" on="0"/>
        <pt x="622" y="985" on="0"/>
        <pt x="664" y="946" on="0"/>
        <pt x="687" y="892" on="0"/>
      </contour>
      <contour>
        <pt x="683" y="149" on="1"/>
        <pt x="683" y="80" on="0"/>
        <pt x="599" y="0" on="0"/>
        <pt x="527" y="0" on="1"/>
        <pt x="455" y="0" on="0"/>
        <pt x="371" y="80" on="0"/>
        <pt x="371" y="149" on="1"/>
        <pt x="371" y="182" on="0"/>
        <pt x="394" y="236" on="0"/>
        <pt x="436" y="275" on="0"/>
        <pt x="493" y="296" on="0"/>
        <pt x="527" y="296" on="1"/>
        <pt x="561" y="296" on="0"/>
        <pt x="618" y="275" on="0"/>
        <pt x="660" y="236" on="0"/>
        <pt x="683" y="182" on="0"/>
      </contour>
      <contour>
        <pt x="925" y="515" on="1"/>
        <pt x="925" y="473" on="0"/>
        <pt x="886" y="415" on="0"/>
        <pt x="849" y="415" on="1"/>
        <pt x="133" y="415" on="1"/>
        <pt x="133" y="506" on="1"/>
        <pt x="133" y="532" on="0"/>
        <pt x="144" y="565" on="0"/>
        <pt x="170" y="583" on="0"/>
        <pt x="210" y="590" on="0"/>
        <pt x="240" y="590" on="1"/>
        <pt x="925" y="590" on="1"/>
      </contour>
    </TTGlyph>
    <TTGlyph name="dollar" xMin="100" yMin="-186" xMax="1273" yMax="1534">
      <contour>
        <pt x="648" y="1534" on="1"/>
        <pt x="703" y="1534" on="0"/>
        <pt x="751" y="1503" on="0"/>
        <pt x="751" y="1458" on="1"/>
        <pt x="751" y="1412" on="1"/>
        <pt x="830" y="1412" on="0"/>
        <pt x="976" y="1394" on="0"/>
        <pt x="1096" y="1361" on="0"/>
        <pt x="1186" y="1313" on="0"/>
        <pt x="1211" y="1283" on="1"/>
        <pt x="1212" y="1282" on="0"/>
        <pt x="1212" y="1278" on="1"/>
        <pt x="1212" y="1272" on="0"/>
        <pt x="1206" y="1239" on="0"/>
        <pt x="1192" y="1177" on="0"/>
        <pt x="1168" y="1080" on="0"/>
        <pt x="1149" y="1010" on="1"/>
        <pt x="846" y="1082" on="1"/>
        <pt x="822" y="1120" on="0"/>
        <pt x="774" y="1191" on="0"/>
        <pt x="751" y="1208" on="1"/>
        <pt x="751" y="842" on="1"/>
        <pt x="807" y="819" on="0"/>
        <pt x="902" y="781" on="0"/>
        <pt x="990" y="740" on="0"/>
        <pt x="1076" y="691" on="0"/>
        <pt x="1123" y="658" on="1"/>
        <pt x="1152" y="635" on="0"/>
        <pt x="1206" y="585" on="0"/>
        <pt x="1248" y="523" on="0"/>
        <pt x="1273" y="447" on="0"/>
        <pt x="1273" y="398" on="1"/>
        <pt x="1273" y="308" on="0"/>
        <pt x="1199" y="160" on="0"/>
        <pt x="1063" y="52" on="0"/>
        <pt x="870" y="-13" on="0"/>
        <pt x="751" y="-20" on="1"/>
        <pt x="751" y="-186" on="1"/>
        <pt x="719" y="-186" on="0"/>
        <pt x="678" y="-178" on="0"/>
        <pt x="656" y="-157" on="0"/>
        <pt x="648" y="-118" on="0"/>
        <pt x="648" y="-86" on="1"/>
        <pt x="648" y="-21" on="1"/>
        <pt x="352" y="-13" on="0"/>
        <pt x="146" y="130" on="1"/>
        <pt x="130" y="141" on="0"/>
        <pt x="107" y="163" on="0"/>
        <pt x="100" y="174" on="1"/>
        <pt x="100" y="211" on="0"/>
        <pt x="107" y="240" on="1"/>
        <pt x="195" y="466" on="1"/>
        <pt x="498" y="346" on="1"/>
        <pt x="534" y="263" on="0"/>
        <pt x="605" y="178" on="0"/>
        <pt x="648" y="162" on="1"/>
        <pt x="648" y="587" on="1"/>
        <pt x="620" y="602" on="0"/>
        <pt x="558" y="629" on="0"/>
        <pt x="495" y="655" on="0"/>
        <pt x="434" y="681" on="0"/>
        <pt x="407" y="694" on="1"/>
        <pt x="353" y="720" on="0"/>
        <pt x="252" y="785" on="0"/>
        <pt x="174" y="867" on="0"/>
        <pt x="126" y="969" on="0"/>
        <pt x="126" y="1032" on="1"/>
        <pt x="126" y="1112" on="0"/>
        <pt x="200" y="1243" on="0"/>
        <pt x="337" y="1341" on="0"/>
        <pt x="529" y="1400" on="0"/>
        <pt x="648" y="1408" on="1"/>
      </contour>
      <contour>
        <pt x="648" y="1237" on="1"/>
        <pt x="624" y="1231" on="0"/>
        <pt x="589" y="1199" on="0"/>
        <pt x="566" y="1154" on="0"/>
        <pt x="555" y="1099" on="0"/>
        <pt x="555" y="1069" on="1"/>
        <pt x="555" y="952" on="0"/>
        <pt x="648" y="891" on="1"/>
      </contour>
      <contour>
        <pt x="751" y="163" on="1"/>
        <pt x="793" y="182" on="0"/>
        <pt x="838" y="281" on="0"/>
        <pt x="838" y="342" on="1"/>
        <pt x="838" y="455" on="0"/>
        <pt x="751" y="526" on="1"/>
      </contour>
    </TTGlyph>
    <TTGlyph name="dotaccent" xMin="188" yMin="1130" xMax="588" yMax="1509">
      <contour>
        <pt x="588" y="1321" on="1"/>
        <pt x="588" y="1277" on="0"/>
        <pt x="560" y="1206" on="0"/>
        <pt x="507" y="1157" on="0"/>
        <pt x="433" y="1130" on="0"/>
        <pt x="388" y="1130" on="1"/>
        <pt x="343" y="1130" on="0"/>
        <pt x="269" y="1157" on="0"/>
        <pt x="216" y="1206" on="0"/>
        <pt x="188" y="1277" on="0"/>
        <pt x="188" y="1321" on="1"/>
        <pt x="188" y="1363" on="0"/>
        <pt x="218" y="1433" on="0"/>
        <pt x="272" y="1482" on="0"/>
        <pt x="345" y="1509" on="0"/>
        <pt x="388" y="1509" on="1"/>
        <pt x="431" y="1509" on="0"/>
        <pt x="505" y="1480" on="0"/>
        <pt x="558" y="1430" on="0"/>
        <pt x="588" y="1361" on="0"/>
      </contour>
    </TTGlyph>
    <TTGlyph name="dotaccentcmb" xMin="188" yMin="1130" xMax="588" yMax="1509">
      <contour>
        <pt x="588" y="1321" on="1"/>
        <pt x="588" y="1277" on="0"/>
        <pt x="560" y="1206" on="0"/>
        <pt x="507" y="1157" on="0"/>
        <pt x="433" y="1130" on="0"/>
        <pt x="388" y="1130" on="1"/>
        <pt x="343" y="1130" on="0"/>
        <pt x="269" y="1157" on="0"/>
        <pt x="216" y="1206" on="0"/>
        <pt x="188" y="1277" on="0"/>
        <pt x="188" y="1321" on="1"/>
        <pt x="188" y="1363" on="0"/>
        <pt x="218" y="1433" on="0"/>
        <pt x="272" y="1482" on="0"/>
        <pt x="345" y="1509" on="0"/>
        <pt x="388" y="1509" on="1"/>
        <pt x="431" y="1509" on="0"/>
        <pt x="505" y="1480" on="0"/>
        <pt x="558" y="1430" on="0"/>
        <pt x="588" y="1361" on="0"/>
      </contour>
    </TTGlyph>
    <TTGlyph name="dotlessi" xMin="35" yMin="-11" xMax="781" yMax="994">
      <contour>
        <pt x="35" y="950" on="1"/>
        <pt x="237" y="994" on="0"/>
        <pt x="402" y="994" on="1"/>
        <pt x="508" y="994" on="0"/>
        <pt x="626" y="947" on="0"/>
        <pt x="626" y="899" on="1"/>
        <pt x="626" y="239" on="1"/>
        <pt x="626" y="184" on="0"/>
        <pt x="635" y="147" on="1"/>
        <pt x="768" y="147" on="1"/>
        <pt x="781" y="33" on="1"/>
        <pt x="588" y="-11" on="0"/>
        <pt x="427" y="-11" on="1"/>
        <pt x="321" y="-11" on="0"/>
        <pt x="201" y="41" on="0"/>
        <pt x="201" y="95" on="1"/>
        <pt x="201" y="109" on="0"/>
        <pt x="203" y="160" on="0"/>
        <pt x="205" y="216" on="0"/>
        <pt x="207" y="268" on="0"/>
        <pt x="207" y="284" on="1"/>
        <pt x="207" y="824" on="1"/>
        <pt x="35" y="824" on="1"/>
      </contour>
    </TTGlyph>
    <TTGlyph name="e" xMin="96" yMin="-22" xMax="1169" yMax="1005">
      <contour>
        <pt x="778" y="590" on="1"/>
        <pt x="778" y="608" on="1"/>
        <pt x="778" y="659" on="0"/>
        <pt x="762" y="746" on="0"/>
        <pt x="732" y="809" on="0"/>
        <pt x="687" y="845" on="0"/>
        <pt x="659" y="845" on="1"/>
        <pt x="548" y="845" on="0"/>
        <pt x="524" y="590" on="1"/>
      </contour>
      <contour>
        <pt x="821" y="169" on="1"/>
        <pt x="946" y="169" on="0"/>
        <pt x="1101" y="245" on="1"/>
        <pt x="1119" y="95" on="1"/>
        <pt x="955" y="-22" on="0"/>
        <pt x="695" y="-22" on="1"/>
        <pt x="557" y="-22" on="0"/>
        <pt x="336" y="47" on="0"/>
        <pt x="180" y="180" on="0"/>
        <pt x="96" y="374" on="0"/>
        <pt x="96" y="499" on="1"/>
        <pt x="96" y="610" on="0"/>
        <pt x="182" y="796" on="0"/>
        <pt x="340" y="930" on="0"/>
        <pt x="562" y="1005" on="0"/>
        <pt x="699" y="1005" on="1"/>
        <pt x="802" y="1005" on="0"/>
        <pt x="974" y="951" on="0"/>
        <pt x="1099" y="851" on="0"/>
        <pt x="1169" y="706" on="0"/>
        <pt x="1169" y="615" on="1"/>
        <pt x="1169" y="561" on="0"/>
        <pt x="1144" y="493" on="0"/>
        <pt x="1088" y="455" on="0"/>
        <pt x="1001" y="442" on="0"/>
        <pt x="938" y="442" on="1"/>
        <pt x="525" y="442" on="1"/>
        <pt x="548" y="316" on="0"/>
        <pt x="694" y="169" on="0"/>
      </contour>
    </TTGlyph>
    <TTGlyph name="eacute" xMin="96" yMin="-22" xMax="1169" yMax="1496">
      <component glyphName="acute" x="252" y="14" flags="0x1004"/>
      <component glyphName="e" x="0" y="0" flags="0x1204"/>
    </TTGlyph>
    <TTGlyph name="ecircumflex" xMin="96" yMin="-22" xMax="1169" yMax="1476">
      <component glyphName="circumflex" x="110" y="-19" flags="0x1004"/>
      <component glyphName="e" x="0" y="0" flags="0x1204"/>
    </TTGlyph>
    <TTGlyph name="edieresis" xMin="96" yMin="-22" xMax="1169" yMax="1439">
      <component glyphName="dieresis" x="28" y="27" flags="0x1004"/>
      <component glyphName="e" x="0" y="0" flags="0x1204"/>
    </TTGlyph>
    <TTGlyph name="egrave" xMin="96" yMin="-22" xMax="1169" yMax="1497">
      <component glyphName="grave" x="-36" y="15" flags="0x1004"/>
      <component glyphName="e" x="0" y="0" flags="0x1204"/>
    </TTGlyph>
    <TTGlyph name="eight" xMin="61" yMin="-22" xMax="1181" yMax="1412">
      <contour>
        <pt x="1136" y="1045" on="1"/>
        <pt x="1136" y="957" on="0"/>
        <pt x="1017" y="795" on="0"/>
        <pt x="892" y="712" on="1"/>
        <pt x="946" y="691" on="0"/>
        <pt x="1050" y="625" on="0"/>
        <pt x="1131" y="538" on="0"/>
        <pt x="1181" y="433" on="0"/>
        <pt x="1181" y="374" on="1"/>
        <pt x="1181" y="269" on="0"/>
        <pt x="1092" y="119" on="0"/>
        <pt x="937" y="23" on="0"/>
        <pt x="729" y="-22" on="0"/>
        <pt x="611" y="-22" on="1"/>
        <pt x="497" y="-22" on="0"/>
        <pt x="297" y="23" on="0"/>
        <pt x="147" y="113" on="0"/>
        <pt x="61" y="246" on="0"/>
        <pt x="61" y="333" on="1"/>
        <pt x="61" y="442" on="0"/>
        <pt x="191" y="632" on="0"/>
        <pt x="334" y="707" on="1"/>
        <pt x="283" y="734" on="0"/>
        <pt x="192" y="798" on="0"/>
        <pt x="122" y="879" on="0"/>
        <pt x="81" y="982" on="0"/>
        <pt x="81" y="1048" on="1"/>
        <pt x="81" y="1126" on="0"/>
        <pt x="157" y="1260" on="0"/>
        <pt x="296" y="1357" on="0"/>
        <pt x="491" y="1412" on="0"/>
        <pt x="611" y="1412" on="1"/>
        <pt x="721" y="1412" on="0"/>
        <pt x="913" y="1362" on="0"/>
        <pt x="1055" y="1268" on="0"/>
        <pt x="1136" y="1132" on="0"/>
      </contour>
      <contour>
        <pt x="611" y="167" on="1"/>
        <pt x="687" y="167" on="0"/>
        <pt x="766" y="269" on="0"/>
        <pt x="766" y="354" on="1"/>
        <pt x="766" y="457" on="0"/>
        <pt x="661" y="585" on="0"/>
        <pt x="573" y="608" on="1"/>
        <pt x="464" y="532" on="0"/>
        <pt x="464" y="362" on="1"/>
        <pt x="464" y="275" on="0"/>
        <pt x="539" y="167" on="0"/>
      </contour>
      <contour>
        <pt x="643" y="807" on="1"/>
        <pt x="734" y="862" on="0"/>
        <pt x="734" y="1037" on="1"/>
        <pt x="734" y="1077" on="0"/>
        <pt x="719" y="1146" on="0"/>
        <pt x="688" y="1196" on="0"/>
        <pt x="642" y="1224" on="0"/>
        <pt x="611" y="1224" on="1"/>
        <pt x="579" y="1224" on="0"/>
        <pt x="533" y="1196" on="0"/>
        <pt x="503" y="1147" on="0"/>
        <pt x="488" y="1078" on="0"/>
        <pt x="488" y="1037" on="1"/>
        <pt x="488" y="872" on="0"/>
      </contour>
    </TTGlyph>
    <TTGlyph name="ellipsis" xMin="143" yMin="-22" xMax="1803" yMax="357">
      <contour>
        <pt x="543" y="169" on="1"/>
        <pt x="543" y="125" on="0"/>
        <pt x="515" y="54" on="0"/>
        <pt x="462" y="5" on="0"/>
        <pt x="388" y="-22" on="0"/>
        <pt x="343" y="-22" on="1"/>
        <pt x="298" y="-22" on="0"/>
        <pt x="224" y="5" on="0"/>
        <pt x="171" y="54" on="0"/>
        <pt x="143" y="125" on="0"/>
        <pt x="143" y="169" on="1"/>
        <pt x="143" y="211" on="0"/>
        <pt x="173" y="281" on="0"/>
        <pt x="227" y="330" on="0"/>
        <pt x="300" y="357" on="0"/>
        <pt x="343" y="357" on="1"/>
        <pt x="386" y="357" on="0"/>
        <pt x="460" y="328" on="0"/>
        <pt x="513" y="278" on="0"/>
        <pt x="543" y="209" on="0"/>
      </contour>
      <contour>
        <pt x="1173" y="169" on="1"/>
        <pt x="1173" y="125" on="0"/>
        <pt x="1145" y="54" on="0"/>
        <pt x="1092" y="5" on="0"/>
        <pt x="1018" y="-22" on="0"/>
        <pt x="973" y="-22" on="1"/>
        <pt x="928" y="-22" on="0"/>
        <pt x="854" y="5" on="0"/>
        <pt x="801" y="54" on="0"/>
        <pt x="773" y="125" on="0"/>
        <pt x="773" y="169" on="1"/>
        <pt x="773" y="211" on="0"/>
        <pt x="803" y="281" on="0"/>
        <pt x="857" y="330" on="0"/>
        <pt x="930" y="357" on="0"/>
        <pt x="973" y="357" on="1"/>
        <pt x="1016" y="357" on="0"/>
        <pt x="1090" y="328" on="0"/>
        <pt x="1143" y="278" on="0"/>
        <pt x="1173" y="209" on="0"/>
      </contour>
      <contour>
        <pt x="1803" y="169" on="1"/>
        <pt x="1803" y="125" on="0"/>
        <pt x="1775" y="54" on="0"/>
        <pt x="1722" y="5" on="0"/>
        <pt x="1648" y="-22" on="0"/>
        <pt x="1603" y="-22" on="1"/>
        <pt x="1558" y="-22" on="0"/>
        <pt x="1484" y="5" on="0"/>
        <pt x="1431" y="54" on="0"/>
        <pt x="1403" y="125" on="0"/>
        <pt x="1403" y="169" on="1"/>
        <pt x="1403" y="211" on="0"/>
        <pt x="1433" y="281" on="0"/>
        <pt x="1487" y="330" on="0"/>
        <pt x="1560" y="357" on="0"/>
        <pt x="1603" y="357" on="1"/>
        <pt x="1649" y="357" on="0"/>
        <pt x="1724" y="327" on="0"/>
        <pt x="1775" y="275" on="0"/>
        <pt x="1803" y="207" on="0"/>
      </contour>
    </TTGlyph>
    <TTGlyph name="emdash" xMin="-10" yMin="471" xMax="1826" yMax="646">
      <contour>
        <pt x="1826" y="563" on="1"/>
        <pt x="1826" y="517" on="0"/>
        <pt x="1754" y="471" on="0"/>
        <pt x="1697" y="471" on="1"/>
        <pt x="-10" y="471" on="1"/>
        <pt x="-10" y="555" on="1"/>
        <pt x="-10" y="585" on="0"/>
        <pt x="12" y="621" on="0"/>
        <pt x="59" y="640" on="0"/>
        <pt x="130" y="646" on="0"/>
        <pt x="178" y="646" on="1"/>
        <pt x="1826" y="646" on="1"/>
      </contour>
    </TTGlyph>
    <TTGlyph name="endash" xMin="-10" yMin="471" xMax="1131" yMax="646">
      <contour>
        <pt x="1131" y="563" on="1"/>
        <pt x="1131" y="520" on="0"/>
        <pt x="1077" y="471" on="0"/>
        <pt x="1031" y="471" on="1"/>
        <pt x="-10" y="471" on="1"/>
        <pt x="-10" y="555" on="1"/>
        <pt x="-10" y="585" on="0"/>
        <pt x="12" y="621" on="0"/>
        <pt x="59" y="640" on="0"/>
        <pt x="130" y="646" on="0"/>
        <pt x="178" y="646" on="1"/>
        <pt x="1131" y="646" on="1"/>
      </contour>
    </TTGlyph>
    <TTGlyph name="equal" xMin="129" yMin="301" xMax="1282" yMax="852">
      <contour>
        <pt x="1282" y="764" on="1"/>
        <pt x="1282" y="743" on="0"/>
        <pt x="1262" y="713" on="0"/>
        <pt x="1229" y="690" on="0"/>
        <pt x="1184" y="673" on="0"/>
        <pt x="1159" y="665" on="1"/>
        <pt x="129" y="665" on="1"/>
        <pt x="129" y="755" on="1"/>
        <pt x="129" y="787" on="0"/>
        <pt x="151" y="825" on="0"/>
        <pt x="190" y="846" on="0"/>
        <pt x="243" y="852" on="0"/>
        <pt x="275" y="852" on="1"/>
        <pt x="1282" y="852" on="1"/>
      </contour>
      <contour>
        <pt x="129" y="301" on="1"/>
        <pt x="129" y="390" on="1"/>
        <pt x="129" y="424" on="0"/>
        <pt x="147" y="464" on="0"/>
        <pt x="190" y="483" on="0"/>
        <pt x="261" y="488" on="0"/>
        <pt x="314" y="488" on="1"/>
        <pt x="1282" y="488" on="1"/>
        <pt x="1282" y="399" on="1"/>
        <pt x="1282" y="366" on="0"/>
        <pt x="1221" y="321" on="0"/>
        <pt x="1155" y="301" on="1"/>
      </contour>
    </TTGlyph>
    <TTGlyph name="estimated" xMin="102" yMin="-29" xMax="1791" yMax="1341">
      <contour>
        <pt x="947" y="64" on="1"/>
        <pt x="1005" y="64" on="0"/>
        <pt x="1111" y="97" on="0"/>
        <pt x="1209" y="155" on="0"/>
        <pt x="1298" y="235" on="0"/>
        <pt x="1339" y="283" on="1"/>
        <pt x="1650" y="283" on="1"/>
        <pt x="1589" y="211" on="0"/>
        <pt x="1436" y="95" on="0"/>
        <pt x="1257" y="14" on="0"/>
        <pt x="1055" y="-29" on="0"/>
        <pt x="946" y="-29" on="1"/>
        <pt x="839" y="-29" on="0"/>
        <pt x="632" y="15" on="0"/>
        <pt x="444" y="99" on="0"/>
        <pt x="284" y="219" on="0"/>
        <pt x="168" y="371" on="0"/>
        <pt x="102" y="552" on="0"/>
        <pt x="102" y="655" on="1"/>
        <pt x="102" y="761" on="0"/>
        <pt x="171" y="946" on="0"/>
        <pt x="292" y="1098" on="0"/>
        <pt x="455" y="1217" on="0"/>
        <pt x="642" y="1299" on="0"/>
        <pt x="846" y="1341" on="0"/>
        <pt x="946" y="1341" on="1"/>
        <pt x="1067" y="1341" on="0"/>
        <pt x="1286" y="1290" on="0"/>
        <pt x="1474" y="1199" on="0"/>
        <pt x="1626" y="1073" on="0"/>
        <pt x="1733" y="920" on="0"/>
        <pt x="1791" y="747" on="0"/>
        <pt x="1791" y="655" on="1"/>
        <pt x="1791" y="609" on="1"/>
        <pt x="595" y="609" on="1"/>
        <pt x="595" y="234" on="1"/>
        <pt x="770" y="64" on="0"/>
      </contour>
      <contour>
        <pt x="1295" y="701" on="1"/>
        <pt x="1295" y="1083" on="1"/>
        <pt x="1120" y="1246" on="0"/>
        <pt x="947" y="1246" on="1"/>
        <pt x="771" y="1246" on="0"/>
        <pt x="595" y="1076" on="1"/>
        <pt x="595" y="701" on="1"/>
      </contour>
    </TTGlyph>
    <TTGlyph name="eth" xMin="76" yMin="-26" xMax="1234" yMax="1555">
      <contour>
        <pt x="521" y="1268" on="1"/>
        <pt x="401" y="1327" on="0"/>
        <pt x="239" y="1351" on="1"/>
        <pt x="314" y="1481" on="1"/>
        <pt x="611" y="1457" on="0"/>
        <pt x="746" y="1400" on="1"/>
        <pt x="1007" y="1555" on="1"/>
        <pt x="1132" y="1406" on="1"/>
        <pt x="1067" y="1370" on="0"/>
        <pt x="964" y="1309" on="0"/>
        <pt x="931" y="1291" on="1"/>
        <pt x="1234" y="1036" on="0"/>
        <pt x="1234" y="600" on="1"/>
        <pt x="1234" y="455" on="0"/>
        <pt x="1155" y="223" on="0"/>
        <pt x="1005" y="61" on="0"/>
        <pt x="787" y="-26" on="0"/>
        <pt x="649" y="-26" on="1"/>
        <pt x="520" y="-26" on="0"/>
        <pt x="309" y="46" on="0"/>
        <pt x="159" y="179" on="0"/>
        <pt x="76" y="369" on="0"/>
        <pt x="76" y="487" on="1"/>
        <pt x="76" y="573" on="0"/>
        <pt x="121" y="714" on="0"/>
        <pt x="201" y="824" on="0"/>
        <pt x="309" y="904" on="0"/>
        <pt x="437" y="957" on="0"/>
        <pt x="577" y="982" on="0"/>
        <pt x="649" y="982" on="1"/>
        <pt x="684" y="982" on="0"/>
        <pt x="743" y="979" on="0"/>
        <pt x="766" y="975" on="1"/>
        <pt x="728" y="1085" on="0"/>
        <pt x="681" y="1141" on="1"/>
        <pt x="442" y="1001" on="1"/>
        <pt x="322" y="1154" on="1"/>
      </contour>
      <contour>
        <pt x="669" y="131" on="1"/>
        <pt x="704" y="131" on="0"/>
        <pt x="756" y="187" on="0"/>
        <pt x="791" y="291" on="0"/>
        <pt x="808" y="438" on="0"/>
        <pt x="808" y="530" on="1"/>
        <pt x="808" y="595" on="0"/>
        <pt x="804" y="705" on="0"/>
        <pt x="796" y="753" on="1"/>
        <pt x="771" y="796" on="0"/>
        <pt x="689" y="829" on="0"/>
        <pt x="649" y="829" on="1"/>
        <pt x="580" y="829" on="0"/>
        <pt x="510" y="656" on="0"/>
        <pt x="510" y="489" on="1"/>
        <pt x="510" y="395" on="0"/>
        <pt x="525" y="259" on="0"/>
        <pt x="562" y="172" on="0"/>
        <pt x="623" y="131" on="0"/>
      </contour>
    </TTGlyph>
    <TTGlyph name="exclam" xMin="207" yMin="-22" xMax="660" yMax="1412">
      <contour>
        <pt x="446" y="1412" on="1"/>
        <pt x="489" y="1412" on="0"/>
        <pt x="567" y="1408" on="0"/>
        <pt x="625" y="1386" on="0"/>
        <pt x="660" y="1339" on="0"/>
        <pt x="660" y="1296" on="1"/>
        <pt x="660" y="1289" on="0"/>
        <pt x="660" y="1273" on="0"/>
        <pt x="659" y="1265" on="1"/>
        <pt x="622" y="975" on="0"/>
        <pt x="572" y="580" on="0"/>
        <pt x="559" y="470" on="1"/>
        <pt x="542" y="460" on="0"/>
        <pt x="494" y="448" on="0"/>
        <pt x="472" y="448" on="1"/>
        <pt x="428" y="448" on="0"/>
        <pt x="370" y="454" on="0"/>
        <pt x="334" y="475" on="0"/>
        <pt x="316" y="514" on="0"/>
        <pt x="313" y="547" on="1"/>
        <pt x="296" y="704" on="0"/>
        <pt x="258" y="952" on="0"/>
        <pt x="227" y="1136" on="0"/>
        <pt x="207" y="1262" on="0"/>
        <pt x="207" y="1298" on="1"/>
        <pt x="207" y="1340" on="0"/>
        <pt x="261" y="1387" on="0"/>
        <pt x="336" y="1408" on="0"/>
        <pt x="418" y="1412" on="0"/>
      </contour>
      <contour>
        <pt x="651" y="169" on="1"/>
        <pt x="651" y="125" on="0"/>
        <pt x="623" y="54" on="0"/>
        <pt x="570" y="5" on="0"/>
        <pt x="496" y="-22" on="0"/>
        <pt x="451" y="-22" on="1"/>
        <pt x="406" y="-22" on="0"/>
        <pt x="332" y="5" on="0"/>
        <pt x="279" y="54" on="0"/>
        <pt x="251" y="125" on="0"/>
        <pt x="251" y="169" on="1"/>
        <pt x="251" y="211" on="0"/>
        <pt x="281" y="281" on="0"/>
        <pt x="335" y="330" on="0"/>
        <pt x="408" y="357" on="0"/>
        <pt x="451" y="357" on="1"/>
        <pt x="494" y="357" on="0"/>
        <pt x="568" y="328" on="0"/>
        <pt x="621" y="278" on="0"/>
        <pt x="651" y="209" on="0"/>
      </contour>
    </TTGlyph>
    <TTGlyph name="exclamdown" xMin="207" yMin="-22" xMax="660" yMax="1412">
      <component glyphName="exclam" x="0" y="1390" scalex="1.0" scaley="-0.999938964844" flags="0x1000"/>
    </TTGlyph>
    <TTGlyph name="f" xMin="39" yMin="-11" xMax="1057" yMax="1412">
      <contour>
        <pt x="446" y="0" on="1"/>
        <pt x="371" y="0" on="0"/>
        <pt x="204" y="-6" on="0"/>
        <pt x="107" y="-11" on="1"/>
        <pt x="113" y="121" on="1"/>
        <pt x="137" y="124" on="1"/>
        <pt x="172" y="128" on="0"/>
        <pt x="214" y="139" on="0"/>
        <pt x="237" y="160" on="0"/>
        <pt x="244" y="195" on="0"/>
        <pt x="244" y="224" on="1"/>
        <pt x="244" y="824" on="1"/>
        <pt x="39" y="824" on="1"/>
        <pt x="39" y="898" on="1"/>
        <pt x="39" y="927" on="0"/>
        <pt x="68" y="961" on="0"/>
        <pt x="111" y="978" on="0"/>
        <pt x="163" y="983" on="0"/>
        <pt x="186" y="983" on="1"/>
        <pt x="244" y="983" on="1"/>
        <pt x="244" y="1047" on="1"/>
        <pt x="244" y="1412" on="0"/>
        <pt x="746" y="1412" on="1"/>
        <pt x="831" y="1412" on="0"/>
        <pt x="985" y="1379" on="0"/>
        <pt x="1057" y="1349" on="1"/>
        <pt x="1057" y="1125" on="1"/>
        <pt x="823" y="1125" on="1"/>
        <pt x="818" y="1143" on="0"/>
        <pt x="808" y="1173" on="0"/>
        <pt x="804" y="1185" on="1"/>
        <pt x="791" y="1224" on="1"/>
        <pt x="782" y="1251" on="0"/>
        <pt x="782" y="1254" on="1"/>
        <pt x="757" y="1254" on="0"/>
        <pt x="716" y="1249" on="0"/>
        <pt x="686" y="1226" on="0"/>
        <pt x="668" y="1180" on="0"/>
        <pt x="666" y="1140" on="1"/>
        <pt x="666" y="983" on="1"/>
        <pt x="921" y="983" on="1"/>
        <pt x="921" y="910" on="1"/>
        <pt x="921" y="864" on="0"/>
        <pt x="845" y="824" on="0"/>
        <pt x="785" y="824" on="1"/>
        <pt x="663" y="824" on="1"/>
        <pt x="663" y="259" on="1"/>
        <pt x="663" y="217" on="0"/>
        <pt x="671" y="169" on="0"/>
        <pt x="701" y="141" on="0"/>
        <pt x="759" y="127" on="0"/>
        <pt x="809" y="120" on="1"/>
        <pt x="820" y="-11" on="1"/>
        <pt x="657" y="-5" on="1"/>
        <pt x="585" y="-3" on="0"/>
        <pt x="481" y="-1" on="0"/>
      </contour>
    </TTGlyph>
    <TTGlyph name="fi" xMin="39" yMin="-11" xMax="1635" yMax="1412">
      <contour>
        <pt x="1290" y="982" on="1"/>
        <pt x="1480" y="982" on="0"/>
        <pt x="1480" y="899" on="1"/>
        <pt x="1480" y="239" on="1"/>
        <pt x="1480" y="184" on="0"/>
        <pt x="1489" y="147" on="1"/>
        <pt x="1622" y="147" on="1"/>
        <pt x="1635" y="33" on="1"/>
        <pt x="1442" y="-11" on="0"/>
        <pt x="1281" y="-11" on="1"/>
        <pt x="1175" y="-11" on="0"/>
        <pt x="1055" y="41" on="0"/>
        <pt x="1055" y="95" on="1"/>
        <pt x="1055" y="109" on="0"/>
        <pt x="1057" y="160" on="0"/>
        <pt x="1059" y="216" on="0"/>
        <pt x="1061" y="268" on="0"/>
        <pt x="1061" y="284" on="1"/>
        <pt x="1061" y="824" on="1"/>
        <pt x="663" y="824" on="1"/>
        <pt x="663" y="259" on="1"/>
        <pt x="663" y="217" on="0"/>
        <pt x="671" y="169" on="0"/>
        <pt x="701" y="141" on="0"/>
        <pt x="759" y="127" on="0"/>
        <pt x="809" y="120" on="1"/>
        <pt x="820" y="-11" on="1"/>
        <pt x="657" y="-5" on="1"/>
        <pt x="585" y="-3" on="0"/>
        <pt x="481" y="0" on="0"/>
        <pt x="446" y="0" on="1"/>
        <pt x="371" y="0" on="0"/>
        <pt x="204" y="-6" on="0"/>
        <pt x="107" y="-11" on="1"/>
        <pt x="113" y="121" on="1"/>
        <pt x="137" y="124" on="1"/>
        <pt x="172" y="128" on="0"/>
        <pt x="214" y="139" on="0"/>
        <pt x="237" y="160" on="0"/>
        <pt x="244" y="195" on="0"/>
        <pt x="244" y="224" on="1"/>
        <pt x="244" y="824" on="1"/>
        <pt x="39" y="824" on="1"/>
        <pt x="39" y="898" on="1"/>
        <pt x="39" y="927" on="0"/>
        <pt x="68" y="961" on="0"/>
        <pt x="111" y="978" on="0"/>
        <pt x="163" y="983" on="0"/>
        <pt x="186" y="983" on="1"/>
        <pt x="244" y="983" on="1"/>
        <pt x="244" y="1047" on="1"/>
        <pt x="244" y="1412" on="0"/>
        <pt x="926" y="1412" on="1"/>
        <pt x="1062" y="1412" on="0"/>
        <pt x="1296" y="1378" on="0"/>
        <pt x="1397" y="1349" on="1"/>
        <pt x="1397" y="1125" on="1"/>
        <pt x="1073" y="1125" on="1"/>
        <pt x="1069" y="1159" on="0"/>
        <pt x="1065" y="1203" on="0"/>
        <pt x="1063" y="1231" on="0"/>
        <pt x="1062" y="1246" on="0"/>
        <pt x="1062" y="1252" on="1"/>
        <pt x="980" y="1252" on="1"/>
        <pt x="882" y="1252" on="0"/>
        <pt x="759" y="1240" on="0"/>
        <pt x="689" y="1195" on="0"/>
        <pt x="663" y="1104" on="0"/>
        <pt x="663" y="1026" on="1"/>
        <pt x="663" y="983" on="1"/>
        <pt x="729" y="982" on="0"/>
        <pt x="851" y="982" on="0"/>
        <pt x="909" y="982" on="1"/>
      </contour>
    </TTGlyph>
    <TTGlyph name="five" xMin="92" yMin="-22" xMax="1129" yMax="1421">
      <contour>
        <pt x="763" y="1177" on="1"/>
        <pt x="697" y="1177" on="0"/>
        <pt x="562" y="1183" on="0"/>
        <pt x="492" y="1190" on="1"/>
        <pt x="492" y="862" on="1"/>
        <pt x="610" y="903" on="0"/>
        <pt x="710" y="903" on="1"/>
        <pt x="806" y="903" on="0"/>
        <pt x="961" y="836" on="0"/>
        <pt x="1070" y="718" on="0"/>
        <pt x="1129" y="559" on="0"/>
        <pt x="1129" y="468" on="1"/>
        <pt x="1129" y="339" on="0"/>
        <pt x="1035" y="154" on="0"/>
        <pt x="875" y="35" on="0"/>
        <pt x="665" y="-22" on="0"/>
        <pt x="549" y="-22" on="1"/>
        <pt x="499" y="-22" on="0"/>
        <pt x="387" y="-9" on="0"/>
        <pt x="269" y="18" on="0"/>
        <pt x="149" y="57" on="0"/>
        <pt x="92" y="83" on="1"/>
        <pt x="92" y="437" on="1"/>
        <pt x="306" y="417" on="1"/>
        <pt x="313" y="369" on="0"/>
        <pt x="331" y="264" on="0"/>
        <pt x="344" y="204" on="1"/>
        <pt x="438" y="166" on="0"/>
        <pt x="506" y="166" on="1"/>
        <pt x="716" y="166" on="0"/>
        <pt x="716" y="449" on="1"/>
        <pt x="716" y="502" on="0"/>
        <pt x="702" y="594" on="0"/>
        <pt x="666" y="663" on="0"/>
        <pt x="605" y="702" on="0"/>
        <pt x="559" y="702" on="1"/>
        <pt x="469" y="702" on="0"/>
        <pt x="330" y="621" on="1"/>
        <pt x="319" y="624" on="0"/>
        <pt x="290" y="632" on="0"/>
        <pt x="241" y="643" on="0"/>
        <pt x="169" y="658" on="0"/>
        <pt x="116" y="669" on="1"/>
        <pt x="116" y="1310" on="1"/>
        <pt x="162" y="1354" on="0"/>
        <pt x="292" y="1388" on="0"/>
        <pt x="391" y="1388" on="1"/>
        <pt x="442" y="1388" on="0"/>
        <pt x="504" y="1388" on="0"/>
        <pt x="555" y="1387" on="0"/>
        <pt x="605" y="1387" on="0"/>
        <pt x="644" y="1387" on="1"/>
        <pt x="716" y="1387" on="0"/>
        <pt x="905" y="1404" on="0"/>
        <pt x="1026" y="1421" on="1"/>
        <pt x="1034" y="1267" on="1"/>
        <pt x="1015" y="1241" on="0"/>
        <pt x="965" y="1207" on="0"/>
        <pt x="899" y="1186" on="0"/>
        <pt x="815" y="1177" on="0"/>
      </contour>
    </TTGlyph>
    <TTGlyph name="fl" xMin="39" yMin="-11" xMax="1701" yMax="1412">
      <contour>
        <pt x="446" y="0" on="1"/>
        <pt x="371" y="0" on="0"/>
        <pt x="204" y="-6" on="0"/>
        <pt x="107" y="-11" on="1"/>
        <pt x="113" y="121" on="1"/>
        <pt x="137" y="124" on="1"/>
        <pt x="172" y="128" on="0"/>
        <pt x="214" y="139" on="0"/>
        <pt x="237" y="160" on="0"/>
        <pt x="244" y="195" on="0"/>
        <pt x="244" y="224" on="1"/>
        <pt x="244" y="824" on="1"/>
        <pt x="39" y="824" on="1"/>
        <pt x="39" y="898" on="1"/>
        <pt x="39" y="927" on="0"/>
        <pt x="68" y="961" on="0"/>
        <pt x="111" y="978" on="0"/>
        <pt x="163" y="983" on="0"/>
        <pt x="186" y="983" on="1"/>
        <pt x="244" y="983" on="1"/>
        <pt x="244" y="1047" on="1"/>
        <pt x="244" y="1412" on="0"/>
        <pt x="746" y="1412" on="1"/>
        <pt x="1373" y="1412" on="1"/>
        <pt x="1410" y="1412" on="0"/>
        <pt x="1470" y="1405" on="0"/>
        <pt x="1513" y="1383" on="0"/>
        <pt x="1536" y="1341" on="0"/>
        <pt x="1536" y="1307" on="1"/>
        <pt x="1536" y="227" on="1"/>
        <pt x="1536" y="166" on="0"/>
        <pt x="1542" y="145" on="1"/>
        <pt x="1701" y="145" on="1"/>
        <pt x="1701" y="34" on="1"/>
        <pt x="1519" y="-9" on="0"/>
        <pt x="1338" y="-9" on="1"/>
        <pt x="1253" y="-9" on="0"/>
        <pt x="1147" y="34" on="0"/>
        <pt x="1113" y="82" on="1"/>
        <pt x="1113" y="108" on="1"/>
        <pt x="1115" y="148" on="0"/>
        <pt x="1118" y="235" on="0"/>
        <pt x="1118" y="283" on="1"/>
        <pt x="1118" y="1175" on="1"/>
        <pt x="1118" y="1198" on="0"/>
        <pt x="1116" y="1237" on="0"/>
        <pt x="1114" y="1252" on="1"/>
        <pt x="772" y="1252" on="1"/>
        <pt x="745" y="1252" on="0"/>
        <pt x="704" y="1244" on="0"/>
        <pt x="677" y="1200" on="0"/>
        <pt x="663" y="1109" on="0"/>
        <pt x="663" y="1026" on="1"/>
        <pt x="663" y="983" on="1"/>
        <pt x="921" y="983" on="1"/>
        <pt x="921" y="910" on="1"/>
        <pt x="921" y="864" on="0"/>
        <pt x="845" y="824" on="0"/>
        <pt x="785" y="824" on="1"/>
        <pt x="663" y="824" on="1"/>
        <pt x="663" y="259" on="1"/>
        <pt x="663" y="217" on="0"/>
        <pt x="671" y="169" on="0"/>
        <pt x="701" y="141" on="0"/>
        <pt x="759" y="127" on="0"/>
        <pt x="809" y="120" on="1"/>
        <pt x="820" y="-11" on="1"/>
        <pt x="657" y="-5" on="1"/>
        <pt x="585" y="-3" on="0"/>
        <pt x="481" y="-1" on="0"/>
      </contour>
    </TTGlyph>
    <TTGlyph name="florin" xMin="37" yMin="-189" xMax="1104" yMax="1412">
      <contour>
        <pt x="1079" y="1227" on="1"/>
        <pt x="998" y="1248" on="0"/>
        <pt x="973" y="1248" on="1"/>
        <pt x="938" y="1248" on="0"/>
        <pt x="892" y="1212" on="0"/>
        <pt x="861" y="1150" on="0"/>
        <pt x="840" y="1065" on="0"/>
        <pt x="831" y="1016" on="1"/>
        <pt x="798" y="836" on="1"/>
        <pt x="1003" y="836" on="1"/>
        <pt x="974" y="678" on="1"/>
        <pt x="769" y="678" on="1"/>
        <pt x="675" y="170" on="1"/>
        <pt x="657" y="75" on="0"/>
        <pt x="596" y="-60" on="0"/>
        <pt x="494" y="-148" on="0"/>
        <pt x="346" y="-189" on="0"/>
        <pt x="242" y="-189" on="1"/>
        <pt x="194" y="-189" on="0"/>
        <pt x="92" y="-184" on="0"/>
        <pt x="37" y="-179" on="1"/>
        <pt x="58" y="-22" on="1"/>
        <pt x="126" y="-22" on="0"/>
        <pt x="211" y="-5" on="0"/>
        <pt x="264" y="46" on="0"/>
        <pt x="295" y="136" on="0"/>
        <pt x="309" y="210" on="1"/>
        <pt x="397" y="678" on="1"/>
        <pt x="212" y="678" on="1"/>
        <pt x="241" y="836" on="1"/>
        <pt x="426" y="836" on="1"/>
        <pt x="480" y="1117" on="1"/>
        <pt x="509" y="1271" on="0"/>
        <pt x="724" y="1412" on="0"/>
        <pt x="913" y="1412" on="1"/>
        <pt x="991" y="1412" on="0"/>
        <pt x="1104" y="1373" on="1"/>
      </contour>
    </TTGlyph>
    <TTGlyph name="four" xMin="27" yMin="-11" xMax="1242" yMax="1388">
      <contour>
        <pt x="581" y="520" on="1"/>
        <pt x="581" y="1074" on="1"/>
        <pt x="211" y="520" on="1"/>
      </contour>
      <contour>
        <pt x="806" y="0" on="1"/>
        <pt x="724" y="0" on="0"/>
        <pt x="518" y="-6" on="0"/>
        <pt x="389" y="-11" on="1"/>
        <pt x="389" y="167" on="1"/>
        <pt x="575" y="167" on="1"/>
        <pt x="581" y="194" on="0"/>
        <pt x="581" y="259" on="1"/>
        <pt x="581" y="349" on="1"/>
        <pt x="117" y="349" on="1"/>
        <pt x="72" y="425" on="0"/>
        <pt x="27" y="543" on="0"/>
        <pt x="27" y="597" on="1"/>
        <pt x="567" y="1388" on="1"/>
        <pt x="580" y="1388" on="0"/>
        <pt x="609" y="1387" on="0"/>
        <pt x="656" y="1387" on="0"/>
        <pt x="731" y="1387" on="0"/>
        <pt x="790" y="1387" on="1"/>
        <pt x="848" y="1387" on="1"/>
        <pt x="876" y="1387" on="0"/>
        <pt x="927" y="1381" on="0"/>
        <pt x="965" y="1361" on="0"/>
        <pt x="987" y="1322" on="0"/>
        <pt x="987" y="1289" on="1"/>
        <pt x="987" y="520" on="1"/>
        <pt x="1242" y="520" on="1"/>
        <pt x="1242" y="434" on="1"/>
        <pt x="1242" y="390" on="0"/>
        <pt x="1178" y="349" on="0"/>
        <pt x="1117" y="349" on="1"/>
        <pt x="987" y="349" on="1"/>
        <pt x="987" y="259" on="1"/>
        <pt x="987" y="231" on="0"/>
        <pt x="990" y="186" on="0"/>
        <pt x="992" y="167" on="1"/>
        <pt x="1180" y="167" on="1"/>
        <pt x="1180" y="-11" on="1"/>
        <pt x="1072" y="-6" on="0"/>
        <pt x="887" y="0" on="0"/>
      </contour>
    </TTGlyph>
    <TTGlyph name="fraction" xMin="-381" yMin="-73" xMax="684" yMax="1443">
      <contour>
        <pt x="511" y="1443" on="1"/>
        <pt x="652" y="1443" on="0"/>
        <pt x="684" y="1392" on="1"/>
        <pt x="682" y="1392" on="0"/>
        <pt x="669" y="1370" on="0"/>
        <pt x="664" y="1361" on="1"/>
        <pt x="593" y="1221" on="0"/>
        <pt x="396" y="827" on="0"/>
        <pt x="267" y="572" on="1"/>
        <pt x="-59" y="-73" on="1"/>
        <pt x="-210" y="-73" on="1"/>
        <pt x="-354" y="-73" on="0"/>
        <pt x="-381" y="-21" on="1"/>
        <pt x="-376" y="-9" on="0"/>
        <pt x="-346" y="42" on="0"/>
        <pt x="-323" y="80" on="1"/>
        <pt x="-327" y="78" on="1"/>
        <pt x="363" y="1443" on="1"/>
      </contour>
    </TTGlyph>
    <TTGlyph name="g" xMin="74" yMin="-454" xMax="1161" yMax="994">
      <contour>
        <pt x="574" y="994" on="1"/>
        <pt x="705" y="994" on="0"/>
        <pt x="803" y="957" on="1"/>
        <pt x="1161" y="977" on="1"/>
        <pt x="1161" y="814" on="1"/>
        <pt x="960" y="814" on="1"/>
        <pt x="981" y="787" on="0"/>
        <pt x="1014" y="739" on="0"/>
        <pt x="1035" y="693" on="0"/>
        <pt x="1046" y="644" on="0"/>
        <pt x="1046" y="615" on="1"/>
        <pt x="1046" y="541" on="0"/>
        <pt x="987" y="421" on="0"/>
        <pt x="867" y="337" on="0"/>
        <pt x="687" y="292" on="0"/>
        <pt x="567" y="292" on="1"/>
        <pt x="522" y="292" on="0"/>
        <pt x="432" y="300" on="0"/>
        <pt x="387" y="308" on="1"/>
        <pt x="372" y="282" on="0"/>
        <pt x="372" y="228" on="1"/>
        <pt x="372" y="194" on="0"/>
        <pt x="413" y="167" on="0"/>
        <pt x="455" y="167" on="1"/>
        <pt x="838" y="167" on="1"/>
        <pt x="904" y="167" on="0"/>
        <pt x="1014" y="136" on="0"/>
        <pt x="1094" y="73" on="0"/>
        <pt x="1138" y="-21" on="0"/>
        <pt x="1138" y="-84" on="1"/>
        <pt x="1138" y="-163" on="0"/>
        <pt x="1090" y="-280" on="0"/>
        <pt x="1006" y="-362" on="0"/>
        <pt x="890" y="-414" on="0"/>
        <pt x="755" y="-443" on="0"/>
        <pt x="606" y="-454" on="0"/>
        <pt x="530" y="-454" on="1"/>
        <pt x="296" y="-454" on="0"/>
        <pt x="74" y="-339" on="0"/>
        <pt x="74" y="-217" on="1"/>
        <pt x="74" y="-150" on="0"/>
        <pt x="179" y="-50" on="0"/>
        <pt x="299" y="-12" on="1"/>
        <pt x="242" y="8" on="0"/>
        <pt x="169" y="92" on="0"/>
        <pt x="169" y="155" on="1"/>
        <pt x="169" y="275" on="0"/>
        <pt x="275" y="332" on="1"/>
        <pt x="187" y="366" on="0"/>
        <pt x="89" y="518" on="0"/>
        <pt x="89" y="630" on="1"/>
        <pt x="89" y="724" on="0"/>
        <pt x="160" y="861" on="0"/>
        <pt x="287" y="951" on="0"/>
        <pt x="466" y="994" on="0"/>
      </contour>
      <contour>
        <pt x="392" y="-164" on="1"/>
        <pt x="392" y="-291" on="0"/>
        <pt x="567" y="-291" on="1"/>
        <pt x="698" y="-291" on="0"/>
        <pt x="823" y="-225" on="0"/>
        <pt x="823" y="-164" on="1"/>
        <pt x="823" y="-104" on="0"/>
        <pt x="767" y="-38" on="0"/>
        <pt x="710" y="-38" on="1"/>
        <pt x="467" y="-38" on="1"/>
        <pt x="392" y="-113" on="0"/>
      </contour>
      <contour>
        <pt x="678" y="626" on="1"/>
        <pt x="678" y="735" on="0"/>
        <pt x="623" y="856" on="0"/>
        <pt x="569" y="856" on="1"/>
        <pt x="467" y="856" on="0"/>
        <pt x="467" y="626" on="1"/>
        <pt x="467" y="523" on="0"/>
        <pt x="518" y="416" on="0"/>
        <pt x="569" y="416" on="1"/>
        <pt x="678" y="416" on="0"/>
      </contour>
    </TTGlyph>
    <TTGlyph name="germandbls" xMin="2" yMin="-22" xMax="1466" yMax="1412">
      <contour>
        <pt x="794" y="1271" on="1"/>
        <pt x="735" y="1271" on="0"/>
        <pt x="664" y="1217" on="0"/>
        <pt x="626" y="1127" on="0"/>
        <pt x="614" y="1011" on="0"/>
        <pt x="614" y="949" on="1"/>
        <pt x="614" y="0" on="1"/>
        <pt x="556" y="0" on="1"/>
        <pt x="444" y="0" on="0"/>
        <pt x="169" y="-6" on="0"/>
        <pt x="2" y="-11" on="1"/>
        <pt x="2" y="167" on="1"/>
        <pt x="188" y="167" on="1"/>
        <pt x="194" y="194" on="0"/>
        <pt x="194" y="259" on="1"/>
        <pt x="194" y="846" on="1"/>
        <pt x="43" y="846" on="1"/>
        <pt x="43" y="906" on="0"/>
        <pt x="84" y="956" on="0"/>
        <pt x="139" y="956" on="1"/>
        <pt x="194" y="956" on="1"/>
        <pt x="199" y="1069" on="0"/>
        <pt x="286" y="1240" on="0"/>
        <pt x="435" y="1354" on="0"/>
        <pt x="636" y="1412" on="0"/>
        <pt x="755" y="1412" on="1"/>
        <pt x="886" y="1412" on="0"/>
        <pt x="1091" y="1367" on="0"/>
        <pt x="1232" y="1277" on="0"/>
        <pt x="1306" y="1142" on="0"/>
        <pt x="1306" y="1052" on="1"/>
        <pt x="1306" y="1019" on="0"/>
        <pt x="1296" y="967" on="0"/>
        <pt x="1274" y="921" on="0"/>
        <pt x="1241" y="874" on="0"/>
        <pt x="1217" y="844" on="1"/>
        <pt x="1157" y="867" on="0"/>
        <pt x="1101" y="867" on="1"/>
        <pt x="1050" y="867" on="0"/>
        <pt x="988" y="821" on="0"/>
        <pt x="988" y="776" on="1"/>
        <pt x="988" y="740" on="0"/>
        <pt x="1011" y="693" on="0"/>
        <pt x="1053" y="661" on="0"/>
        <pt x="1113" y="639" on="0"/>
        <pt x="1149" y="629" on="1"/>
        <pt x="1164" y="625" on="1"/>
        <pt x="1230" y="607" on="0"/>
        <pt x="1341" y="557" on="0"/>
        <pt x="1421" y="484" on="0"/>
        <pt x="1466" y="382" on="0"/>
        <pt x="1466" y="313" on="1"/>
        <pt x="1466" y="223" on="0"/>
        <pt x="1387" y="96" on="0"/>
        <pt x="1262" y="15" on="0"/>
        <pt x="1108" y="-22" on="0"/>
        <pt x="1033" y="-22" on="1"/>
        <pt x="967" y="-22" on="0"/>
        <pt x="801" y="-1" on="0"/>
        <pt x="699" y="19" on="1"/>
        <pt x="739" y="305" on="1"/>
        <pt x="874" y="253" on="1"/>
        <pt x="883" y="201" on="0"/>
        <pt x="948" y="135" on="0"/>
        <pt x="997" y="135" on="1"/>
        <pt x="1051" y="135" on="0"/>
        <pt x="1113" y="212" on="0"/>
        <pt x="1113" y="270" on="1"/>
        <pt x="1113" y="293" on="0"/>
        <pt x="1094" y="332" on="0"/>
        <pt x="1053" y="372" on="0"/>
        <pt x="990" y="415" on="0"/>
        <pt x="946" y="443" on="1"/>
        <pt x="878" y="486" on="0"/>
        <pt x="786" y="559" on="0"/>
        <pt x="730" y="631" on="0"/>
        <pt x="706" y="709" on="0"/>
        <pt x="706" y="759" on="1"/>
        <pt x="706" y="819" on="0"/>
        <pt x="731" y="900" on="0"/>
        <pt x="779" y="952" on="0"/>
        <pt x="852" y="983" on="0"/>
        <pt x="900" y="993" on="1"/>
        <pt x="924" y="1013" on="0"/>
        <pt x="957" y="1086" on="0"/>
        <pt x="957" y="1128" on="1"/>
        <pt x="957" y="1198" on="0"/>
        <pt x="870" y="1271" on="0"/>
      </contour>
    </TTGlyph>
    <TTGlyph name="grave" xMin="332" yMin="1112" xMax="853" yMax="1482">
      <contour>
        <pt x="618" y="1112" on="1"/>
        <pt x="332" y="1482" on="1"/>
        <pt x="703" y="1482" on="1"/>
        <pt x="853" y="1112" on="1"/>
      </contour>
    </TTGlyph>
    <TTGlyph name="greater" xMin="133" yMin="0" xMax="1373" yMax="1089">
      <contour>
        <pt x="1373" y="495" on="1"/>
        <pt x="1185" y="409" on="0"/>
        <pt x="896" y="277" on="0"/>
        <pt x="677" y="178" on="0"/>
        <pt x="521" y="108" on="0"/>
        <pt x="413" y="60" on="0"/>
        <pt x="344" y="31" on="0"/>
        <pt x="301" y="13" on="0"/>
        <pt x="274" y="4" on="0"/>
        <pt x="261" y="0" on="1"/>
        <pt x="207" y="42" on="0"/>
        <pt x="155" y="90" on="0"/>
        <pt x="151" y="100" on="1"/>
        <pt x="134" y="167" on="1"/>
        <pt x="161" y="179" on="0"/>
        <pt x="226" y="208" on="0"/>
        <pt x="316" y="249" on="0"/>
        <pt x="437" y="304" on="0"/>
        <pt x="603" y="380" on="0"/>
        <pt x="820" y="479" on="0"/>
        <pt x="962" y="544" on="1"/>
        <pt x="133" y="925" on="1"/>
        <pt x="152" y="992" on="1"/>
        <pt x="160" y="1012" on="0"/>
        <pt x="259" y="1089" on="1"/>
        <pt x="264" y="1087" on="0"/>
        <pt x="279" y="1082" on="0"/>
        <pt x="315" y="1067" on="0"/>
        <pt x="378" y="1040" on="0"/>
        <pt x="486" y="992" on="0"/>
        <pt x="645" y="921" on="0"/>
        <pt x="873" y="820" on="0"/>
        <pt x="1176" y="685" on="0"/>
        <pt x="1373" y="597" on="1"/>
      </contour>
    </TTGlyph>
    <TTGlyph name="greaterequal" xMin="133" yMin="0" xMax="1068" yMax="1277">
      <contour>
        <pt x="140" y="302" on="1"/>
        <pt x="140" y="493" on="1"/>
        <pt x="853" y="792" on="1"/>
        <pt x="140" y="1086" on="1"/>
        <pt x="140" y="1277" on="1"/>
        <pt x="1059" y="864" on="1"/>
        <pt x="1059" y="715" on="1"/>
      </contour>
      <contour>
        <pt x="133" y="0" on="1"/>
        <pt x="133" y="167" on="1"/>
        <pt x="1068" y="167" on="1"/>
        <pt x="1068" y="0" on="1"/>
      </contour>
    </TTGlyph>
    <TTGlyph name="guillemotleft" xMin="133" yMin="66" xMax="965" yMax="1017">
      <contour>
        <pt x="949" y="129" on="1"/>
        <pt x="907" y="93" on="0"/>
        <pt x="840" y="66" on="1"/>
        <pt x="507" y="469" on="1"/>
        <pt x="507" y="583" on="1"/>
        <pt x="846" y="1017" on="1"/>
        <pt x="892" y="1000" on="0"/>
        <pt x="951" y="974" on="0"/>
        <pt x="965" y="964" on="1"/>
        <pt x="957" y="941" on="0"/>
        <pt x="921" y="860" on="0"/>
        <pt x="867" y="750" on="0"/>
        <pt x="798" y="615" on="0"/>
        <pt x="758" y="539" on="1"/>
        <pt x="816" y="416" on="0"/>
        <pt x="911" y="214" on="0"/>
      </contour>
      <contour>
        <pt x="575" y="129" on="1"/>
        <pt x="533" y="93" on="0"/>
        <pt x="466" y="66" on="1"/>
        <pt x="133" y="469" on="1"/>
        <pt x="133" y="583" on="1"/>
        <pt x="472" y="1017" on="1"/>
        <pt x="518" y="1000" on="0"/>
        <pt x="577" y="974" on="0"/>
        <pt x="591" y="964" on="1"/>
        <pt x="583" y="941" on="0"/>
        <pt x="547" y="860" on="0"/>
        <pt x="493" y="750" on="0"/>
        <pt x="424" y="615" on="0"/>
        <pt x="384" y="539" on="1"/>
        <pt x="442" y="416" on="0"/>
        <pt x="537" y="214" on="0"/>
      </contour>
    </TTGlyph>
    <TTGlyph name="guillemotright" xMin="133" yMin="66" xMax="964" yMax="1017">
      <contour>
        <pt x="133" y="964" on="1"/>
        <pt x="147" y="974" on="0"/>
        <pt x="206" y="1000" on="0"/>
        <pt x="252" y="1017" on="1"/>
        <pt x="590" y="583" on="1"/>
        <pt x="590" y="469" on="1"/>
        <pt x="258" y="66" on="1"/>
        <pt x="194" y="90" on="0"/>
        <pt x="149" y="129" on="1"/>
        <pt x="187" y="214" on="0"/>
        <pt x="282" y="416" on="0"/>
        <pt x="340" y="539" on="1"/>
        <pt x="249" y="711" on="0"/>
        <pt x="147" y="919" on="0"/>
      </contour>
      <contour>
        <pt x="507" y="964" on="1"/>
        <pt x="521" y="974" on="0"/>
        <pt x="580" y="1000" on="0"/>
        <pt x="626" y="1017" on="1"/>
        <pt x="964" y="583" on="1"/>
        <pt x="964" y="469" on="1"/>
        <pt x="632" y="66" on="1"/>
        <pt x="568" y="90" on="0"/>
        <pt x="523" y="129" on="1"/>
        <pt x="561" y="214" on="0"/>
        <pt x="656" y="416" on="0"/>
        <pt x="714" y="539" on="1"/>
        <pt x="623" y="711" on="0"/>
        <pt x="521" y="919" on="0"/>
      </contour>
    </TTGlyph>
    <TTGlyph name="guilsinglleft" xMin="134" yMin="66" xMax="591" yMax="1017">
      <contour>
        <pt x="575" y="129" on="1"/>
        <pt x="533" y="93" on="0"/>
        <pt x="466" y="66" on="1"/>
        <pt x="134" y="469" on="1"/>
        <pt x="134" y="583" on="1"/>
        <pt x="472" y="1017" on="1"/>
        <pt x="518" y="1000" on="0"/>
        <pt x="577" y="974" on="0"/>
        <pt x="591" y="964" on="1"/>
        <pt x="583" y="941" on="0"/>
        <pt x="547" y="860" on="0"/>
        <pt x="493" y="750" on="0"/>
        <pt x="424" y="615" on="0"/>
        <pt x="384" y="539" on="1"/>
        <pt x="442" y="416" on="0"/>
        <pt x="537" y="214" on="0"/>
      </contour>
    </TTGlyph>
    <TTGlyph name="guilsinglright" xMin="133" yMin="66" xMax="591" yMax="1017">
      <contour>
        <pt x="133" y="964" on="1"/>
        <pt x="147" y="974" on="0"/>
        <pt x="206" y="1000" on="0"/>
        <pt x="252" y="1017" on="1"/>
        <pt x="591" y="583" on="1"/>
        <pt x="591" y="469" on="1"/>
        <pt x="258" y="66" on="1"/>
        <pt x="194" y="90" on="0"/>
        <pt x="149" y="129" on="1"/>
        <pt x="187" y="214" on="0"/>
        <pt x="282" y="416" on="0"/>
        <pt x="340" y="539" on="1"/>
        <pt x="249" y="711" on="0"/>
        <pt x="147" y="919" on="0"/>
      </contour>
    </TTGlyph>
    <TTGlyph name="h" xMin="35" yMin="-22" xMax="1424" yMax="1412">
      <contour>
        <pt x="850" y="623" on="1"/>
        <pt x="850" y="651" on="0"/>
        <pt x="847" y="716" on="0"/>
        <pt x="832" y="772" on="0"/>
        <pt x="800" y="808" on="0"/>
        <pt x="772" y="808" on="1"/>
        <pt x="743" y="808" on="0"/>
        <pt x="672" y="777" on="0"/>
        <pt x="627" y="739" on="1"/>
        <pt x="627" y="233" on="1"/>
        <pt x="627" y="205" on="0"/>
        <pt x="636" y="170" on="0"/>
        <pt x="657" y="147" on="0"/>
        <pt x="693" y="133" on="0"/>
        <pt x="720" y="127" on="1"/>
        <pt x="731" y="-11" on="1"/>
        <pt x="593" y="-6" on="0"/>
        <pt x="430" y="0" on="0"/>
        <pt x="401" y="0" on="1"/>
        <pt x="322" y="0" on="0"/>
        <pt x="168" y="-6" on="0"/>
        <pt x="90" y="-11" on="1"/>
        <pt x="95" y="126" on="1"/>
        <pt x="128" y="131" on="0"/>
        <pt x="171" y="143" on="0"/>
        <pt x="197" y="171" on="0"/>
        <pt x="207" y="221" on="0"/>
        <pt x="207" y="265" on="1"/>
        <pt x="207" y="1187" on="1"/>
        <pt x="207" y="1227" on="0"/>
        <pt x="204" y="1251" on="1"/>
        <pt x="35" y="1251" on="1"/>
        <pt x="35" y="1364" on="1"/>
        <pt x="231" y="1412" on="0"/>
        <pt x="435" y="1412" on="1"/>
        <pt x="495" y="1412" on="1"/>
        <pt x="537" y="1412" on="0"/>
        <pt x="588" y="1403" on="0"/>
        <pt x="617" y="1379" on="0"/>
        <pt x="627" y="1334" on="0"/>
        <pt x="627" y="1298" on="1"/>
        <pt x="627" y="882" on="1"/>
        <pt x="705" y="936" on="0"/>
        <pt x="889" y="1005" on="0"/>
        <pt x="983" y="1005" on="1"/>
        <pt x="1057" y="1005" on="0"/>
        <pt x="1165" y="955" on="0"/>
        <pt x="1235" y="862" on="0"/>
        <pt x="1269" y="728" on="0"/>
        <pt x="1269" y="644" on="1"/>
        <pt x="1269" y="248" on="1"/>
        <pt x="1269" y="183" on="0"/>
        <pt x="1278" y="147" on="1"/>
        <pt x="1411" y="147" on="1"/>
        <pt x="1424" y="23" on="1"/>
        <pt x="1233" y="-22" on="0"/>
        <pt x="1070" y="-22" on="1"/>
        <pt x="844" y="-22" on="0"/>
        <pt x="844" y="85" on="1"/>
        <pt x="844" y="99" on="0"/>
        <pt x="846" y="150" on="0"/>
        <pt x="848" y="206" on="0"/>
        <pt x="850" y="258" on="0"/>
        <pt x="850" y="274" on="1"/>
      </contour>
    </TTGlyph>
</ttFont>
